<mxfile host="app.diagrams.net" modified="2020-10-23T17:09:10.451Z" agent="5.0 (X11)" etag="MkiirK7tuIKUqqFy4vkg" version="13.8.1" type="github">
  <diagram id="mNBWHAvhoi2qbV-FVOZv" name="Page-1">
    <mxGraphModel dx="1632" dy="760" grid="1" gridSize="10" guides="1" tooltips="1" connect="1" arrows="1" fold="1" page="1" pageScale="1" pageWidth="850" pageHeight="1100" math="0" shadow="0">
      <root>
        <mxCell id="0" />
        <mxCell id="1" parent="0" />
        <mxCell id="FpV503ibzP503yleN7c3-1" value="" style="shape=image;verticalLabelPosition=bottom;labelBackgroundColor=#ffffff;verticalAlign=top;aspect=fixed;imageAspect=0;image=data:image/png,iVBORw0KGgoAAAANSUhEUgAAAZwAAAEsCAYAAAD3iwVMAAAABHNCSVQICAgIfAhkiAAAIABJREFUeF7s3Qe4LE1RN/AlKEmQoCQRkIwgQYICSpYgSM4IgoAiIKgkkSwowUCWJDlnlCBJQYJkFEGygiJIUIIEFdH96tfy36/v3A2z55573z0vU88zz+7s9HRXV1dXVVdX155gXjCbYKLARIGJAjtIgf/6r/+ave51r2uYXeUqV5md5CQn2UEsDzZKH/rQh2Z3uMMdZn/zN38ze+Mb3zi76EUvetQ6dMJlNX/rW9+auY4LoP++8Y1vzL74xS/O/vEf/3F2v/vdb/bpT3969m//9m+z//3f/913lLT3sY99bPbud7979u1vf/uw+r/0pS/NXv3qV88e85jHNLyOJujzM57xjNnv/M7vzD75yU8ezaaOWd3/8z//M3v9618/+7mf+7nZr/zKr8z+/d//fU9t/+u//mvjhXvd616zD3zgA7N3vvOdsx/8wR+cXfe6191TfWNf+tznPjc73/nON7vrXe86+4//+I+xr+25nDa0dc5znnP2L//yL3uu5/jy4j3vec/Zta51rdmv/dqvzczFCfafAplPX/3qV2d/+Zd/uf8NdDWeuK+dwHvXu941e+973zv7sR/7sTbQJzrRiY4qAsPK/+RP/mT22te+dva+971v9p//+Z+zv/3bv5096lGPmv34j//47IY3vGHTxPsJ3/zmN2ePeMQjZk94whOakD/72c9+SPWvetWrZg9/+MNnH/zgB5vQPMUpTrGfzTfFTqid9axnnf32b//27LGPfWyr/4d+6IdmP/IjP7KvbW1TGSb8/u///obXkYC+3fKWt2wC9POf//zsFa94xezmN7/51lU+6EEParQ55SlPOfuJn/iJ2d///d/Pvv71rzfF80//9E9HjOcqhE52spPNLne5yzVjZ5lBMnyPgv3oRz/aaGcMtwUGkD66JufD/6feP/zDP8ysdiY4lAL4zTygLCjki1zkIoeRyO/myI/+6I/Ovvd7v/eQ55/5zGcar5L3jO5NQF5ZEQXUp96xsFA4rCmWFWuUNcmyuPrVr35MFc7jH//4ZsXq1G1ve9vZjW9849Y5xPrjP/7j2R3veMd9Vzjf8z3f0wSY/p/85Cc/jG43u9nN2kCysI4GEKSsfsqGUN4FoGzucpe7NBfGb/7mbx4RSh/5yEeaQr3zne88+9mf/dnZmc985j3Vhx+e//znL4TONa5xjdnv/d7vzRgMjJOxivG///u/W/kznelMS9+53e1u14wb9avTZHzIQx7SJvQy/nj5y1/eynkHUIB4xVzCv2ipPfyFnim3igja+IVf+IXZFa5whdkP/MAPHFbsVre6VWsPPcb0GX5Au8rrP2Wt/3AN7fRXX9GTCwu++szI6/nS8xe96EWLOgkq5dTj01z1jvpXQeazT/zlk2Gnv/e9733bvfq027dNPjBatKn/8NXmQx/60MVq0Hy+znWu08ZPeX1M/72DvsFXP6xeN+GrPPljLIdAdli5jwWy9W53u9ui+NOf/vTZW9/61la/etS3DZAfn/rUp1qfGMy//Mu/3OpBT2NvvKNwGMzKA+Or/wxA9HaNAfzXK5xTn/rUsz/8wz/cyNeLuu3hgA9/+MPzclfMb33rW9vTmT/pSU+al1WXx0f98xOf+MT8bGc7W2v7Rje60bwYe9FmWTbz+9znPvPSpu23L3zhC/MHPvCB8/Oc5zzzsp7ntSJalC3Cz5/97Ge3Mk95ylPmf/RHfzRXd+BNb3rT4nl+++d//ud5udXmZS0syqmzGHteQmN+yUtesuH10pe+dNG+NmpltCjff9G253BZB3e6051an374h3+40bsmTmvHddOb3rTVP8RfnSUUG61cNTHXNdGe/d3f/d28jId5TcTDymsjl7rhfqlLXWp+whOecF5W9mHllzWW+uGDZqG/sj/zMz/T+nOqU51q/oAHPGDZ64f8pv0rXvGKi/71/Vd/CZn5y172ssavZzjDGRb3qyquVXLjg4tf/OKtzhK68xJs8xKI8z/90z9dvJbxhmsJpflP/dRPNVoo4z00Rx/levzgUxbeHF8ZC3WrA88oe/rTn37+fd/3ffPae5iXC3AjPbVZK6r5Wc5ylnm5kg9rT90lVOellEbxF/xcKV8ehEY39Z/mNKdpeBnnX/zFX2z13f/+92/l8Qp8zbHML/yKV/XHpW/B97SnPW17r1aEjXf9vgr++q//en7hC1+40emCF7zg/Ld+67cav2V+P+c5z2l1lTKal8GymBOee+ekJz3pvIyPVn0J0fmJT3zi+TnOcY55Cev2/NKXvvRi3Ny74KVv+qiv8D3BCU4wCt8SzvOrXvWqCzxSp89e9qzqb//7Zz/72YZr6vDsaU97Wrt/3vOeN6aKQ8qgSRkn8/JKzWtFPT/jGc/YcCrlehi+yl7mMpdp75cB2Pquzdvf/vaLsqtkmnfC349+9KPn5z//+ds7mY9jEbdsPwTKsm0VPe5xjztEAA/L7fd9WfiN4TZ1oJaP87KCmuDAQCa464UvfOG8XC6HEDkMeuUrX3lOqZhEmMxkOfe5z92I3TO07xTdb/zGbywYtKzSxtBool0MQ4ie7nSnm5e7sU1WE4QAhJNyBILrHve4x1oymcApT8CZeGFEzGBiuTeBKV3Cr5bMh/SRAKi9pZXt6CMGP+95zzu/wQ1u0PpdK8jGoARK2vOpbhOScnevb4T1OkAz9ddG47xWAguB+6u/+qsNL3WkD4TyJsB/tQqaY2qC0RjiDdArHEonwtT3VUDhpD/woEwI29D2L/7iLxqve3bNa15zXhZ0U04EIOOLkeGZMa99xMU9nkA/k9xzPIN3LnvZyy76i5ahb63GWtlN9Kx9y8Z73iuLdV5W6uLe+3jQMzTHi+sAvdDfuNSKq/Ut/YE/OuCftGcs0d98wtOea+vnf/7n5+Vqb/0l0PAhpYj+kRfpp0/vG5N1BmtZ4W0uaqNWVAsB9md/9meNlvBTBxqkbn1Pe6G3Z/hFHSD0x++Uqed++6Vf+qV57cUeUl+PM6G/DhitlG/eCX7r3ln1DG3JB3WF/yje8gSsemXl7+YH4Y8uxjryCL7GyuU7g0N7xozcpPDRBTAOyvvQnq9TOMoyyslaY6xthtg2cFjQAB9gMWFb4ln+HSuw9CvEmztt3fLOPpNloUgKrgt7PkXU5vaA9/Wvf/0Fyp7XYDSfOlfh1772tVkJmtlP//RPzywFLdu/8pWvzErrt3e4EuKi4f7wvnrLIpqVNTj7yZ/8ybappi7LdnWos6zwtu9VQrbVc7GLXay5pK53veutJZ9ABPjBv1Zsba8goH3uRc8tuZ/73OfOSnC2SJIejJGxWgX2wdC2hN+slFrzt3KpcDUMgyDUzQ1xiUtcYtFffV8HL37xi2f861wB+l8CrY2D5bol/e///u+317kuauW0rqr2jLukrM+2bLeBjh/KYpvVpGm4uzeeAgaK4Tfyi6im9Ef9xtB+3N3vfvfGC6UAZtx+wHgYZ0Eb5kEJobaXoj/G/B3veMesrOdZCYfm/uEGtefpuegevJD9Kf1VP9dYre5ae/zlvq8Dz409QNtSdM19BGoVPCtrtLWH5rVSWFdV4yc44eFSTo3XjZP34a8/+l6GUev3Ix/5yEZ/NOYS5AoF+OKJT3xi45dSErMSVs2Nwh3U++/xqmf2rgTirNtz0Sfls8dXBltry14qWsLPuBlj+AJjl/ZCb3XYZ85ecxkJrTx+T0DJm9/85lkpyYYT91LGoATurJTpzCeeWwdce/gjAL+97ueah1z13H/2Jc0V9e8lAo8cRDvzDq8ab65n4+mZ8dIOd6pPY2vPR3/Tnrl0rnOda1ZG1iHusmX0+PKXv9zkHbmDT229bAVD7VSTolk9VUmzBo4VFPMvrGPaeBXE4rn2ta89r87PayN3XhOl4fvgBz94YcGwuFl0sYiUf+Yzn9nKsW5ZK6UQWjNZ0rJwS9k190/q9zwuAHVpQx23uc1t2spDOdb8n//5n7dViGdDl+Cqvvg9+MXC8r4r7cMp98UUzfKzUlE+11ve8paVTcAJffRJPca2lECzlFlZfv/d3/3ddqmXW693eays+DsPQo/gqz14aYcVNByvTfWF/nDtXQ/qZH319GXBu1/HL9rr++MdwLLkVimh0dwM6un5PRYha1DfPDdWtd/W3Li5x4N57v1hf61YuH9Df6sEq8tV0NenDaDvy9qDzzqI5crK9b4VW19/GWft9Z4+Jcgbrixe/OA9lz4uW1Gmv8rUvkGry1UKsc3NddCv6NNOPuHMK6EPcWnrb9+e73HtZEUd+eX9pz71qW31dvnLX35Bfysrqx/tWP3DEb5wsfJYB1xVPZ7a3itE3llJoze3Fu/NtmCOmWt4pPaGGn5WL/pkvsRjFI+A53g7/M1lDbjY4JL5sQqP8Af6WlXylmxaafd1HbbCoQGFIddk35PGrQ7tCWxqZlOWddtvTK2rkGVTRG1FrH4CNDrrqAcamaVm45q188pXvnJWTLkoUsv7magPm/hWAcsstLTBSmGNsfJYg3Avwra6WBCu/YCcQVCXtvXXCsrmncvmaAnPQ/ret4sGcGVRsoCMrfJWZFY+Vmk2MV1WSrH+xuLe09w7aGBVhY6sIFYUXhoLT37ykxv9BQSsWl2JHHMdyXkBFjAcWXXhu5qkh6HZt+F7Kfylm/mHvfidH/AHa7zcELMyHkatyLJRviziaFU7y363IWxDudxUzYovgXoIvycQJvPN6kBZ9LfSwWcBcwdveGYl5B0rWrwVsDout2mz2IWvbwpj7q1jKzk4Bmzks9LjcVjWP79lwz4rHit3PO59G+P4v9xpLeDIdzQIwN+qxWXFZj6sAvIgHoyUsbLIb55bkQ3LrKqPvCuXeot+hFftES340MpWtKwV9CYwx6wSQ3flzUmrV+MRGMozPKbde9/73rOb3OQmbQUIFzJP2VWArniAzBXV5l4U6lh5fZjCiZC1ZM+ZCRPzWc96VnMxLRPCq5Db5nfLvbImm1DUEUyAYbgBnMFBUEu/snbapOdK4xpBbK4xAqj8ugvBi1FDQHhgpre//e0LJWPpT7mqX9kAgW5iqdukMWHf//73N3dICK19k9OZGXhgZsqnLLJWDVfQtmc2TBSuokBcjH0IcegPLwxjsnHHoQ/aLAN4cMfpI7oSYmgWt6LvIlu4Tf7gD/6gCZOe4Wqj/xD6DNugbAkGwg3N9MHyvizT5hLE/HhJhM86V2nqDX9RtL2yNbEiwDJuezmXxS1Uq9HGC94vS68JJIqXq9aYojkB5lgAfkt0kkmsD4n8Eq6PvnmOP7gwwp/4kXLnEhXOrz/4dFm0W/pPWcfF5zf4JtJK/f1z+KwD5QkC7hvjgK97JY4H8JDIMHhxE3MvcxcRwLXqXRht+k0o1v5ncytf4AIXaK4bApxbiuJmwP36r/964yHPNxkvnpvz3DvlMWjvVSBCw6n28Bqd9Dfh6PpLgRN2Lrxs/PSJy7BWLq2e2oNrrvWy6tv46L+6jTE5wn1NzuAp+FKQyqw702VuiJDTLnxdvhtT8wW+5BDDYlk023CcIu+4OB1/KI9L4x38T5HpD9psAmXSLwZRrVCaQa2f6qp90CZHXcq54K2/aGcOvOY1r5kxtuHAndxHBg7b50bUhnHh4iU39GU09Msd0UZ9xILvfiuh3Dbcq9JDIntWLbuO5Pe4Y7Rlo9ZSPktiLgDuCBuAImyUsfQXJcT1YZO6d8NY4ufeEtCSk0vKEj1uw95loqwlok2xIvohy2dtudCidzX4TZQI14noJfeWyNxY3EuboFZcS9uJSyHtosMLXvCCw8paCq9b0qIJd0Pq4UbzjiAHwRT5PZ/cBvpiya3sJhcQenmnLLZFXcbGGKFVotTUzz24CcrfvhgbLou4THr84cZFwD1SVuW8VkVrq+1dRn1/+6COEpbzmoytPvWXMmn8xEXDRSEaSvACt4vv+gi3PFcG7/b84TleEm2lTldcGKsQ9n5fPi4ibj+49c8TTLGqLuOSdn1y4wxddnkOT2PpUo7LVV+1oUye+y3vKAfqrFzjKb+LjtJHPDQG0Jh7U79SV+9y1Ebag4vyxj6Xd7yrDr/1UWM2y4O/8YRnyusHXF2+p/1VOMMpbWpr2J45aD7FhbWqnv73UnTz2utrtO4B7cgUvLoJ0GOVi7aPzlWPe3zey4v0aex4bcJn0/MTKFAda+CchCU1oC25pVg5NupocNYaC0I899EC1mtiyLk9ApagLEYWFkuXVfKGN7yhaVdLQkt7VgcrLWBFwLJZdU+Te5dbjRWpv7FeWaU2x7KBy0Jg+TmnwR2FHvBjhbFetc9SZtkDeLAihm69BTLf+cL1ZgkdYB2xvPQXrVmPgCXkLAsLnAWc8xzcapsg+MKfmwSu+sr6Ld91e925CXXqH2DRogH8S8FuaqKVtbEPjEPGg4tMf9SPj6wY1oHxV5f2s0Gc5TpLkruEqwH+wLN+43pZ3awwdLJSrejCRSCDfuGngHFQV18ffLShvWws4z84Wl2ysoOf99ALHTwf099l+Pa/hR7a931TXzfVZ6XDtSfYAXTTf9Or0/M1FCAfuJbKQG/urPDnslfMce5rAStWllaG/fkbz/GrudK7xZbVddB+O0ThcAll+UqQmjyWYIBLBsMj0F6iKbYhDBee9nwGgk/uuZyUsQztl+5lqSzeic85Pwzv9UMkkXfU1/fXO1wSqdtzrhLt9fhxJaSM8nHzDPEd238uAGPgfe699Idi9RsBYTm7zi0zbCv4wt/49TCsX//2E+CrP1stu1cgwEXg2uSqGb7eKxzuAG7S71bgQi2PwcJ9Oymc/eEERjKDnIuOe2od2J6gUMiK8lw047mfH1xcDGD7QTFy1tV3kJ4donAOEuITrhMFxlLAHlZSItkjsEEqbPm7EawQrWQZUBT3mH21I6XTOoPnSOse834MVwYcBZs9W0bbXgwshnfqiEHe45HnDNqhgaecFbGVC8W0dVjxmA4fQRkrtRi89mYZ1PsJk8JZQs1sTh/frIslXd33n7hsVgUwjGmM+89KU5TUfgGhakMXsCQJ3HWpV/ar3b3Uk3NWvQtvL/X071g1c/ERhFzEaEGw+L7NSrmvkzuZJZ7gGPjatHdeKeAckA3x3qXrLNYYF+2R9jnvcx0KEAFc1DbjK1y43dsuIFS3AcqLwcK1nTqGLlgGDte8rQdtHiRw1knQgjlSe8YtiGNfYdMmz/H9eU3CtiFqY9LmoU04gQQJQji+93+/+mfjHg0FVNjEtDlpQ9YJ923AiWsBKsdqE3Mb3I52WRvegg9cUtDsF5RyaalZnNnoN9WPpP6kFiph1Da3BbXIEtAH7SRVizNqCdLZ9mT6keDo3Zxzg6MAHTgF59oDHl09fsbX/bk/9QxP5jtLk8CrTeekRje+RUHBD3AdC+SfwIzMt9p3XtCnP5c2tr5N5fZ3vbSvqvDYVMZiYYGxWFhDNrhlh2ZpsggnGEcBFnNN5mbhWlHY+OSrFpDRhzdvqs0+UzH6xjMcqUegxrpzA5va26XnrEsuHsENQtj36wiCFacLb489L7GJLgnL78sJNOpdRDnDlDBiRwmSeWJT/fv1XOCQMz5A3626cj+WL4WB25txHKE/97cMRytGKyfn/frMIcvKHulv5lZ/dsz3W9ziFq39seMsc0ApxnYUYJl3QgDEsvk1PNczti8HSuHYlLeUX3ZAi0/VBnjODg0J4J0+6i3PSyMfElEibp2rQHRbDpQqq37uA23Ef+t376t7Wf0Ymo/3JS95ySIAwkahOlxxR1B6UlKsw3/Ynx5/ZzVS57D/+uw5V4LPQOi1rVDT3769vO8sR++mkgVYtmT97em1qh/53fmXypywcKmlXz4pshw0VacNV2dBlIcT3LQnUlBgwPDgIdqYYOpQX3+Ox/h5z9kN+xwZG3W4d66hz1a9rh/9eIZfCXs4wcFzZzrcu3z3mz2VXkihbf8c3s456W+MIfj5vyaC1V959OOpPENKNuX93qvhmnQGxHkW4Dwamiaq02+JEHWGDW2da9JHtEVPysm9aK3Qex1dPbO/oL/cWJSzfRK8p21nxigGKaWc40Obs9cBStGigf4c1BjeZ0g55/Pxj3+8GU74Ou5ZdeIXfXZ2SHvGkQsvAh+fii5FLwFKoleXya9hv5VxXkhUqYPTIuDUj8+db2NAcNcxUvQfP5SHoZ2HoyT0GV9tAmMiQIHRnRRKeYc7lAtUG1yE5hf+8y8Czuzoj77nnNimtjw/5P9wxrxwNMuYIKzbDBaiIjhCs5gxtYFwOE0YYU5C808jiEnFwiCIhOXaCxA9gskwztve9rY2iAipPsSzkiHkAoQQS0FZjOJQpcFQBtPQ7HzVnskZhREpFIARHR7L6WsHCTEC/PhE4SdsMpYVKxED67cwaxFEJrDoFHsYyzYch/Q30YQ2Y2wh1t4XNkzQ6Rt/s3BodBAZQ0j4nSCCDxpi1HVhnH2b+ssHnvZy+G7Z+yxcYzYWjLu+GB/0RffKPL14Hd3QxSE8fICuFDXBlsnM6hNyagxZsk5SE+LG28oVLyVM22QRTEAgihSq1EftPULQoc6rXe1qbaL3By/Rc9OxAHQ1nnjZQTl9sUmM5mjnwKWxYPkbe1bz0+tAY3+yH2+ghwnvBLvnxpVf3aFl9/ibosm+CZwpF4Jcfx3oxffyZCUMeuxYjC2nLTn+gEOg/cFS44XXjKP8czIJmA8ODBKaMY4cd0AD1rnPdaBOhzrNMSHtVoKErPfwQf7DC83B2JP/q9o05xlSDi8D8sCcCwiB17YxIK8cK6iUV4u+CW1OrrQ6pzf7q7/6qwX/rWrT72SJPGv4HI+Sb+iFX/IXA8qhJ76Ss8/q0eFcc9GcjjGwrh1zA3+bC3iK0g4kLyX5Jp+h+eTojPmD9vDRb/tg3h0jrzafLNrklNvH53JOOSzH35tcXLIGFxO1/GcOEfKPJheaQ4I5KOgAqBT/fMieO9THd1zEa/cu3/lci2lbOzInO6CZXFN8riWsDsml5mBUci95P/Wp336PXGJwhbvcaqXw2sE3flE+cwdNHYKsU/iLlOypx6f3pFpP/0rINX+7zL1jIAdHZc+V1bcmSDtIxlefw7ElQFufpG8vpdZSwgcH5R3aq0k0prlFLrlhe16Wh6k/+NbnchpTuSzE8EouKP7+4FnKa4G3Q3EO8Ukz77mDmHJ3yQbc0zZ12W+wvyRXlDGSB88z/GQMjWX4I+97ZgxycDW5xRyE3gSySsNJXaGH9t173wFR32Vgzh6Dw7lwwe+eKSOPmO9wwyPJPRb6+MuJ4JtPY8Afbx9Mf2WnlpMsh3yHew6b+rLpuUO1mT/4HS17nPL3HuaZ/Y/hwdOUlZ+uBNim5tq8lQexBHejJT6032rstV8Cc3EwO3soobf7vn0Hw8dA3ocr6O8dJjeHPdN+CeN2UN299tAefcw/fIseYyDyw/ysFcYik3lyF/Y0Vnf+OsXv4Y8x7SQ3nT04tOn3vDwbPu/b9Z0s8bc29gnHwM641KwcWKe0piUhDe07y8ISmlXIMpJ6gXWYXGgOTVmOsywsCVlczql4h2XHb+zeO/YYRMgUw7RIjCtd6Uotn1H/J2OsSe3GR5nlchG3Wa3cGeqzOmJdsDiSUoM1xPJnnVjRWG25arI310gJAtUcAqxC+KtTvy3JuQH6A4nDd/p7FoolN0sWbiwiFjaLJ7mpWM5WaJb/lYq/paAJZKUw1uWSMwZ9eyxYdDhSGEa3xd9vhcZ/HtdIXBfcK6w4h3etipaFmFo1svZdVq8sTqtQdXLLGENjif49GEsROolA4gqxchpz8NLKJZmO8ZIxRh+86H1jZmzgkVx+yc6e9Ej4z0oLwA2PDOljBWSV4yAnP7zLCsPKz4pWf/nmrcT38u+jY8bTuaYcQmb5WmWUUmgXYJmbD9zTw9ULegRv3zdlX7b6NG9Z0i60LAHcsl0bf/VLyZPD25vwH+NS21QHumZ1r//DPR7WvxWKcTIHrdDGHOZEU54c85NcSDqmzDO5Bq2gXeaz1XgAXcbw6aa+DZ+HV6180rbD9+bmkDeH7+Z+ZxQOpuRft2ksF5BlI4Yordn8tpLEYW6TWYp48eGeuww6Ic2na0lNARgEEy6TlguOYCLI4/+Xth2DWJ5b8oOUj8Ip63JxKIsrJQJXHerXPqJrn7sDEBDwg4+L8MI4+qI+QoFrxWVfwGSp1VZzD9mgJATjo181cMPfTbIs9bkxuO4SYos+3DBcAwQg3GQwCA5cGk7NbwMEWrIqcEm5htAnRh0+W3ZvYgFKN3saKUdxD5fsaKUvCe3VN+MnnxVauyh6/uYIOwYLIwWtHID0ye2HZzzDh/gN7r1Lwhj2e3rL8O9/oxzxKhxkMCBsuCvwjGweUuZzOWZjnULxLIeqCTFCahmEPp4pX9nJF3nwuNH0Cb+B/RCqy3DIb2jPx48+QLvo6m8UjJf29TEZJtxnE9q+hzloDwKM3cfBawIrGB72KewB2bfx3fyPOw0/rIPw27oyw2er9pCH5dyH9oQ/V7YxJePG7nmQE1zM5i2eZPREPlFa+qcNgTN9thJGFkO936Nchl//G3m2bM8nfYj8wpOUHh4jyxiq9pLGBinsjMJhHSAqpmONAh2LRicIEAVQGv0KAOO5gMm4LDigPeyeI1QEsu9DC5+CYnHZpFvGIHyXBpzFworBHCY+6PH+TrOLDwqIACQYWJ9WavH9JpuwFRhhOgb49TGX1R1LbxkMs1ejndUd/zY8CA0036TkMBVrHaPZC7N5uA56f/66csNnQ3yH9ylvIhvvWFuUBh6hcJz6NkYPe9jD2sSj1AE+k2g1K0ATqFyijWcYDYIr+M5ZcVZxe1252YPpN9CT/Tg8Axf7GMNT6dkfisFjJQbwZ5S671YxVvCMFHtTcOZHJ5QYAjlfIrGsIJjeIDDH0Eb5vfavIVUQhZf9J+3qa/pLEbG+Y3HjtayIGID2f3ig8KzFAAAgAElEQVQdfG7KsE5xWTkZQx4L7+NjwpyQBVal2ZM1jxhGaBXo5cOQ9otCgy8UJ54H5lm/gtJuL2/MocgSssH85kVhZFC6DKQxhgt5R5ArT3kzCPXdeDKOzXkrZHsqPCd4P8DjQJmj01jAD+oaKo7sN8MHvcksxpK5z7CwUneIetke7rK2d0bh0OKYE5FsChtEWjwdNvljtXlm4prULlFElILn8oxhAgMUq2tZxy3PtWNip76+XK/g+t9jneU3A4/YBngVI2FAuMHHZLfJ59K+vwUwIVxcSNuk8odD8EG/odJc1m+/oZ3DaTYzfXJroHPou+o9ZbJBbTz6rMbL3oGbOpXdBtDRNaT1sA4CnYLh6nRxwzJaWHsEkourCg7LaKP+CEA8gw7esRFvrOC9jP+GeKy670OA42Lty/b8nd+H7pYoLf0wVsD4Ear6C6zm4cwtpT8sfAKft8A7+hShq89oQdkpn/71eG37Hf9H4AjqyMFagsg4+guNAPzyp3TmDheYuUaQR7mua1/fshrHi/oSBae/6utDhfXdCgjoO8NKe2Bs3/v+4S3u+kBchv192te/8LB3vDukx6KiFV+4DClUMo6MQSMZ2q101I9H8UEOStvYxx/m5qb5rEl8jp6uZN9ggAm8iuegRy30N1/UbyUPn1Wy77BujdnoORZlbJgKDigE2yZpWR9tA96muECAsjLa5qBNTxu/ggdszsp8amPXxpkNQxt3Loc4bVKWW6TV6Z1SLIu/kPZbWbdtQ8/fRbtXNn/B6953bWrbvc34flM0G2o1aPMS+A1f5WrCtU1tG7e1omkbx2VNLv6oy2ZurTLmFYHUsm/bhBRcoM9wUoffxkCCBvQ/ePrL3bJ+FvgIahBAAcoV0erXnnf02R/GoU2tBNY2qUw2tbWlb+rq29PXZO1FW88dAB0DNWlaefQ0fv7q2b3L+NkQT3slLBrO/hbbePsbZZuewU85z9DXxraN1NTlU/9rZTl/z3ves/jLXL+jh43TEuiH/GV57Q/Ny1gY041DyqjLRm8Jh/Z7Wditbr/jJZ8JTMBfGf+0l/EK7j1+pWwbX3nfpS6BBkAQSCmVRZ/zXDBJH0RQ4clb92nZC7VSahvb/sAvABdzsqz+Q16Bt+Ac+Lp899sYICeMJ5p6Vx/11VXu0zZHzUvzAm1cacehT3Na8AyeIUPGQLmVWnCS8VK/YIPUWQpnMZ5+03aeaRu+6O13VynIw+ixDAc0c/hXXfoqwMShUoBW6lGfABFtBMhEv2uT/NsEyijrKi9Rk6kylJtLeFWbfX0p7zey1xzcBnYutQ0XUXz/Yum5GCzzrAT6cGnWY84scAuwVnxa4rMKrXxYGvmPC/f2S7ivlGNJcg/xUWbDK+4Mvl11cAmpIxZL/O25Hz4vodBAfd63Aax9LoNYu1xl/fssFf2KtdXjn/rWfcLfuyyp4JON57hLgk/62ben/W1cX2kPTvqIjqm3p7/n6VPGY10/8ix+deOl3pzlUIe2Mzaej4GaDG2PRlAJy4/bAN+wcrnehBFbHcAVXTzLOI+pfyozUWCiwHgK7JzCGY/6VHKiwGYKWPZT9jZfuSvtzVFefPvOWpUVeshey+YapxITBSYK7JUCk8LZK+Wm9w4MBRzOs8djHySRUFYxgjz6kPgD06EJ0YkCB5QCk8I5oAM3ob0dBQQXCEhJqKgNUWHPw1Dr7WqdSk8UmCiwDQV2TuHwuQv1BASCMOJdB2lDRAPZCxGemLMUe8FbGLa9EFEf8rAdhP7vpZ/TOxMFJgp891FgZ8KiQ3rKxolxGU9z7mbXh8VmszxWDleOCbXk1ll1yE1eKGdGkh9t1/s+4TdRYKLARIGxFNg5hTMWceVEZslIwDe/K7Apeqo/N+K7M0BSQ+SchHh6MfA2t9edI9qV/k54TBSYKDBRYCwFdipbNKQd0rrQhS7UIof42YURC4d1D4QU2/ClbIQcy4MlO2tSawt9TVg1F1dSQShv9aEup55TXwiV59J0OIEsDFtdCb3OyfGhu6w/OZ5cWers23OfsF7pTRxYU58VkXBdh6icjKc85TqzYnKiOKlN+jBmIbwBtLAi0l+Hwjwb4rcoPH2ZKDBRYKLAcU2BbQ7tHO2ydTaiHVRzKMu/1jmUlnuHtRyKc/DNoUCHCx0ydIjSoUCHlRyUUj6Xg38OL/lHzxwIVUfq1x8HnRzm8pv3KjVGy8xbyRcX9TjQ6bnDVkNw+Cn/cqgeB6Pg5yCog5X9QU6HVoNbpbloGZ3dO+gom3CyzupTpcqfV062dpAxB0UdtFTGQbRKBbKoWx1wgMsEEwUmCkwU2FUK7JRLLQfukpwwByRFF0ldI0/RMLeZlAxSxDhT4f80erC6sQJxwFMdDn5avfieQ5EOFlpZJO+Q1CiCFZJ7y9kNyQUlfExKjb4NKyYpJoAVldQZUj3I9MrVpz35pfLfJ8q59z8tyeUkDxW3WlZjSaUBN6sWq6zk99If7jepcfrcZ1aD8i5NMFFgosBEgV2lwE5JqOQd6nMXIRxBLPpLriSCNcn/PJP/x2+ixAjjAOVgI38IlIP6kqtrmLvKHkqtZha5t+Rp4q5atacSnLVnz8WBQi4y+aO8m1xr+pSAgvRveB9c4eaCm09nReRLqv/Zadl1KV+5lQL6Q8nBe4KJAhMFJgrsKgV2SuFEAOf/HLLCkW1W1BbFkv+bIOiTlkYCvyRnlL1UwjvZWZPQLsSX7dS+iP0RdWovKxsrGf9DLqGlMoki0y6hvwqCc5Izyk4sq6s+ZC9Jipak1FFP7lOnsyCupMTPXoz+WW1Jdpj3BBok+aB/25SkT+oWf+c8/L+RVThPv08UmCgwUeC4oMBOKRzCmrCXrZTrrPZwmvtJxtf8HYCDe4Qu15X/nVHGf79wwwGuJhv0FBCXU/kyF1lTKRdptaXWt0nvEzhxrh6KwGrB3xb4vw3p/uPmWjU4WVUR/OrIGSKrkPwhmE3/5IFTT/4QLHnCtOdSFyUjA63Ld32VP8yfq/kDNVFtVlEBdVCSfgcUpdWOoIRtszSv6uP0+0SBiQITBfaDAjulcAh8eygir0RrEbaixvzhGuvdHkXS3Vt1+F8Iqxj7Lax9Li17JyK/rAIom8oGvFgRIJj/cqhsvc0tpxzwfyHqsq/CBUZZUXr+n2YTSJTpvzIq4/TsDGc4Q3Nr+VdC/++RPZ+40Kx6RKb5n3p/imZvxj3c7fF4Dg8HPrWt7/pNgUhqqk8UsP+w8Z7+OXSq7ZyYRz/KmvvR8wkmCkwUmCiwKxTYqUwDQqAJe/s1FIo/EiKMCWKrAqsAKyDusKxgCFrP3dtMj7uKkI8QJ7SFTdvnoYD8IZL9HYED/WpBPdrLb/ZhEpq8asAI/ErV3RQfvCmvZAqAA7wpF/8qqpxVF7w8U84fY+XeKshKzTP9dx9XoXvBBfrit6xo3Kc8HL0vVNxz5Tfhv6pf0+8TBSYKTBTYbwrslMLZ786pT2oYqxV/FFT/UdP+G9zqI39ru6zNuOemPZFl1Jl+mygwUWCiwN4ocLxXONxz/ko54D9v/M/OBBMFJgpMFJgocGwpcLxXOMeWnFNrEwUmCkwUmCiwigI7FTSwCsnp94kCEwUmCkwUOPgUmBTOwR/DqQcTBSYKTBQ4EBSYFM6BGKYJyYkCEwUmChx8CkwK5+CP4dSDiQITBSYKHAgKTArnQAzThOREgYkCEwUOPgUmhXPwx3DqwUSBiQITBQ4EBSaFcyCGaUJyosBEgYkCB58Ck8I5+GM49WCiwESBiQIHggKTwjkQwzQhOVFgosBEgYNPgUnhHPwxnHowUWCiwESBA0GBSeEciGGakJwoMFFgosDBp8CkcA7+GE49mCgwUWCiwIGgwKRwDsQwTUhOFJgoMFHg4FNgUjgHfwynHkwUmCgwUeBAUGBSOAdimCYkJwpMFJgocPApMCmcgz+GUw8mCkwUmChwICgwKZwDMUwTkhMFJgpMFDj6FHj5y18+e9/73nfUGpoUzlEj7VTx8ZkCf//3fz97xzvecXzu4s717a//+q9nj3zkI2eve93r9gU3fz2vzgn+jwJPfepTZ7e61a1mD3nIQ2Zf/OIXjwpZdl7hfO5zn5t99atfPSqd31Tpda973dmpTnWq2XOf+9xNRY/58xe96EWz7//+75+d4QxnmH3gAx84rH1Wym/+5m/OWCzHFf0g9Y1vfGN2v/vdb/aDP/iDs2c84xmH4Xk0fzj72c++kj5H0u7//M//zB7wgAfMLnWpS83+8i//8kiqOuxd/H6+851vdoITnGBf6fWRj3xkdsYznnGGp8fCv//7v48tetTLwf/qV7/67Nd//ddn97jHPWZ/8zd/s7bN//7v/5594QtfmP3Xf/3Xopzv6dOrXvWq2bOf/eyt6LG2wePJQ7Li4x//+Owzn/nMUenRTiscWvbyl7/87P73v//sP/7jP44KAdZV+s///M+zr33ta6Mtqg996EPrqtvXZybUD/zAD8y+/e1vz/71X/91UXdweOc73zl7zGMeM7vhDW84e+hDH7qvbW9T2Ze+9KXZox71qIbjsbYmf/RHf3R2nvOc5xD6rMMd7cZYdl//+tdnP/IjPzL78R//8RkeOVL4xCc+MXv6058+++QnPzk70YlO1AwJsJ/0UucVr3jFZkCNAUbMHe94x9mx5Ol1eMH/xje+8coiBCVDIPDGN75xdo1rXOOQuWt1RGEpa+wosMtd7nKH1UnWLJM3Y3hjWBnB/dGPfnRpfcOyw3vtUaz9+9/61rfaby7fh2DctjUw9VUbP/zDPzysrrXx9re/ffaa17xm9t73vvew59v+cOJtXziW5R//+Mc3QhD6mOdnfuZnjmXzs9///d9vQuBc5zrX2nYNMIvpcY973Oxtb3vb2rL79RA9WKyY0uQB6PWKV7xi9upXv3p2pjOdafY93/M9s29+85uzf/mXf9mvZreu5+QnP3nD701vetPW7w5f4Eo55znP2a6A/vUulutc5zqLZ8aPEDrrWc86rKr5qa0k4Afc/8Zv/Mbsp3/6p2c3v/nNG/0i+Icv+/2ud71rU+bGoAeGAHfbuvf78njnXve61+zFL37x7MEPfnAT8t4N6B/rPmPsd+/A1yf8r3KVqwxRPOxenXe+850PoV0K/dM//VOrTz3qI7Tucpe7tNXbqU996ma4AP3Kalp9cMJjwPvqAegdfOFvNe45A+knfuInWjt40u/opQ73VuSraK49hsujH/3o1kbgQQ96UMMLLS584Qu3lSccGVna9PwNb3hDK/6UpzxldsITnnB28YtfvI39Fa5whcX49/V98IMfbLcXvOAFG06Ul/nNMDjzmc88w2Pm3yYwH1/60pfOGChogr/0fx0wFL0HzG0K62QnO9nsV37lV2Y3velNm7eF4gQ/93M/1/oXfkBP72vrZje7WcMTHRh7t73tbVtflUdj9z/2Yz/W5IPx5QnJ+AU/dL3vfe/bFI02eCnucIc7NFz2DPMdhRrc+dnOdrZ5daxdRex5dfoQbIuBWplb3vKW81o+t2cl2Oa/9Vu/NS9raP7a1752UV59f/RHf9TKl2Uz/7u/+7vDeq4+ZZQF7stCbr8FHvGIR8xzwec///M/57/zO78zP+UpT9nwvNOd7nRIvcrW0n1eVkIruwlSN/xqwrS2vK9/7uEE9E2/a/I0fEsAzouh2vXABz5w/qQnPWlejNVwusQlLtH6rO/qGAPqVPeQXvpQTNx+d93udrdb0Eu96A9n7cHjy1/+8vza1752wwONvKNe5TYBXGvStPKu05zmNPMS8IeMd1llrZ+5Qo/gn/vQy3iWpT+vyTO/1rWu1VBA2xvc4AbzcmPNa3LPSxDN//Zv/3YlenAPbYyH9/VV3fpabs55Wc6H8N+qysrdOD/xiU+8oM8f/MEfHEIv/YMrmqN9+O20pz1t6zN6aDv8v6qd8P5lLnOZVhbvZAxLmLe6tIXmz3zmM+clmBtO+AlvoWcJqAWdS3nM/+RP/qThAzc4Zgx8R2PtlCCbf9/3fV+r73u/93sbvnAp5ddofdKTnrR9osGnPvWpVegvfodTKZZ5rf7aXFAnXEqQN/7y25/92Z+1MYjs0Hb6Ez4M/YxZ5ru5qw51qVPd+ojv+vfPfe5zb+Rf/Kav6imh3T7LYN7Yv3IXLvAO/j5rZTovhdDwO//5zz8vxTv/oR/6oVbf85///Ln+4N+8k/K3v/3tG+7GlAzyPPfeNQdKQc1LQc3LyGjPQ19zGw3gVEq79UGferm6sUODArNtXzgW5ctNNC83WussoiLCOc5xjnlZeovma8O2EcCEOP3pT98IivlDUL+Ve6Ixxj/+4z82IaI+xDUYyl3kIheZ/+///u/8rW99axtEgxkGVncG7xd+4RdauyaoyXHNa15zXpZOe5/SoQxTFgPXKmN+n/vcZ1FX8K/V0lrymezaV57gInxS79Oe9rQmyDGLvpQF2Z6Z5JQLoROFY+JQglE4ZUG2Z8oTKrWvshaPchPNr3zlKy/aDv6f/exn5/rg/qIXvej8ale7WvuOPrX0bjijOTqVZdyelYV4iADNeJp8m+hBqKf/BFLGzW9l5c0Ja+NRlm/rjwniGdzLddKEGRq87GUvawIuQgNuhKIJCueyIhcKB+6bJtRznvOcOZpqi7DFY7Vf1O4JJ7ynLfyxCWrPZl6WdHv3spe97GEKuqfXv/3bv83f8pa3LGgS2uDdsmzXNlWrvUYP/N/3Fw3QIuOFj4AxVT+eW8YPnukfnIyle4I13/XpYx/72GG4KnfVq161zTnCy/2lL33pZqhtUprwUj4CkfJ0r//mpLlj/Ib4u8ef+h5+CD3cP/axj13wO6XaK+QYkqF1Ps3HdYCH8IL3QxPvboJaES1o5vunP/3p+elOd7r2G4UQ+aBO/IJ/YtB5FqXv09yLEgm+Pf7G1n2tdhZo9fTNPH7lK1/ZnlPmnuMN8pciUv8f//Efz2ultKlr7flO7uFY2lnGcp28613var7Ff/iHf5iJKglYdloqWvbe8573nJ33vOdd+LzLomquCe4RG4WWhC6ukrJmZg9/+MNnxQzND2oJyhVm6VoDMLv1rW89q0nerrgL0qYl5SlOcYpZTZDma/c+H/5NbnKTVh+wMW7p6pP/syzn9jv8N0U1lRBfuEcsYWtg03Rb0tpQ5sIpC3HhJtIGH2w25svSaa4Z+xeBn/qpn2ruFHjZNN0U5cON6eqB66P4ZVZM3caDS6KYuhWxT8NtwZ3IXVKWatuQtWzv9wx+8Rd/cVaCpr3z+te/fuEaOKSh7iauHD9xDxRjz0q4tBJcBb/7u7/b6M61BfAB4IrQ7klOcpJ2D7hG0A4NvFdKupWBc03qxislkGe/9mu/ttFFhbahL1raB8hegHEw9ngFf2zy+5ciba4mYPx7GNLL2METGAMuJK4rvL/Mn9/XZS6hBxeK/poL+u9CC7TzXKTSEPQh/eBS+smf/MlZKY0WkAEnYwm0wc0D4FWWd/vunRvd6EaNn11c4+at9ozHz//8zze3DpptA/AGH/7wh2clFNfSgKyw3xkIPdz3/dM3eBhDfJz+lHJb4K8Pm9zsXGdkhaAZMmYs9Dzg+1nOcpbm2g9w5RozNH/zm988K+Nn8czcsxfo4n60Z7cJev5bVrZ/jh8DXHvw0s69733v0cEzO7eHQ7CZxPywBMTd7na3RScR2TOE5dNFDAqJ0Ddpy7Kd1UqoCfdaHTShjLHKKmwTw3uUiE8EM2BlFTffpQlCqJXV3hiQ/5fPlaAPqOv9739/87GatAA+2gzwe+qD537nmy4LpNW/yX+rDv5Rk0f7+hAgbOHCd9wLe8pG2YC2h3s26KDt7Oko3+91LF7+zhf0gD/BwBcM1IHGcEB7Pm0CByiPJj2t4On6yle+sphw/d7LsM1l92gZ0Kb6TGKflO8Q1A/n97znPYf5o70/NCC8H3qhme/bQo9j3kWH0AJ/EO6rgALox29VueHvaEAAUJJAPdkPGZbt75fxh+dj+48fGBKMDX0z9uap8TBXCWsC0f5IrX5a03jnt3/7t5tiRBe8kv2CVfis64NnaFZejVaM8jK/sic05H9lVo3/sB18nfe1EeMMvSOLclZFmxTmMlCPvpozjF9zeT+i/hhXlBCDHB5oeYELXKChgBfty+Bz7T3vec9rsmIdUML2COHaBx/lnfAn+YEWZC5a4oPyQLQ9UntM2h0DO7fC0UHWMsuV1VjuiUOIlkFnsdZeTetjuXqatYwYNswRgyVu8+9hD3vYgg6J+jEBXEAZjGACWbVY2ZSrYGalMATvm+DXu971Fpa2Mt5zgVhEvvcWB+YcbsoN63fPqqGo4NQrHHhSAv3KpX8fs1nNsRrXCXYTfAwe6lafuHwXxhStYkVgIqJxT1uMjTbDqKY+0mpbC7ZfHZhEQoUT5lq+6TaZhwLbKrIfjyGNV1l0Qwt4+N4294yAcu+2VwiHdbAKn7xDeFOiQ2Aw4fVyF7bVBgHXR2kNy+d+FX+gJVyWgXHL2BHqtUcyK5dtWxWx4PE2QEOrDUabiLLMCd4FSgq/UA48Cow9Y2lMlxkCy/Dof8PDCY021xmZaD7kB3LBKiC8pE08smrlSXESpC4rr4yfFTVhb2WjL2gVZb8MVwpBsJOAARFePsE2kYdWm4KAIvMYGGSeMSfk0ddcz3xHe94MqzSKKEaJdt3zxATchwbwY1xbqfRg1YmevBXo+Eu/9EsLjwIFc4tb3KLJBmNNbo6BE1VUxwPGFDxWZaxshC5ybWFQAhwDlz+4uXlYzCa0CYAQ3CMXu9jF2qByt7ivTfLFctLvynrPSohlj6le8IIXNCZFrAtd6EItSqh8t03ZvPvd756VX7654TCo953pUKb2fBrhCdbaG2oC3hLbZFfeBEJ8y+i/+Iu/aG4oVpAVCotvmfDoaWvy1KZkq9uSHn4ihkwuSkh/AKuEewrT/ezP/myjE5xMJhY+nD3HMJQnixPzUjjKY8wIhOHYwqGCFtrKUB8YABhOPaybnAFSt37q+5WudKWGsxh+AsVK0Bgmph9tKUVMD48KJmi0VWaVoEPbJz7xiQ29z3/+87PyWTfhkYgmEwt+lKBxERFk3Iw/ulkRm+gUOKHIFcmSIzRYbHjAc/SmwIwv3Ahv/RRSvQzwD+sSTnDkukBrRgEhBE94EDisfyvBrAaH9aG1cUVrY4fOlDteQR9jVXsMjV4EC1cPxY839F0kmb4R/nBeBfgFzvrLiDOWf/qnf9qENPoYQ3TUNvp4jp+NPdxqj6S1aQ5RdOapfpoLBJPxDeAdnofax5xxb6vHczRSP0FF2Pldu3Ayh9FqHZhn+ArfMUbhhIcJcfShNM03uDsjZTzQEb7obE6QIeYH3siKQ3g05aJu/IGXADc0/lMHV3yMOkoI3wqNXwVWHZQOXLk7jRHFqk1jugqMuTmOXvgBP8LHvBGlxvuBvuYa2j75yU9u9XGvmmvoiSbXv/7123klUYbwryCYNnYMa3igOW+K9+BnjI2vd9DKVgDjl9zA73HdaT8Gxqo+rPt9uUmz7o2j+AwTRgtncGlyhCXwCSbEIdBMOsIu+wYsf6sWAgCjIxbhyqLCUDk0xu1m4iIiYrLUKB4TtzbWZs961rOaf5wGp8DgYXAIDJO6NlVbGKuB45vGwN5nZRp8YYeUGs3Pl2q/yAUPVsQmgD/lUZvOTXmyaghHqxuTuAd9xoyUsfBtrhuTRtna4GuMox57LJ6bcL6nPBfHMlDvH/7hH7YTx5gYzfnggz+c0N6kQE/jRnBZwivj3qQgyNCdgjAJ0NNq1IStzdQmIEyCVSuy3p+NxiYWZU6Y+GSImNisNcILUBwsUGDSwdMkpwDgQxihjws+DBE4WUlYkaIfowHtVoE6Krqn4cCYUBfaElqe+Y1CxxsE1TpXnfGGJ4FJ2BEG6EJB4Htjjl4u3+1jmvwMGFa+tvR31co3fTA3rEoJQIrJe8YUbvoLCDTj7RlhZFyUx+uEDL62sjIn3GvX3MgKBT3RDY8R6BQ4AcaIC6gbnfGET/3UDrptAvytfvOW9Q4vSoirR5/gxFjQV98ZJAnjdu/3XtjHXaY+zwllXgX4pD59s1eEr+IZSP3r8FWHlQha6edYyAqUsvTebW5zm/Yq/PCoOpcB2qxy3Wavy3vGm4dC//SDrCHX/KavQ9dYvz+5rN1tfzuByIFtXzpa5QkqDAMQw6TFYFY0rCMb+xgoDK8MQeYzF8HTu3UueclLLiYjpULwAszKqvJe6qdwDHJ8kqwFTAYHuPid9eHT+/DVvnqAZ+piIRo4uIRJ3Zt4q1YVrYIB6EcECWGk7liB6EARqA8++uEzbgZVwY9iDW303X36rfw68H7OAaR+5QmU9IugVc5zQkN59wH9Vhb++gLf3Ht301I8wpDyoeitRrSjvTGATsoaL/REs7yf+9CP8FzW31XtpJ/6oX8UhP4ZJ330qX+ebwupz3u9oNuGf7ZtU/me58a8zyqOpW8lzqLGgxVO3FbmOTMypq6pzP9tD1CUjJjjI/12SuGMYTiT2LKTpbTOCh1T17AMS5gVMcHuUCAKR+CFFSOBNsHuUKBXOFatVtSJnDRefaTl7mC9u5j09OSy3O/UScd1z3fKpTaGGKzRTZb5mHqWlZmUzTKqHHe/cZVZmVhp/vmf/3lzjU0K57gbj2Utc83YUDdWDEEuISs6LjnucQ4Uv3PX2L/hhrVK30ugwLL2j/ZvXNaCIeCL92IAHa12rb4FBvDiDMPk17XJ9QlP+JKP3LLLVsPZO9UfgVkMhGMJB26FcyyJM7W1PxSwKgXbGgomHZcY9xIQJWRle3wF1iz3Gdfr0Jd+EPpsvPr9OP2xX0jIGbsXvvCFbV/S/lPOTu16v+z92ZekWAUp5bzdruEtIOTud7972zO0X2x1GVd/cDUe9pONk/4ImhFAckzBHs53C0ipUUv8uVPGtVl8YC9CKQEAACAASURBVLotzYqT8nA/aADn2pxuJ/I3ZTg4aH3bb3ylY5KhwFgfH0B/SpgtMgNId+P+SPnY3K0IvWPCT1LIwNm1KTPGcTlmsqlU+PQC1wouOYw+feaOCkaYVxTlMUf52K6njqkqPbwxGl5YqUibbMQeXmr3frGRzRqB+7KT4LuH8f/HyJKdZSuqcNNp+F3ux7HAjQuFSyQrumPR5tFso88UoR2ZBwSu9Cfnt22fe06UqrBd1vp+g/qtAALa2XSUYRscyKBEx23z3qayAmMk2gxYRfYHObXZ90sQlCCXgOcCPIbnhEIPz4f7ScpuK492eg9n2SZ+qeTmC44P2ARVzr1DaMCyN8+V5980iZ3DILjtCbhAnid0lduHHxqoNzH56nDGgh+Xi0B5vuplftL28hIweCK84G9vwiarcGL3XEXqEqYbgAd8hP+6KBx1wF1/CHD+cJ/u+X+DT+L/E2CR+pegtfSn3ieszuCrMBw9Vyf8KZX4jENPz11CqEX/bQNccCaLfqK3/qkLPdadNVnXhvESoWc80V1/0N1YorH7vUKPrwgtm72p33j3kxYPcdGkPZvEzloQBsPJPgYf7/eRYMJYpb8xHmPAeDkvhH8yJ4y3953fsHcmdB0QOnD1O6Mt51gEdAjd9545SDDZ0+kPvapfSC9+cXBa/aL8/Oa8HVccXuFqc74o0apohy6iR6Udci/kH10dUcBblbds44l6rlk4GysuSyHi9p7wg9Bt/CUTtRB55fCZ8zuOQ/RuXOHchDV8KVD0gD/ZYtzVH6VCGAtVVoeUNMLmnX1yvMMZHymotnUzrxvTfg8aHo5YGgf7TlxseH0I+MdZKlHAeMH4OOqgvEg5RxB6wCMveclLWtboKDRyyZEQEaQb97iO+ZpqTYOS5kkyl0tSTFmTJQ+UEdXvElWWH3heh7fmNfjzsnZa8jpZUctCbNcTnvCEllQQ1FmI9kzSyiTRS/I/z9XnuTpcXD/FfC0ZYjHI4ve8r736j555nWGZS+K4DRSztSSkxRjzin2fVxhuS3xXE2le50xaEsiajO2+DpbNSzAtEhpyQ9TAz4uZ55L66Qsc0MB9hX/PSyA0dOosxdySWn8kUZQZuATHvATsaHQlxKzJ0JKUqgONSmg0etZZhpZ40af+eJ76SxC0svCpSbtY4sOlGH5U+322X+8ZU33X1l6hTmG3DMI12VuGXHxlPNBQksO9ApriS2Na52lan1M/XoIz3D1P+xIe4jHjLfNwnbFoCVnLSGplt3E54ZE6o9YSRXp3W5ecMc38gJ86fBoDGb/du/A//EqItkSx+lNh6u2ZbOTJvq6uUqotGSa8PDffSqgtEsjqH7eYjNqp3ydaSU6aeeo3bWrbd8lBJR7Nvd/wqaSym6COKMwrLL/VU2HHLRGw5JRlNM49y/wqZdLmi3LGCc/iQfdcaq7g7HsdDG334W845nk+Jdmsc20tsWYprzY3tFEKexPaWz9HLwmEjYH28fhf/dVftTEyT4MTngVojXckS7bVIBEq+npeIfKtfMYTjeqw82I+9v007uTZJticvnRTDfv4XPrsTNB0RkZTyiYE/L3f+71GBANWVuEh5cOoCCitODDYJoeJaaC9G4Ujo6t7WWcJaAIWA5Z11fYdTF7PDYB3CSsXIaXOstIOSc2/iRQmZXAMg2JqOFI4fKxSuWNODACfYfZeytdvoU9ZF03hwFFd9kn0pWeG0GsbBs8ERAvMpL/lhpzXgbRDFED645OST3p1ykiWZu9qfxuFo4/DbNWUDmW/VyDgyoJuuESg4i00TrbpvdSNphFQBJDU9ngVz1I4GQf8R4i7j8Az3jJL26Pjgw/NKR/3Y8BfVzCw8JC6U9+Yd5UxpsaWcUc4qYPAIqTwa/DHcwwsfTSm5gDe8zz9zXwydsaQQvXcfMPPBK57/bQHUyvyRf1pp6LbmjGZTNDKht/Nt1rhHML/Y/upnL8tCf1rFdPm+jC7dK2wFoKZ8N2kcKKAwt9wTF/y2SucKFAGZ61CtkF/VFk07rNfU+rmJONBBvvgFIWT8alVZKs/e1bpj+fhB8/T3xicyrksAsYonJ3aw+HDToZZp8KdrLbMtjy01JNOItmXpVexNE35EnjtRDCwdLTktqSVs4k7yvJVWoYA94ClJPeK5aHltTosEx1ac8Yn7heJB5NtmQtL5Io6ld3GH+vgY/zXXCjcA06NO+nMB8sFwS2hv9rQ5z4bLNyFlYo+ictEP/li4w6BE//tENBr2ZJ6WC73wlq14TPuEylBnCbPSX60T3+SO4p7RxmhncWIzQ2yLTgsyT3Rn7PSZgm6batalOfCKsXQ3ClcOS6uGn1Mf/ZSuWSiScrK1aJO42YM+76LOuNaAZ7hMTzApeKZ8c+JfDy2Kc1LcJWlAA7JQiFR5DYRbviGa4zLEc0BnFz4MwA/bih4oSXck709/c2Ba+Pn4t5bBXHhmX8OOOaSzQB/JxszmuSQL97GE2MP/Q7bTjZx+7eyeqtvuM9kXPIHbHKTbQvqxP9cgiWc276KPUw8hh/QmauK3IhLcts21pU3ZsYj84f800dpgMZE2C07pBx+6NuVy1LUHtebK/JxHW6e7ZTC4aPP/gnmluOsrK/GuAhYWrllnAUmLYUQAikv/U2g/we7EKwnJp+tvQh7BJicn5bPs5R4S4fiOea2P6GMSc0/SSGYdOoE/aRcNL7mi3cpVkxNaalXbil90baJSPlJNeF+WD8mJSzjP9VUBCjfsXcwNTpJ2+MvF1yYY5sQyEwIfU7GWfXz91MuAD2ND7Afou0EBthD827GsxXaAvi8I6CXvWZ8sr+27Pmy3/ARvjCmUhjZP7CfciSh1ia39CyMH/11ShwQOJ710O/RGCP00gd96QHfjT3UbF+qVg+N/tKUSOs0rG8ZLfIbWuBlaWjKVdy+M/II+mXnQBgtjBfjm2zNw/oJ9LFBOfiD0jT3jMWmv/AYtmW+ZP91+Gx4j1cZlfZphA/b60IzyjoK2z6EoIRA5tOQXu7NkWSbyHimHPpQzPZw0NXeMXr6RGO8IERc/WgqMChG4xDvsffZczb+kYfqFyYNB2MdCL74TLtp2xyHO5kXuvbP8Thet9+FhjGeKFNjsQl2SuFANgwXgUWAEQ40NcthLxazVYCrT7kSwhikrFIiHDEEpjwaUVWsDJa2zWMbzBjeBiQFIy8c4Wd1wFJdJqyHG8sEjmAB6UXU5315lww+BcwKtdLQ97FCAK0kMNV/KyzMG8BsWV2tYi6WoYmlvWU0X/VefsfErLJeqVq1xeKEnwglm5fbAovailKuL8qzz0HGQof3mIkz5B80saLORrl7tAqoM3m89A8vGyt9tPktii9piTx3jQEb1vLM4SFzA02WrXBX1YUPY1Bo37yjBAnAYVSSOhhA2vNOPz+MdVYlUjr5nxSWLzBe6k75rMoJO/0nlG9VuQfVaZ4LGiDMAGHXj8eQn3gntvl7ByuOcj+3upN7zErEBfShpx+lmvq1bf7mDBHaJ/ejMjwAxh2fmuOCBIyJflEC5R5sxqx7ys9K1O/mu+zU5vKRgKzSaIyGxtUcomSSezB55bTBaDSODDv05cUwXjwr5juvTiLQjK2gAnXHQPeutGFW9ZItW9GOMZJ2NkrNAMZSy4CLVOkPliGcKAygjGSEPShvMiMWjSyhJEBgk93Aew/xCSF1ERJxkWAgWj7/j+G7K/8foa4+1PCQxlfcmNDwMsCEev4fXBupnwKM5eY39z2zcCmYNJbm6jFBo0zUQ+Gw2LgppJL3zDv6OAZ6C1UyUsIHwIPATgSR++F4sCAJc5OWcozllP6NaT/jReimPnURLoRgnlttbnuAkNVpQpn4PvvEiiYsXuBqNRHHuG6i4CUuRe8IRHzV/72E+0R7oa9x5YbgmsCbVl4ResbelVX0OprV/k17jL7aJ7QkthwL5lhvxDDA5KwDURi+Z36hH8Upgst49OPNWOQKJ4wkfwXmUwRuLGZ9wzdozA2uvGf4U8SYKysOdFFnAM8R1AS6esynbSIXzQ30MQbhHfVRBpSL+vFExj7GKM+Ed7wPT3jBmyfBMzjARbSapLdoikaEPeMI3dCQvFC39vAfHtae50ey0g59GJfxAqnXGFqtZv55DuBKjlHAPAn4Hm7uKRE4GiNeJRB6wFP/9Bc94EzpemcM/juncPLfD9nj6K38Ycy3+4SEIhjNHvA+giE268qgx8WBUCwRyohbK/8vwa3AgpHhmPLhpnBF4ZmclqiERH4TFsmKGQreBSJLvmAIl0kWC9v73DFCPOOy8qo29TPWr9/yfrIe+wwIS5W5Wl9Yj1xp+soK4S4YA1xlrD8TCi6x2o0FZZL2rAh6hWuSccf4Le+mPUqc+3AMUHBWmAB9tAkyvizkbfaj+jZN8OyZDFfL+oNHKDX7hWMUDgXM0IEjy9Y+UwyGKBz0t6Jx2fOyGnVx5coobVI7ka9NtEP7Zb70ZbSjZALob7XbK9Fl72z6DQ2stv3lBFcMQDPuFBYuizy8hIaZg6xqblxzAg2s3rlxucyA1Ze6kzzWu7Vp37walBJ6sPzRIeG4lK5VR/Yf8KI57S8bGDMs+Lh1N/XLc0LRygPoCzCfKhhpsW/W8wV8KRfgbyjwj09KmXJHH5/wzx6Yscs7lHP21BgWcQPDIysCmcfJnGUejdbwSMBb6ldvhD93PSBrrHjIr4D20JfRSwGC0MT37JcvXvjOF+PB7W/Fsy39dyq1jQlDW/J1EsA2+TATQUAR+eSHx3QY2sZfBJ7yBrr3ARN+IH8UlklMiGVSJmZefepVp4HIOQLflVe/MsM9Fc/VtY3CGQ5gf5/Jq05toUnahr/+D33r2azt3UPoEnz7/q5re9kz7Q/bixUPHxYxhQhHOGfSaDvjNXx/WTvLfuvbVp+69d8E54KpSKqtNl7hSiGry9kBq5J+nwi9TUCCg6Xa03MZfmN+w1/qPVIlMKatvZTJOSmWL0FuX5NgYukSqkcqBPeC0/TO8ZcCO6Vwjr9knnq2nxSgyKweWJex4MbUz1XmIKPVE3eWzfbeDUBxWgkzNsa6H8e0u8tlKFUrM0aBFR3l6LIHs0202y73ccJtdygwKZzdGYsJk5EU4HLjv+cK4eIYC1xE3HLcHPzQwxWM1Qg3DZcPX/V3A3CdicqyL8f1d+lLX7rtoUzK5v9G394p17S9m+MDT3Ctxd3HhWkv51jCpHCOJbWnto4qBbjgKA2uPi6s4T4IV6A9saS22UZZ9YhbYXHLgWUuzqPayX2unE8/qW1s8Ntn22ZPZCw6XLzc5cYAzew3DMdnWV3Xve51F6ltvHM0cFvWbn6zxyu4h4vV35YfdLD/KkyaC9wfRm5zVGI/+r5zYdH70alNdSB0zsMM92Q2vWsTkTvHZOHr3vb9TfUf9Ofogy7CJG0yRzAfi35ROPb9bGgScP0GqfaNmU3qPufctngZbxaivT6BGII8En21bV27UN4YEeKiHkUeHQ2BbtXonI2/cLap7QC2yMpl4LnDzTmXIiKxsi7syzmVZe1t+i3nqjaVy3MBLUfrSMVYHNaVE9ghBFsQhrEfgvnb87M9T/PZSng4n4bvjrk/UTHCA8YUPD6VEW4rzl+kE+L3SQY39RPRRWCJV3eCWCx6whA3vfvd8Bx9RK6IqvtUJQY0+RIBc7T7bx9COC3BZhXDPTTmbMAyvBJy2x+WU84qwIFkETosX5vsNtu34aFl7e3qb/pprlj5jHG/KM8NZY5RXuhHgQjfF/HpnJMoL+HUhN8QrB5FtQmrVkYIs3BlqzCn5QWMGJvgQzGZj9pjcPjMykld+FC7Q/xFqgpD35TRwdjqB3dsIuUoFdGFcKE4udpcVm9CnRk8VhCVEqYJaQoTTwpDRp9+ZRf81UUx9wof/p57ho8FtCijPpe24SHikTyqPHQtUCf4DGnrHs2tMF2MDKv8vj+i/+zpwYNhJpvIL//yLzccKh/b7HSnO10rLyrT2TFjzQhTdgx/7FxYdE+kPgJtGfGGvynvWhYRJIwZk/Fb8k/bFEU4lniANY5R+ogz2t674tjVa5NZ/D6fN4UTHIe4HOm99rQr3BI+uR+esYg/VnvBz4T0Lp988GO98kOPYQrva0+7Ka8+39WHoXufdtrzibZCoBNSrLzf0UtfvLcOMLBQ7JwnUj7jYXzUaxw9Nw5wUl792tGeaDST29hxoXlPefRIfaEnujg573e8AfSVgMQf7LG0r26/+4Sn+rWjrmWgnLp8KiPyCw6hV07sC7PPWZKe39Spf3Dzvn7nXr3G3jNhrZ6rz+9AfepV3pkov+MPtDBGUq1kT0K9yvj0m/eA+kR9EszG1DGCdfsYgi16oSfwAv3QysX4cHaHUA6tW0MdeE5xACHfVpKAwHOPdgSvg4kUkmhFgh5e8OQuEn2oP5QbgY1ngn/ogXbGl+Dt6d/j4jt8CHHtUoS8G95DK+BZDkoa34Tww7tyizWFKdrPuS/K0BygTI2bsRCO3Ud9Vt655m7EzzIRJAM+/AW0OEuoPvhoWxiz80zJdK099aLPsrB++1Fo5n3nhLjYhLKnP+9///ubUsLXcIv8wD/GUFSn9q08KWHeIkYYGlY+vs3ypTTwToEEghLq+bMmn2WBtMRzyUYrQeCd7nSndkkqV6nKW0ZlCf6Ul7hTUsTS+K1fRdj57W53u5aor5iyfdeGOpUvQrb3JWD0rt/8UVtAYroSEu1dCTKVB5IKFr+1BI0u77nglfpqUi3qGfNFwsLUI0tzMVO790dWEiC617eyOFt1+g6viotvF/xqSTwvBmqJESVy9NylDzX5N6IB57LWW4LLYtjWX7SviTmv8z3zciO1urWhLfSVFNNv2jEmxij0KQuq1VcrjjYG60BbcK5N+3mtIlpSydRXk6qND7x8SnIqwaUkre5lXU6iUOMi0WdZgy1zM7zKUGj1lbBt4y/BJHrCqSbMvM4ctAzGGe8STG18lUdvl+9loLSsxejpubolKR1CymuzQotbIljv4Q20lL23hFn7XeJMv4O0L4mk8YSjP2STyRdtcl/GzoI+3lOmBHHDyaVPdQ6m0Si/GwPPSqAsxk+7MiSnv/BBG9ey+ob9zL0xN1e1UYqhZR0uq7zxaK1AFslF0aAE7KpqWpb09MF3WZ1z33+iGd7ry3tuvshcjnZ9efQwTqVoDumX/q77w7ta4bR6jEspvUPayzO0k9g0yU+Vx4uyWJfiaWMRXMqNNZegFH/gbXwkYSZ6KWP+mW+1Oj8Mf3WVMj2EPpKi4vXU77mM86W0l9IYTkmQLOlvKenFvf6EnsYe74T+kvGWUdNoWMZM669EwaWg2vvlXWiZpDeBJd9OQSayQSKoci/bblmrjaER13OTuf6HYUHwMIDnZf207MUGE0MQgCaEZxEAvssYXD7l1o5Mv4QqhgAGXxnZXiv5Z2sbIyN0r3DKmlhMWMrHYFMQcNgGCLQwTi1dFynnyx3QJhKhCQeDLcMwXAk82Y7Lmmzvmvh9VljKioAjZDyPIh7iVUv9RRr24OATDdIfzNwzqO8mFvqiAaVNIBJWlJvxgXMv0NB7Fegj5aEPJqR7OBAusoSbBCYsJcEgKeusPTcZIrDR3G+y4SbLsPFz+Z0QlE1btl40gR8aEYzGru97vvubCpd75QAF4P1VCsfE9Mx4VUTcvFYXbbKaoOoxSXsFCV9j4xnhpj9o5R6vpb7c40G8iEYZnyHu+sooCD+ggTFTrtzATYDUSfR2r4xs7eory7Xxr9/1oVc8Mbj6Meyze+MBYAyN5XC+UBLrIPhp2/f+noB0hUYyOee51PsUQu0Btb8cUQbt4Z+rrPD2uyu85Lt5bz4tA8pzWXvBb/g89ffZmCk1xgLauhhPGU9zxLwKfxlz76rH+A3xLzd1k314RP9Bn03fezLdk5XLwDveVQ7ujCzGVvoT+uY+9E173un/3qXnL2U3wc651PgM/QGQJafNRUvI6mxb2vEVOqjGHWZJ7oR3ltVFoPacz9hSsiZsWy46b2GZ6vSwZamlIV8sd4E9BmDp67K01baloiWn1Dbqs9xUXoqNYuK2PA44GGcpGXeLVDLas3xOdtpF4Q1f9M1GtCWtUFVuEvdO/JZgaHnR+FgtmS3NbfDxCcuUoF/AMrt3CaKnvlhGcyNwV3AjDMH7NgYD/Lv8sny5XBguEWAuPvMAXIQXO1WONsbE2OXP4vjIbTpq33I97oNh+2isL9qLS1Sd+qtPTmN7xpctHYrxd6Id8InHL+6duDWcqzF+xpYbSVZtrpma9I1G0sJwSSTjuHM64R/l9R9wu3IhgBwm5hrjSlgFeNB7cE8qkGSN8A6XFx4pZdKqcHob73DZyhTR+/mXtcHlYfz7c0TKpT7f9RF/hh/6A7h4wn5AspErY4PcnLDvYbwAvjM24a9lh3iNacY1z42h8bLHhUcCDnAnq/vix5FflrWdV9NXNA6u5t8FLnCBRe3K2F8x/8kFMoILk+tvmftpHVrmx9j9QWOJjiLe8HgJ5gWO4QlzHU+ZS8mygYb1V9ALNMg3421+9WAf2WUM7L9wc7lE+G0CPKzdwDoapwyXogv0/LWpLc9Xz5gxbx+FMpkcJiR/q4k/JLBm+Sr58DE0INgoIgIF85Rl0JRED8lbZkL1k0AbLpvAfLQ2KE0yzGCAMWcOAtpkUz+BGnDPZ6pOyoj/1iCqcz8BbTAI2rgoHUoCnvq7Kt25Z651gOFNPpuCfMj6ROBS+GjhMkG1idboDCgfChbAL+OX+ta12T8jJPRD5Ix39S91KRd+IGQD8S8Tni59zG8pg4fwCR+zCckIMaYE9hCMX8ab4NZ/ONWfbC183Mos2yMc1oVnhdJSUGhkbOxBJOrJc8JPe3zj+t/vxw3rG96HHsPf+/xw9lR6Pu/LGr8+GqkfL7RBT+B3/O/TfNrUf8+HKYP6dsfQbtinbe6NN9oAuNjoZmjaE0kOQM+Uufe9793GF53w9zbz1fgNlf0qPNHS3h+5InigXE8LmSagIQaSPSD0oZwAXtYG/LMnxRhJ/9Je9sjssVFKd7/73Rfjtwqn/I4HjG1gOH/yuzL4wpw0h8g52baz50gmoP0m2PmwaAJ+k7DUSZthokKcPGfBE47+inYMiDKzemChE2gYEHOyAG3a1T9otkgkl5Pq/Qon9RPQ8mh5n+Ji1Yy1gIY4qoP1uwxi4URAGWgrQcnz9gOEpdb+UYsk0oa0QDZeWV1WAoRobwDIe8WKd/VgkiVvVP/7Kss9FnFvofbv4YFV52ZYc1LbL1O4JmAmkbatiozvKjDe/hNFZJT6KFgGRDZVk+tvHT6pm0CzMrL5CvBoFAABYhOYoWJVXXt/zTpd1v9l9KWsKA049krFKs09PJMOalVf/Z7Dr6nPRrVVZf7vXh0OykqWSWkPx3lYd57DAW5WOSL48nv/d9jDd4f363g69Se/Yu7NuaxWHPJ19kcggblpDPGr6FSHW60qPRP8Y+WxDlJ/ygzbH76LbsYWmM8CGQRqGPM+kq5/D1/qjzGRdw8/BH9/OwHXjLf2Q0urDX3S3ib6DvlleN/zUp+7kizgZeBt4VXCL+hnfuDlsQp45xROhIaJZ/XCGqDBCVrujgDNWv7C9htFQbhxs1h5JN25yYcBuXJYqUIIWZgsiTAYgUSgcmN5zppQNyXE3aINlh2hY4luUCkiF/B+IKGxNL3T6txQ3peYUSQIy2+ZUMz7w2epG4N6RoirD36sYbTBzBRBknsO68gZBm4ldFrmTtM+605/CVz1ufQ3bhZ0FrFEkWd1kEOW8EFTK0hh5pSVMQv09BrilzLGl+tUWYKCa8dKCw3hbHzxhE+WonLoSYmwEk0O91a5AI4mhvE3IaLQKFDuELylLvXEmueOM3b6xZVJqegbIUEhwCU8VMEn7T0rsmWWnf4zVKyUuB2EUsNBxmiCFM4sUlFcVsOMBngaI2OLhxOhZWITYMn7xhjCk/A3/vmbBfgZb1YwOmjHnJDxexkYC2NFKfielTreFZ0Vq1XOOkYUei5bvTDE0IjBxxImMJXTR/3D/y70FGItomoVMCrgA8xLdMN7FKCQdwIYvYU5s7DVpV7jHAHJvUSJ4+fwi/clHUUP9DanKCA4Gkt9XgYUhfq1Z6z1Ne0pDzf3rH7zlVB2r15/06A9KxJ8ypWHH9AEXuZywNjVnnMzdoyzdoI/vieX8C5jVz0ObEYe6pv61cEDIhEoGiwDfdAXOJojaIZ27q2s8AyXs8vqEO6UC/dwBTUtVobGWl1w4EHwLrw2wc651JJ80zKTwgAmFcvEZI2lZFLStjrJWsGcBAXmyZ4Cq5fAsB/CX++iiQmz/LcKjc4lZIWDubld1InYLH2KClQESvvkIjEYBA9ICGeeEdIEhL0MggbuBjUJRM9e/1GzbNJ6n/WdPQQTj/AAJpr3WUCEC6ZManWCwHKdsMBwrPlYeN4lrFlLmBYdVvloLZXhTsjJXvyGN7yhCRj+dsKT0rZitJqgVDA85UNJGDPCV1w+2lvSw5UFTnEbG/1hoa1assPVXo9Jhg4OVMKbEtBX443uxtPeWiY2fAhfgs4kzh4GAWKymyjBzzkOE5OgSpg24WUVwkXbt28CoqMVM0WhfjRKmDBBjd7KLXP5whP+WWlT3M4zaN++ScKQKVqWrzqMFcOHssfraGG8s8LBNwk7JoD01/uUA9BG9i8ICnRjlOivixAinEIjfwKoDFzibtKfhAnrL74JrHOHeSbMNmHj3mGVc/ER7AQSQO9l9EoblFyPj3oJWe+gp3Hym0+/9W6y4IcH8z82xgEoyyAkzCl378Fr+BcVwSOf5gGeRU+4pR+eU1z9PWOBgsoqAT7GJ6vjzEvKDq+hLeFPjqE1viDDyBSufUYH/MNjPhmG+L93q3nf/rLVxiY3Xzwi4WftUm4g+JpzPZAL/X40PiV39gI7l9qGy4p1ArgiDCqhQfPabLNnkUll5E3tiwAAIABJREFU+R+tSiiy8gk2DJc9CINLKMWKJYhyOE0bJqBU6IRO3Fh899rz2f8tgPIGhwBNeYeu+lUDgUIYYUQCiQWtDv57g2zJOxzQDBxmw5xwd1mVsJLggdk8U1/ooX51R/BRlhjKZKKgAeaHUwToKrdUcPCuerSPBnELajvnltDMvU/t+R76wi3P/e55X1698FkFxiZGhXLqA2nfd/ToleqquvyOXvoDP2PVuznTTtxKyqf9VfTKpq/20X0dqD8r6fDjuvJ5hs7wZewwNBhE+AnvBb9t6hvT5lTm2FGAISYog1EVhWO8zXVGFcUzlr+PHdb71NKmMLZj/bxWKy1ET9iomPEhlFU3L0HcLt93AYSzOh8j5FEoprDlHjyvlc28ViotTPVogvr7sOij2dZU99GlgBBjc6EPQz26LU61HwsKlLttXobz4shH5J0weeHwx2fYOZcalwHrkhWwbCMvPsh90rf7Uo0VD3894K6wTO+Bpc7XzGV3tP9fhB/ZBr9VAOueayvRefvS2X2uhFvI/gFXwF6DLMailP2j7BGMfe+4KseVw+Ll2j3atNlLH9GzhGMbu2X7WMvqVN7+GYveXBhGXC17Z1d/M9cS4UVmcYGST5uAl0HapYSSbyq/l+fcdfbVuBLt6Ywdn720tdU7u6ZNHahzKMppf4eSDgI4kQtn134Da8hJbYf7HLAbA+hWeZYaPslKMOY9KzGntI8l3Z2Yd6jMYbeawGPQ3FOZMmTaAdIyCNoJ6gmOjAIOSjqs6NCgMRwL5YpuB3VLSDUvxkG26B2U1Q+X1Qmvy65ADpbWlsS89h13Ba35zq1w5AU6aMDferR8rixBuYtElNhEtCG/CVhb2/6BGEvNPpP9A5/HahwEAwiC0L6N4HX7O5v6ve55Irv4zAUTHK3xWofD8eUZnrSpLcxbkIs91QSxrOujFZugHnuTgk0OOthwF1gjwAn/JkBhl/oFp6zCdgGvnQuL3gWi7BIOopZEhIkSWxXe2uNrmS50VADCNiA4w8lk4Z19SPM2deylbKJfcvBzL3WMeYdrgeunP5cz5r2DVKaPmNwvvPGRTeze/WNzW6ZibptnP/vZi2Sfm9oUwCI6lKtXUItAiBgYOVeybR/gJxBHlGkiQTfh0T8f8oN7UaXOUPUh/MFPW4lCg7vQ/W1AnerIBWdHLULfvn719mdh3MNPFKf+5vyg4BRnpUTA+h2IOIvrOM/N72F9oV8CaFI/PDwjS7jlGQs+tTk8x5YoylF02Jm11ncQKWacl+XU8jxV+HJL0BfwXS4gV+2btKCCbZbkcm+pk8uo9ofaZ77nXt3ar6iolrep3+T3Xb6gXAlcqFVB+01iQktZOdy4woBncISv+rSX8vD3XjFbK6t/tZJp+d/KIl8s0SsMci5XVA1oK6fu2uNq9QmyqGimeYXPtvcrkmmxxIeHwAq/6w/8fOprAA7akyMp+ca4ncaCNuDq/RIgLb8Z0IZkfujNHSgpoJxRcHcvX1dNiIVLoiK+mqsLTQVXyF2nTnVkbNQV+nim7eTLq5DnlhNLMkN5xgC6y6tVUYQtGWLtg7T8Z9y2Y0AyRkkJa5+h0Q5u+LPCiRf4ob8N4Iz3kB4ZX/nU5PCTz4s7ihuqwpxbzjEAZ/1HJ24Q7fX9M0ZJ3CjRY0369o4yynoHf8SFgs/w4pAfxvSba1PgCXpVFGjLAyY5Kj6rSM6Wh05bruRO21RvnxuvVkWL5Ktoyh0lP1gJ8Fan/pVQn3O/uceX3Mpy3sEJbnLSSeQaPPK5CY9Ski23HTqFNlyt+oxfkrxSfZ6bO8m1KCCooiZbm/Lxob/xdd/nNluHQ4Kigq86fZeAU15I/XMvd2QdwG3f4QoHLu+8Z77IK+i+9mdazjX3fdCSICbP8XzayXP8IRloGWFzeRuVM754UN1pR71yS5IJfpP0WELcSsPUukkOkU1j+79zyTtN5stf/vIt8SWCxeceH7yOuSQF5AMmTMbuOagPY5v0ZWm1QY0PmgDwXd3ajzCUlNIgaEOGZIObTLSEQHzSykugqX64UxKyvvJX1/mHxTuYPRM2WVvTxwxqBjtRK4ly8zuIAjIxw8ASVZblsxA8mIAghJ8Jlf74rMOxLbmfeiu/07ys/4a7vmkDHmPABNVXma0lEsXYhFOdm2hZpgl59KjQ6FYvJULZuA/dIyjDsPqsvjpT0vAh8I1NBHZoox+UZ58A0zOTRTJTY1Zh3S2ZqHf1j6AzgcbstRnvZLmuENYmBLWHP+GEvvqsTZmfjbULPQhpQhI9PJdMsc6WLJJJZo/SZJeE1FhIHNpPdO9RJPXXC4uxQyt4eIaG9vTwoHYkTIWHZ7KOoy/ah16pb8y4Jtuy9ihE45l2Kwy/JRXVpt+iMMfUK5M6PERsVor+JrAZK35DN4ZG37+ysBf42+PL+6L26sxPy/Ls3fTfXNsE2jRnMjbqwu/kC37p6eW77PJ1LqqVx7/BN/TfVuHUoeaFLKi/O2hCXjtkDkOX4eQ+8yH46D9au8dfDCuyzz3exlO5z/wl78whdBI5ay4oL4t4nXFs/EE2Vb629jt5hD6UqXtjod5a0TYa+c2+nbqS7FR5880VQ2/dGOycwsF0OkaA1unqRjATL+nYPSNsDJAJWtFYbYN8DGAe7yMegRLB776vn0IxEAYkAirZgSmgWm42HFjZBkV5vxFyEYAGrQ5HLVJ/E1KsGANlZRKFiZEwuz5G4MMxV7ksDskGrJ/ewfCs3DBsGLQi5Nq78GF1ZwL3dRLmdUBvXudPmoKAUwR06DOGnsYIjdDBitTfFBDqBDEh5V59BGCdmZrXYdlmQaIdGgCrImXgX/9f0r73Cse9CYXudZ6njTnael+q+b5f+a68MUVPYw70UV+3VTgEjf7gRdYuoaOdXuEoQygRiPAjDFjkFJay6I0e7tN+NnUJBas2ZYZ9IfAJIbzuGVpF4Lkn7IyvNPeVDaApPLwRATKszwpwDKjDu3gJUIjG2FizcLWlTcJxG0j26z7MW73aCr/2/atDlwuawGnZ+95N/8d6O4K/dxlAeD/zL0I4hi1DIOUZEf18Qv9tFU6frbl/PwZU6LFM4aA1nEO/Ppu4Z/09z4V51PN75B+F41JXVifpL2+CueoZXAKRj+a3+bUqu/Ymfti5oAGngZ2iLldB20y26cVnLBeSk9E2e2VdldPLqXk+UZuYYyAH/PgchTI7lBiwkcxXzTfNp1rCqp3gVr/f+atlDZDVQChv/edEO7QlhYiDeWVdNNycBpfRwEFFGQf4UvlC/elSMWzbZOXDFrZcgqodAANOVw83HR30S7qcvn98x8IvZQWAE+BXhmt84gIHhF8mo0L/voOYggPQQDaGJC10Et+B1rGALvZFpLxAy2L45iNGQ7m31CucV6oVqVlqMjdaSouRTXt0C8SPDHc84ALoYHzK5dB82Dae1c3PDEoINDrjB75mvKI99MyYZ1N36LNfND74Agc8JqOBA3qyKEhiyddeiqDtd6nb6W40d4rfeOgvfB0yzSFbB4rtjUl3sgzwiguUIm1jbjx9qgMuAK1KMC02qv1mfPFfKbqGT/qbPIKCTeyL2OBexkut4hUQXlK3MS6h3w7lunftR1hv9mzCr/0h3OyVrEBv8XPwGRtwkvIqMFYA/fGLOsxp4wrMV/elHFp6HntPy+YU+h7JkQdzl1zYL1i2Jxrakj0BRzj6YxPkXA7W97iYf/pXxlSTZ0KuZS7Bj9vAzikcyOuEyd6fiqcAnEcAGEZWY8ywF8BUQ+ZUf1mSs3IztXh6kJh6gtlABLQvHxfhBfr6vCuFS0AqFELI70N8l22QGtgIYQLU9z7bASPHxHBpH62kPyHUKMIeUr90HhgrQh7jUdLq6ifJthMm/U+bYT64Dc9QoS/wu4m1anKhlb97KIuzldcv7VBsQ/qlXdkjRE3hFzQQPZX2gyOc/s9AzFubP6WKoSzldiMQKFJgvP3uLIVNVTjij2SqWFYzwc84yPiFHso6c+YCjBhplVwE+pDG+hXllMAQv5U7o9UND/0PEC5w1P+0sQy/Zb/1bYd+eCTjFwNh2bvb/pb6+zZX8eM6/tm23WF5/Ce7hTYYX2gs2zf8GIxJ/ZT3huMzrG94n/Ef/j68115vSLuPcTlse0gP9/qgL97x7rC+1NE/ZyjjaWVB3zfpo8w/OQb9ZQKDNe0KMsLPDL9VczTt7ZzCEQEhzFB+IIL9Wc961kKg7xeDE0ybUryEQFYhBiFan2C74x3v2JihNrFbMQIA0Vn5lFQvTCgLFugy6POasfAMlk8HtXzq74tf/OLGPBFmBAqLm5CRjNB/9yxL1Ac/B02Bdyk8ubzUSZCJemNxyytFwFNG21qsBC9lLN2Q1ZFwV4Bmxq7clg3PPn+a1QEL0d//GgO5vgLqU17/WNSEpfE3KcpF1hgczhGosdjQWIZjKYrkmfK/MtpET6tkETzatcJy+T4GCGorGePn4C4FDkf4S6tkpcXwEHINJ0IfjlEgvgdEyTnE6e8e5Ody4DHKF9+I/lEvRSvzL9B3CT5XAXxM8uDDWMGnaCvlk3qMS/6C2qpH8sxNgN8Yd1YY5qI+y+/GsCFw8Dqep5DxzNB4W1V/+IuwMmbGD6/7LjzevbEHjBf0JQ/QlvCP0adt98lnqD4rEKveTfPamCjrHRD88b95i58ZjMZLDjfelKwwKUDzMUAZhbezosD36wB/RpaYiz3t4BKeViY58tSHPomag7srK8Dwv5yLAF14g/C5VVm5w9q456+t49EwT/Gx1F88AFblxiMGTb/C9N2hfCs/PB+DH697hzeiXL4LY30VDU5UmUsfsOrhcfG7/6dnUSK8zllxEGQYwGBa+RBEzpkoZ8ARllJAwHWAiRHXIADZAUxaTOp9jCgBofrkczNxTVr1OiNitQI/g+mZE/2SO8qmizkNWvmRm5DjvogAIBD0heBigRs4QoqwlfCPNas8XEw4jANPLiTWFQteewSaxJn6bNJTJMqXD7r1B80oMQkUJX/EwJKIUozag7c6fcckoQfm1i/Kh5IIPZKdeBVNCUmuImOk7/qDMU1SKyrf9SXjZeJiaswvZ5424U+gECbGmGui9jcWz0w072NoEwcvEIbK+nMt7kFuOvSi+GQL1wa3qE+0MG4ElPEm5FmZxjuCZFX/1Cfsl6VnEhLiBC53L/zxCuWhbfVRimgpsaG+GXcKUptcc/gBrbiI8QsB7pnEixJ4EhToZRz02/hQFhKoEoQEHqVqYsOBAJJoUx1wES5L+NTGbnP94h314Uf4GvPaqF7V3cXvoS/+4U6idPAb9y9XJfzVqX5zhut4TMYAK0S8D290Ms/QxdxAQ3US4oSZJLnOuOAH88t7+Begg/lvfNDQHDWWViCrVkXpHFrhF/QC5omx41rDU+iHF/UHf1F45pV60QD/wVeZKDzzzz0jSWjyOjBftKmOGII+3TOQ0Ji8YRDie8rBM/KBnKBorPbxGsGvP/jc/DNfHaFwGWvzkFEAyAC5EYl7tNNXihVvk0HuKR9j6T6elrgcjZV2GbLOXHEvU5Zwxi9c2sZqk8LfuaABG2miJWze1YRbbBoK3UuYX1kiLVLCZmHRskVZjd3EyiZ7Ka9FpEoRrUVfpH4b+gIKRIOo3+abzcyaEAt84Cg008Y8XGpAWkgjnGtl0aKLyppahCP6vYRWCyutlUnbXFe3NpMNQBRKQjU9891GaGW+XZQX3SPyLJuXNvZs7mq/BFEL3U3ggk1iONjw81ydcKyDpG0j2CZ4HwbquUu4acIeN20C2pxMWKs+CrUUqosuwlhDv1I+rSr49GHF8HeJtlJXH+as3oQdeydhsDbxBSkA/U1Yt3oEEwjV1L4wdmOU+oUVq0+kUE20TV1r9Al+xh9+CTMXdZZneKoEQXsmAEDEVcYvNLXpDTz3nvrwuqsEe3tmrI1h8PVM5I/gEL/Bv7/XN/yk7dRVgmURtdnXpz203Qb0P/X6RGsgBN+GPnxsuI+JTvLesL7gY6yMWdpyhEBb6OmZaLweD/Mo/GtM3AuuwFubQJ09vbxbQnvxWl+fDf6APsLRby44hl/V4Qp91uEAx9ThUz/6e+/iTfWjT56FHn4LvyjreSnwdvV1hb/1F4/k+RC3Yf3D5/29+STYqqfXuvLLnu1ctuiaoA1Y8bQ6Dcxyo0F9ZlnpnuXKou9dU3l/3aelrPrVoX71+G7DW/00N20NYiGsq2/dMxZbNm21sckCW1eXerbt67r6pmdHlwKCGqyIgA131usEEwW+mymwswrnu3lQpr4fPyjg/5y4MMGxUjj2KLj/uJj6aKSDQtHgnw1z+0lj94iORh+32aM6Gu0fSZ0M6+wJHUk9+/nuzgUN7Gfnjqu6TBY+VaukPoDguMLnSNrlm84fYPl0D/i4+X2Pdf9E0NgfsQ+FzvZ27BdlTyAbokfS5/18t843tIAM/vNjAfashNhH4djvOQhgvtgnsEdhJRiFY9/TvtxewP4LnkV/e2SJ0lxVV/ZGtY23tWufVqDQmD2qVfUe7d/tLRnzzAf7fuaHPRlhzDwrOwPL/GzH5W/8zk5f29twlSA5LtHZU9tOajtQVQze/idnm4zNe2pwi5ccDrNXNBaksXAC2x5ZCfN2kMxl32hshoexbY0pp017Q9kDs49nP8fBTHtvx5pfpL/Bp3h2ePDQngUf+dg9jjH931Qm6YnsMTpEvRfQDylr9Muh3aMNDqzKlGC+2A+zX+NTGhY47BWyx5s93031mKt42wFjh3cdrnY6X1qZXYZ+j1efQTJzmO+7BDsZNFDaeHFie6/EqgihtsmMgcakMtlrO3kv7Tl1LisBJWPwbaTbtN8FyElj9BWU4XS8TWbf/eaSch3YGHT6WOCEv4ogNAn0Y0XPTfTqT+qnrP4JjjiW6dgFKYR2BOVxDcElJ9X3io9MDeoamyttr+14T1AAhaO9CMjw214UjkADm+Q5Ma/eBG0sw9MGu/RPyjEcZFOgBBkv+j80GFO/Tfr9BnVua6AwEPKXDz290HKZAaa/CUIY4p8gBH0Egg6UTXCBwIEhhB5jgjZ21qVmGejU/l6BS2FjiN5eK1/yXtoTFMCV5nKWyIlc7p4x6duXVLuvP8nMnD0FYY+VkLEFMcBViCeXRvzl3FbCzo2BJXrOAQjDtEewi5D+Vc67Fjp8JHsY3BP66YwMPvIdbXImynP3wyAOYbXaHbpvvI/G3o9f3f6APQthserzu8N6QHnupYSlHkt6w8cF9C/fN50xUV5/SkBtDDlPf4R7C7tOiHFowxVWgreF6G4D6Cb8Gv+ad0Moo2CRSd34CR3mfkqGDSG+Qsr1Qxi20H+HceEIV2Cs4sIVlq4evwkXz9yIGzXjOcRjeO89OKiD21joMtzG0Fz7/T6X8VKXkHhyNPfB//+xdx9QszRF3cAX5CgSlKRIEpAkIEkEyVkyklFRRBAESSIZJEoGBSUnyYIKGAEVlCQgURQFJRhQVECCShA+wn7168N/T9+5M7v7hHuf577v1Dlzdmemu7q6urq7uqq6R1lMmDYvGwcAsxzZfdWrXtXaznNbQYRTO0GE6dyeG/JoHyIc0uNT+IFvQsnXwaGdcNYRvc07Ntfj5V/AcALOvyFWnf0XbHs0x1h9CLRGFYNPAIAJYS91yiY18fsmEXTaF0D4AOE0+agPX4Df4ddCCW/fkdVZPeHSUeyo93/M5s2m7r1O6j16Ei04xgPvlJXy4F03caPdnhadx9UfmzOGf+oZvrPb67Tw6UQmXJ3awOO5975PdOUrX3mFxh4Ve4yyD4g/CR1kQ36DqkneBjw8N/nb1JoJx+Ru3xR7vPQmHHUIv6bo3eY5Hub4JHzMNSZP6p+Bkxw41kd7Oa4osj1Wpvayz8OEQ27RHdkdpld/u9dFnuILOcTr+BvSf8mUtGPyNMTpnv9HG/CZpQ5JR04pIxQpoD/ZDGtyUz5Q3ygqNhPbMK09+XOyKTX4/Kqf0wfw1p6l4NHH7AXbNjJR/jq3rW1SRrfyTHjw7BT0W/KJXnua6oy/RqNo3B5sYjVe4W2F3beJ2D5BQGb5R7URnqiLCF547QVDI7za2n4x4MiqTRPOoTWpDU0ClrVMO5aMLkvfdb4I75iDHNldA0XLw96+CRxIuQ3+4ClNYHWqcPF86T4Aj2flsNxU7Op9CUs7cBLNzFfMgvYBudi44ayPo22Nr0+Yw/3g4vNwn9Np0WlfB+CvqYGl7QMKxIRlH4+DNAMxszHBMCGi1/HxQ3+G9PG9MF94n/acakd8YJJk8su+rBogWtFjJjXP7d3h32HX3i30Jh716/cxwck8w0diHwozGt658MulfD4A5gcHhtrzlTTk0XHvTuDVxp4zA7rstZFP+ic+8YntQEm4nPa7LWRfVd9/arNpO6hV2Q5UdUr1Oh9chd+3AyLRxo9iXxH+25s2BdowPhP5pJ8yZWt7MqCefE7Zt6TtAvwm/Cdkftt9H2RD2U7n1o9q8lvxXZvxQaYd8svX2u9rw3P7XOytU3d9sAbmJk/u5bMHTr/RFzKu5KTuHr/024I+BZ+T7NEED1q2hZhA0cPEZV8hHNqkNxn6vALfXnx9Diclc/GJ9vQr374wfbrC+1tdI78xeYbfNQFttc/rhFjhMOMwkTBP2dnq+Bi7e2mQUxEYZnnLPUCDtDPbLF+npLZnQ6BJORKlmN/MTDQVS/op/DR79NDQaBHSgl6r9r8EdXU20bDMsXtlo9FvDlvMSskOZSaO7BEay7/uWc7eEnkz9uGoaCrRcGnwAby2vLdviVYUcJihaBgaGfOBndZjWrP0TF5OEbAUZ9oATjZI5NsK6Tf/0Mi0i/JoV9X5jjJhDfPgGy0tbT98v809s1e/Y5xZzeVEhKxkaX+0UauQAPnCH0cFqaPd8zW4HlGkOpBdmqt62VXubCr81d74SF61OVzqYgXAnIGGnQI+oEWIrGNumD3sN0NHzgoc4tTfXMxZ9hIxM5USsoocG6bXllYOTvCg5VpdWKEpNyabPo/0McdY0TmxwMox8ietFdKmk0OGdJAReRz1BFe/urLSdBKGOntHrsideyazmL6sbqx8tI2xBjCp4kXu4Vcvpx+QX2Yw/AJTK7ohrcP71JfM5ESF7Dkcpt10j964E8iQuqV+jnZyYoFVm5UeWdMW5EwdrXbIodWqdNoT35761KeuDp+NJSf8MC5suxI79BOODsPGqiMaaB0lYwnsGIx1MeZMCBjjuAuhqc7CSscby2cgsfy1hDYwKmPqaBeNpAFMOCYkZz7JS0B63LvZ5JkO4DibgDoHCNJu7PomEXUiJPIb4ExAbLSAwEQo+Rb6AyC9x3v1ic8n9FhW6yTsxUxC6766aLLEL0e3GAAJtjKH/o7gNikaeE2QZIApaugzSdr9/mVDd5wQPphIYp7xzATgaBEDVz/hoI0CEsjhqQZB/OYP0H4G5Njc8dPm4gzMV6sDZB2hI4+B3sCQyX6bOpYmf0QyAy1TjfatyK9mowfaoR/gk0l/Y0JzLI/0jpihJJB5Cs8QpC/LwcpMlaOhHK+T0777PAZm8gK/CdB5dXydoSlpKS36QmnrrQ22MamRKXnGFB4DqMHXZOKoIGY6YwR+7ydQjHcDGa9MYI7IcWzP8Qb9zd4xbU3e/ToGiCwyZeOhY4b2Aod+wrFSYfunkbCRGixpT2Bq9SEPXwFhLfPTaMcaMi37OmibbM8YPhV0oBNHE9VIBtv+BIQh7p3cq6dBVp3HNBwThgkIL3aiTUWg5amQycY7n9G1OjHw2MsyxBefD/qTf11dptqjz8MnZMJhszb4GGin/ALwsSHzmWhHNB4v4DDVyawGnH9mdUGBiS9napLseRZapWUDdzaYQc/ET0anQDuorxUyeRjDOZV3+JxcWx05BDR9yeQzRb86xmeG/wZ7dnuyOPTnKatP7z6rbxN2QLlwGuyVHfzwwZ37nnYTgrpbfWwz2SSvQVLf7Mvv8WZl473/2lOb7BegW73UiYxbKW3qF1EGjVfGHkrMsZxwtMeY/Bl3nNXIKkNGKdHGIfJoBRalay+82t35/nspcYd5Hc5n9WFQwgwNoTF13jENDfqYhPzX2Lln/hlb3dCMaHWWlXmvQzKt9JDvgdNwXfDRVDXKGOTTBDsxgRFQp0BbVjM9mDjLV9Au/w0+VhEOrdwJRMOzbE5njJatrgb+3lQGt5VOAA9jNujLTXt4NhYkgTf9gGkVwDksn0Mue9OeFUGf3vfZCb8DBWn7JvadghUH00DMidvm18k4yQMGAu3CvGDFMbWRc2wFFpMTE6WOa3VsYBwDChVeMzWZpEx6zLxT6cdw9M/ShmTHpGNlkdOskw5v8AivKvy1TfKAvJNxbeUbQzEXw2mFx+xI+TKR9Lhoya4oTExOBmEH4vYgTSYzz3v50d+H8nhE5pGbmIBZMpSFf4Gs0K0g1MXKRpsaWJnEwyd9lrymv5iM/Edb6iOtdJmo9KP0JYEj+CLCDO5tjsbqTWDa2ooUZLwZqeoRj7Rf5BtN2tGYFvA/9947BFebAIED+KYNrX7R7Ts3TMGi2Kzu1ZeSmmALuPTN8KzHv4nWQx80EKcsJy2nIqdsVapd+WpknLzeiRfnME0aDjLfYxdAUB155YOLk87GxjIrreLYOcrkqUHhiI2NSS8oIBut4iROWZx+cWoriJPSs97Jvq0TcD/T+fpknIT5wqe9KhzVaK8JqO01EHMP7EGIEzRx93HS10DcnMHZWFadpQVN2H8El81zgQQp2GOhjYCDE+0ZqIF5WaaVVVp/sk+IA7T/Amv42ztRQ4/NedkngVZpBUXUANFwc3RzYA+DUI4oeM2NIJJ+X4Y27YMcHAbK4WqzoC+WOjAVDcospaQFBvRBD5y48vskL2es9rBvK+CAWO2Czy7120mQSHiV+vb4BEAor0x7S5uTA/3GQX0EXbnU11dn+yAQ8lEnLLd6amNyzo/nAAAgAElEQVT7ucr3saJZgIJ+ENnJJ5ql94yjOkEwggKUVZPZEWXkC60c1TsBvM3GcX3VRSbRY49ZylOm/wIqyFv4LVBBkIaAFm2lfHtxshHWPXwu/13aJ0ETeUaW4d4WyHBwBj/atwFto420BbrVc3hPjvHde7xIWb5SC1LfYXtrL8FWcNeqqP2qq8t/11A+1tF86E1qHFL8MJaAViE0CctyGqhjxQE7stWIWZ5PoASuaSOWprQZ6Zhjeqer5bRZXR6atTy0NfZoDkwaWa9hJUxTWpoT30WWpeihlXL2s3kHaDdw7sUkskK2hz/i7/kCaMlWieqOLs+sblxo9Mv+bZUn9JEWxGnMpzUEWj7TnnbwDRfmAzj9D8Cj7WhCLvxCCy3b8eZ43kOCCjzDe1o+WgPyDKH3KUVD5itxASs3K+TdAg2vB87zHnz5VWgzjdy3aZjirGLIi5BR/oqsGBKKTNvGP7/qh+8Bx8ozOSZUPel2S3+Pz2pfOzOT9WbM8Eu76CNMiAF1GYJ2JevkQ3+kFdOU0x/Up8fPye6iCWsv7Wz1mJURmvCLLAWywtCf4e3fDenp79VxnQlLyHT6I/6Td/0gPjT3aEfPmAlxXdn8VzuxZvS45LPi3w1ogz7AB47hymp4349T0qvrWH21Vx9o1e+NXMfnyXqsm40O4l1WNNHQhPjR0IVqumjKtLP6kFEL/wuYoc3OAcemS09TGjuChYYvtJE26b808MrjCPmyTR9R/YRp0p6G4Mhw+Wq5esQr2o7QT9rsYQCaaQ/up/hDg6EF0dCF8GZFVBNB04a2BWG6vp9Oi6YV+3RDTVSrFU+PR5m0zm34NQyLdlS8lVSZWY842cGnCISZ1sR5VPtsW4cTKV119LbyqAF+NDR9rC7kvQakZkHYBvQVq4LaALhVGTR9aafCpPsyhdtKJzyYrFk9j/Xfbeic0xw+Dhxak5pBwvcntgFLynvd615bfxMHTstmk4FY/W3i/O2lYQYa218ypDFLXGa8mKCGaQ77PZ6Uv6Ltx6koovZ9DpOBwczEYZkdk8lUXcrXthT3b7LCP3l9L2dqADEwlRN37dEeMcmYCO0JMKnjt70/2pMJqW9PE1Gtvo5SIKZoPtGfZx8OM57BehugKGnfbb7nAh9FT9/cNj3ljTkmJtt1NMFL5kw25GVbs9I6nP07MsYMtI38botzJ+kiv+SWmas3we8Ez17TZl/jTvHo03uBQ/d5AqYXoZJZ9grJHHPETi7ZDsEL5gXOQyCwgWN8V8vPys+cwLw0FuoJPycop6M0U1F1e2EJ0yQHKfrzvSD4mAA860O/pRV4EXpE3XA+MtMwOQqD3k2oeE8/p6dQTeazhFn7lDazlU9oe++rlhzCzFG7BaYuexam9qpswsu8aIc2MyaTB5Mu082xAg7q8mm2qK6hGXAvZTLtMSOTPybQYyFjoU/fz342JjRbFHbL/7E6M58LFhDmy5zHRJ+9bmPpj8Uz8slMLViCadP4IJQ6Jr2dlslt0AdHCAgSUCVIRHBATQ5tW4gQdW2nfwoOyOer/YrUK6tFcz2s47dgCPLsK7e77lt7ma1OqnnrU8RtN7kvGx4k0NytLqYO//Se6bEG2uboP0hgwmRmQU/ZeZsZlJMyJstjSZuynGJAq7f6skt8ahW1iY4auFvbO/hRgMNugRmybOKrwAwmvd4EvFu8U/ms2AUvlO+hfYVzvyBBEIIXEvixX7iHePKF2Bp0G/+3sTz0OPSHUjyGaFf3CWKxatqtfEwi3+GLOu9tFWixjalxCr2VqWAQPHMJ2CB7zN5ZJfZfyC1/ZrPUsCBV9GHjAxN3KWktyGUdCJwQ3AH/buHQh0XvdMbfa3qaLe3Z2UKPfOQj94puT/mt8oSACxW2QgDoi0PZextg7TtAc+9g31PBu8xs1YMeGhN60Tfcp7FL1I0PVg2bgMN3bE/Rpnx5b6UgFFgI9Nj+kG3xoIPWmJVt9nltm3+n6QQrWBVYEStrv8B+ICtJodS05mMJu7UChCZWBZuwp+q/W4f+sahzgpD6/rybcrS5tg9YKSU4hdXDKr0/j9GKxorV94GseuTPvkO8i2VpjBaWmuDPe/1bUE4CRsby9c/mCeeb3DCo29+igcSfP/CBDzxwU56ObtNjhR2uIuwcvyPCR8SP9wZHUVL2Smj8gwKRSY5NASYbFwFF53DD5rq4fSYHJrzE+MOXfQDDfRypq7J1BB1sbC/QTnhi1zuTRMrdSd6xtNmfoVPaU7YJtt17ETzMmPaz2KdVWufaCX4b3Phv0EmUGPOkwQngLbMUk5C9HtK6Z+Ictpdn0hnctgHl9Rudmbz0xSFIA69jhZh41F1e/Zcpm4nZoag9PcGRCS3yOcS9zb2y+/qS1XWDNJxoGfLD5CcqbK8KGZnvIwIjb8x1TNrMaEzaon2BSERgool5VJSifTXaijtjCpjujJHZdyiPyUyfYbYb4/lRuHa7NDqW+ZgeSrCaacAemeHyl5Mz32dg9vDe8tseApf/w3v0clyKgnNxiHNmcmT2h/d5XnbKVn4fqaYMtBQD2/KTeQGdFZLdcAWvXzQMo9zCr6TPh6ZKw1nl9T/3oQ8+y2Z1ZjJQvsMD0Yx2Bz565gBE/zdF9cjD2Qsn3OoEr2fqLeLOOxeH/5A/DiTsnfB4wFyEhv5iloJXGSWIrfocpnFqS+u/NmG6xNM8S304/Gs1t9oj5Tnzwdj3QhK1Nnzft4+6wTeUp16WRWz19cADjux15jDv4MbLobxmHxCceDEE9NVGu1amPVsuh0+Sn7R3Tw/+MxkCvMNDe6BysKS0TJtDSJRln5/jOlF92fdUPrZmmoQHL4C2dE++7IUKPepjH5J7aQA+5DBOzzfJo7Ycyk/5oSZNY5Efh38Kykl9YlJU5rr83juYVFTpkF7774I/9WmJvgnMVKm7NtN27h2UOSUfDsRNHr/29gS0n2dj7dWXu+5/Lz9w4YexJf2p/4BcTIp9/YNbhCh+kokx8J5ZNfSmv8FfR3w1U9s2ptxDF6Wm4YQnsxeKOmKT7sNo2etFd/AVuGwiLC2n2SNt5orPwGBlc1nu42Mo52cbtNgxRbYZZA0KEQqhwOzHyvce6ETK0BHZPnVSzLe5sE4EaLh6ofIejWOTjokMbul1TJOT9O51YJf/6iaU2P8IiE1a7g0wTm+VNhNOykcjWtE8BoRcfdUDv6QXQqvOTj9GE/7ELmwiEi6LRgOhyc7/bLo1+JUzvIUkl8a5os9mPyHk6EqH4tPp+eS/DXIiywi7+7SP/wY39mLtn42lUzbkdICEcafuBlLtoz5lemibHoXcTkGdubeiUV3RgVfC8Mcg8opvZNXV87+0wVVHHZtw+o3KBm+h+uEvGQq/0E+e3Qsz1754h18GW+2g8/f87unVH3ICdNrD4MLObyDFE7LgFOlMGHgB+gkn8qkc/8uB3MqsI6Ga4lDmrCPaeJM82hStL+Fx2njdAKwssmJjNl67J5e1yljxZ1P+fsClTOR0ZpvL+cG0ezYO9zwU2aUs7UOmKIXKt6nauDQG+qd6pW79loJMAOvoHcPZP6uVzLICIVY8R3/GE7SRGW0P1k043pOHqQnH+4w/6E1/U1ai/sYUwZ5W/w+dSY0t0NEOjjRh52QuEYHkYu/kVxHhYUlqOWmzFbu7dyJpYhMd2kjZ4/kW2C2ZCCwfHQbJ1OFZdehmSrG50HJU+d4DZi3lyyeihF3bUpifZwiOhUBbolCG79EskqQaqm0w7ZfEMWXIY5mcSJCYALIxC0/Q3EeuMa8puwbAxg95xgB/LYmZLNRDej4h/MomPydlK7vf8MlOzNarbswa+Iaf7OaOecEXVw+xmaNFWjwZgud4kKNimN9iwkEnPqh3Nkfyi/QmhCG+IT/ZrMmEs+fIwCbzR94zQ8gDHDM05T8iK+TAeyZEtOKxC/B78H9MgTbEe4BfMS3Jn/Ymm8wZMU1GHpi40o6b/FbKiK0fbu1Hhoc+gJ7OTbwKzX7xFr6YW4JnnTxK61BdPFA/dWH6Wde+MXfaaIz3AD/S/3v6t/mvzMibU6vxkRyPHV2kfSJ/xg/1BXjoGgP49DPvbULvN1fu1fyrPDTE14g3aMdLMgO0eeRrjL6dPOt9YBmfjAXcD9pxqo/0ZRy6CSdnpyHS6bQaNj4KH0RiC3WSsk4uDDbQ2yTHmMh+a5C3c7l3KjoTTbiqY8ntoLZ7fhjyJ/TQGVN22SrboXZ+2UOdcJDBULkEzL2GKK34KFLYTeFPHifXpuMQQDZSO9bt3s6p0MpGQ8550ynZXZUduzx8GZDW+UjQhDb84gsC6q4slzJ0Qg7E2qO0mhDxzK71dBKd3JlVwljtREZLrT4aPu0lfDL0qrMTBpzFBjfh1H4uE4JwzHz0Cg3hTfiivrFBB+dRjB15wB7Nz5AvEZaCdcQEP5JlxU9nmDm1dxOY5E1IJuOKsmqDi0Gpl4l1OPAmg5XJOzZ2fBZCjh85SWN4th+8/WnblI51EAXCCQG2G2gPJ0Kj1QBishYyazLaKZhYtXvko77n08K0axXUlMKxduMP0cYGd8qOyak/62+MBu2pP9QRPavPF5A1126g57/8+rVTESJvQ5xO8s5HAPkw8N85dFNfl63VVPNFGXuGJ3bkfLNhGTu5T3+Wh8Jj/NIPQ8/wBIJNuI0N20yEZEb7kh/nHAqVdr8JDt2EY1AgeJyCNEMC5v4lL3lJcxbqJCrrygDXV1KcOcehdD2YfQklJ1/Z2VfftujTbHKqygt0/HT+PPN8uOLJgXpHEFI3mbTsBxANZdKj5fncgW9s1PluO96zIX9i6Gl7w/qHhgxKosloJk6fNhj0g5nJzcSPPm1gxQknDW14RIZBpkKy135/RqeOgxKNcMDpMElHbGyjSQ95OHWfDmPlVOHtbV+KOtP81Eud+uNayEQ0VXnVGy/RWKbdVowBxSAEhvIlD4jCo546e+rbXhY4sHRsDxL+5pMOog3xGJBvg5k8HMFxBn8T3epHndSNzJtI1oFBz9FDVrAOELWapyyQFROQunD+mjSBvqe+4Y9n5CWDMSdxHMX4KG1fx/TP4WGS8JigrLTQZFJVb7zoV3zDuuhPDpD02RCnumeiNiG7AuozJf89TvWzumcRCJjM1Cn59U3f+jFxAvU3Kfp1BJE9YP1xTtLrw/LDT6Ek59e85jWPWv31tPiP/yalnp5hmv4enf0eHLzHB3wq31FL2o+RY/IXfNo47devZPryIuvK0E+sDLUF+Suz5Mb6wXXoJhwdlRBaJorIokU738xkEMGnLbuGGoJOiRFONo0GhzkxI9GmdLBnPetZo6ctDwfTMFsHM1AlOiUmDdp6PxBsFaXxTaTRKAmuZa/L/7Khtii5qQGmFwD/cyYSIVknUMN87ss23wZHE2VfnpOocxq1TsPUYJAuW/Fqoxyeyqtj0YpzBl1fTs+PDMg6tM8iWD0RWKsCCoD23AZ8jybmqrH0ZKcPrzVRqqeVCFr7FbT8dUJBGxCUH4XDBExu0JdIqGjoBjwrXJs6+0GNTDCRUhrGzJl4iJfrwMQb7VIdDcB4GA0+/DTJuCLvNnqiKSvCdWUY2JlbXJncDKYZUA06MY2gRdsyXwHl9xq+FWQf1SRKLKd/3/e+923vDLTabGoFoE+XD2B1EnH5plqY/xjkezz44VTl4Ex/TBsxgbumICtmCmz5I5rs0tKByR/umEEpvmSkVx6j8Or/5atcFYM/+olVhfLxL+f/GXM2KbQmZvIzNEtO1cMKy/gYYA2KgphnfR9Mv4j89HjRakIxhoxNOORR9J8xitybbE2uVuVWNtqin3inaD467nAq5XF6bmAy+ArzNBDSvNP52dRVSmPqYMOBh32U5kMAdUIdUN74CSxtaQ8EN7M1RhtIgQGDKYm2GDAIWPJbRqNJuSZFuNHT21Dh6u/XsSw2UFqpkF52VkJNu4wNe2xpS1NO/WjeSRMfVcp07/BLZpJ1gIdWG3hncI7gMauY+LSHTscswvwVAYafT4bQ829pq17L9D4rBGUQYvXU6fDZBZSNZxkgmO76Qz3RU6d9r7RZNBjYpr53krrGh6edDJjulWNA6G3a/HSUid5vEP56xlTWa4kGY6tDoD5k1YCqDOaFDOLreN6/w19fCFVvgzReR7Ey8Jio0IemtLUVinuDu8EyK0QDihVCfDVjNChPW+OBARMYQD2jwOkr6m2lE8gAS5ZcBmmg3ZUZE7R3+kkdH9MURjTyNWozOHpQvsF4+MkJK8n4VI7IUDfKIm/4oI6UlSidaMAP5mhyPCxviCv3+EFBRQ/FxISrXZNfOTl8dYgDz4aDMz8K2TbOMHvjozLw1Gc21oH6oWFTuuBQPtN7IPtq1GcM0MrUSc60MwU740N8cMaMKcBfk4164Y/VjT5P8SET2yjJh+5oGyY1phCNbHAjUMxOmEkzcVrvTW9609YRA+yklnWEbWgnNWP7sqCBhg/I4EcT0klpOLRtgwqNVQcgGMwwBljAZASHfAZhnQljCSIhr3DBI2yeJroscw1UaJ2CaK86voGCdsI2nZWKCchKDfDP6Iw0KmY8wuNYDhMnzRk9hIe2rn5oY6oY2qLhc8JxD7QWnYJvpXZAN/wmPmUa7EzA6k+D6v0EyieA9gAZML1DO/4o39EheEZpgIspgnaVSUs6Hd0AEe3cZG51pQPA77328N4qhTlSpx5OpDoQZcBxKFZMcOKnDgEn/uITftDS3YOYlnR0fGFiiSaNj/3kJL33OpfyyZw6KUd5QPp+pam9yBh5tYqwYuqBvFt14S9atYMJB344M/mQEe3AvAzc4xNtv185MVnKm/odUVjdKA9O75nsAuGXAbfPb8UY5Uxa/EUnHFar3gf8V776hG64+jQ9Pege+l60z7qVOrzowaehbMMNX3x1fVn5j75+vNC/U194kzf8o0z4eqkxwsnf6bMmVv18uHLj56WIMqXxp8BP/pQxNLOSBZ8bJ09k6XgAn6tViVUks6aJwxir75ABY85Ue+0LfcXgEw7sT/ANhoSNjsWVn3CVOk4E+4ZPDVbLEvAW1jr1vaDjRM6+FZN9JjW5rd0HNSzQKcm+l1SKxPDV6L1v3tREdMT3XkYT1sOaRBqfhdvu5DDaKXzz871zoAbNJv9C7hMuvA6rY3BsYzDeCBkWem4PkDFoDOyz6UOfx9LUCm0Vwo2eWtGNJTtmz9CuTrYt1ATdeFGKUjvQ9FjDoTOpbTOL0ozZSa1QZtgZB2gvVgs0GhATjOW5UOATFaxMfeuHBkojpX2OBZUM68fkYTW2TVp5raIFsPQmuCHO3NMkmRWtbkQEDldlU/nm58eOA1YTVkH8D1bfieycKjEWBu+NO1YB2n7KfATvJmCSiulf/2PCO56A9hyHZdXFOsKMua0Zci+0HjqT2k4qY8JhA+ac5GcZLm93guvkkpZZh92fyYoZh4lKJ9xW2CzDmTOGpqaD4F98F7GjMw3Eka8+28oDPjCVwTNlipqqH1NebPR+e+Br8hE2EBPn0KwyhXfqOdMv/4ABIr6TqbTz83EOxIw3ZpIbzzE/3TcOHOsl1E7xM0PYQW1XuqNQ1oG0rr2Ck5Z9RvhYLCl3+gnWvdZlm/x2x5e9uh0PtInHwedoixrg2ukEdrYfJKS97FB3MsRewakI+eRwTcRbobPrnJzWJNNO/YXjeICjS8rn1k6hmGHmwInGgUMXFs2pLPyOky6nIk/NrsxD2zi4ODk576pxRlGJFOP8T1TVaKJdPBRlVEfQNBPP1Am2u0C7pyx4wHEoYo8DeJ2DdlgQZ3od53FUdOAw3bG+157oSNjwXsuDj9yJqpraO9WXIb2wbnJqpXEsTWXaqnwNq5WbNhOosNeV0l55NuefObAbDhy6CUfkTI5l2E2FhnkMDgYRA0Qf7tynE81ls6Xf/QRhjmz+xxLUj0loWxABKHRX9I28m0AaZrh+Z/emPFPvE3U49b5/nqitsbTMZTEBhj77Efp9McnnObt6Hw1lcunTi0bLHg75pDWZZS/GkAb4Yqs3cYvSu/zlLz+ZPvmZ/JQrEpBvYBihhT89ve75gYSAZ1OnTbZCyZlCgTqLBtSeIp3g7uUh+JieE2U1rM98P3PgeHHg0AUN0BY55ew1EG//9re/vQ0uQ6dW4vyFO8enwKbPxu2XI4wzToimDio23h4Wx5kPAX5p+70HVldCT+3LAQk7Vi6ne2zo7tHJp+G5fRqhl0/ApJPjSuAR1mnPhnxAuDeHvXtOTLR7Fh8Lumje7uHqnZzScmDbVYwPVoWeZd8AvsTnEk1cfWxeROtFL3rRNskq1wrMQIX3Qj7jo3F2nffeJXS5ET4CVnT9Lmn1Uhd51dlgSGO392XK6Z5gBnmEr1IUhqBe8ZckAEJ6kwZ68V159vYYcNnq0WK/Cz7aOY6n0pOXHtwbwDNoG6R74DTW3tkcKX0cyJExvFaO8u0bI0f4K6xb/U148N/1rndd1KGpR/DHBlT04ptVjA2DQtOF2/sUhc3QJiJ15HxWX192VIawdb/2RAlrN1k5cgQ+5SnX3qqpjZVDPs/3Mwf2nQOHzQbYn57LXl0VbifiVlBAC0Xkc+DfqU7e7OfxKbCp8zEIeaxBeVkdsoXHOtXUibXwwFcDwRFVro64rN36zQ5fO4xbGcIFnbJaE8fqFNYy3bWQSMfHs6E7klxedJRZall7IlYnwqK3HPHtfY4nd+IuUEYNACu8Tr51CmtFSbX8tU+g4VIGmtUx6dGfb6ALvRSmiR7p1FFdcxy+e3R5B5dy0SMsOun5HfAIDSlPWQn7VJYynWLsyPO0h7oNIceX479Tp52g6z9+K0fdnD5cK4FlbSAbZm/3ykObo9Vd6jb1zXc0SCtNDc6rL2viCx9PbYpt7+uYkfbry6k+S5Dj9GuV105Fhn8Ypip9rmH5tU/liM9ZCCmtCaCd1ow/2ks7OAUZbcJPa+Jpp0CHXv+dSOw9/jgd3WnQ3uOzMGrt9+53v7s9i0wHh2eRJzi8dyp2BTC09DmeX0hvnx992lpbzTBz4CA4cOhMatVBViBUlYbpnB7aIjOGTX00eVoe7Y4tnzlBxJpVkc2HjntJmKtTBLLz2qbR4QGHfBiOtaD9MbnZ+FaTTrOb29hGM6QZ2xRmlzxtUh7l2oRnxWEDm2gkHwijkdMoaZFw9sdZMO3Zpd6bUpRhFWbHcAlAy0vLv/KVr9w20bHZWxnYgS4dOphHbFi0acymTRsA0W0lx2eUs8JsOqTtemclRLsOX2jAVnSO8UCDNABtVgVMN+pi06VVoWtd1BeNG1/6s8qsPtQZTj40vKiJaO0pAfwTOYKDuQi/151CayXGl5JINUeTWHFk1UHrByLG1DM+KytBofVWOX164cvyWF2BbAJtNwXaBE+YfgGeWFVYiWqrgAgybam9yWrO/kKvI0xs4lU/8m31Q3a1FT5777iQRKHZOGt3uKOVesjZguTbqlR74p929tE+m1lB8pMh77Y9q+uIwuabmQP7wIFDZ1Lr62RQ1Vl0JoOAQdhueMDPU9pnO1iR/Vync2hejk3RuQx0OuA6MABlsJIu904ANnH1A6jJyqBiQDSQ9Duw5Q29BiOnIwxBHQzmdrr3Ydz+M9UwoRjAHvWoRzUzlrRocwRFH/fPFxAznbQGPCYcv6HfYI83TkYAOcsreEyk/B8GJXU0uCnb4Mgk6Kwk9VPfnj/DOuVe2XZO82c4Vbr3f2hDk7r64KvJh2/LgNyDeppUKRSBfFFxXQiwCVfZ8XPgY5zqOfVBcIlnzFj8J5ETkzQzU2CokPSHs07V3XNmtqE8rEufd5SVhHfjPRj6lJJ26iwucu7CT2cFDs2EyQ+/SS7lbUPfnGbmwH5y4FCvcFTUvoh+z0c6Czs5Jynt1iqDVu9IiXwvw9E0U2cg7YSBfC4G8yHYJLnTPRvBwf9ghYF+l7rwGeUok768TYMDPPbRGKR7H0t/3EpP+9jkgR48xEv0GKTjlJ+q/5AftHR0mxgcEZSj/dFvQvXMSnXd91H4HAya0o59j2RYZu5NnnxVOfbFatjFZ5fDJJOWjxB+Z3Ipy3lwY+2b9GP8GqODjPbykPYcS9s/6+XbpIVf6kPhyPEwm3DwR7kAHKCnJ0EWY7Kk3TZFg24qf34/c2BbDhz6CafXADlNAzoKzZlW7jlzmw7FjOQdDTrHvm/LjE3pYp6RzuCeAS75vN9mgDY4OCTPwE4zN9AaeJhrNkWd9TQol+PYibx22Vtd9Pwaq0/yM6swrwgaoPmihQadQzoNQlZL6llfPm0my2jw0kcbTxkGSKsTB22aAOPUNwBqDwOggwNBNPIhfVZuzIpWQImg21SfIQ7py/fRzGfMYRlk0Q6nCYZpiunMqozGn8F6iMv9sJ55lufhpyAIk5ly8IpJiyyEfnT477JqSn5ymwAKvDbRmpidCYif2gdf4ByGbFuBe29l58BGfIeD7AvFz7mClI/IRl9HZTH17YdiNsa7+dnMgaM4cBCOo01lOtfKeVUc6Jy7zrri7CyfQnN8c9jHyV0VWp2FZRNghe+29/5z6AMOXY58aftvinvHCVwH7a2cxOUvWX1jXnqfkeUYrsGkfbqVU95nir3jrPbdd/9zeYZeznEBCJzA3nFQ+ywwh60ACM5ll3rVKqU50tHumfc1gLQgBTyAK58HRgMHsc2XeR9cFdrdHMe5L1NRu3eOl2CA8mcdwT8OZwEY8IefysO3GoSaQ5szO/jym/d9OyZoI2k4stGnXJ/LxjOBA575HDXH/hCUh2Y4aoJqnx72X0DFMH1FnbV3Aids2nX578JPwQPy469naFYXMoS20ElOOPnTJuSjotQazXgtEGXoZMcbOOF3KTv0hV+pv/oKQFG+9g19aPS/x1+rwvbMlY3PZEj9szFVIAvc+FN+n8bCbIQd4hOM0uOzUTX36gDcC2yYOhts2Ebz/cyBvXDg0B5tw8whtPSKfAIAACAASURBVJWWWIND89HYj2AlwIlMU6Wx8j9w2HpPi4yDmYYutJT2SIOFy2/CkDPzMmM5noQWDvowZPf8R72PxDO0wc/c4muVggWAdOhAb8KmBTZEy2bekQYdMePQivmE3EfTlt+KQJgx+vr36o9G9ZIH3XGy5zdmlZiDrD5Awr/xCD/QImw390w56EF7tG78D76G5Jt4xsKae/6jn7Ytr5Bk/EIv06e8vZk0eP2iBR5p1D1h5sPywi+8mILQHf4pG//SfvLJr96epf7S46u65+uOY2WkXXuzW/iV+suHdvVX9jpf1FgZnqEr8uYerfDH7DmVb34+c+CwceDQTjibGKUTchYf9I5rUXM+UQ34QYaRRJvqMb+fOTBzYObAyYUDh96HM9UQVgEHPdmgrY8cEs469LFM0T8/nzkwc2DmwMmNA4c6LPpEaAwOe45nUVJTn6g+Eeox0zhzYObAzIFjzYET1qR2rBmzE/y9jb0Pjd0JjjntzIGZAzMHTuocmCeck3oLz/WbOTBzYObAIeHACevDOST8m8mYOTBzYObAzIEtOTBPOFsyak42c2DmwMyBmQN748A84eyNf3PumQMzB2YOzBzYkgPzhLMlo+ZkMwdmDswcmDmwNw7ME87e+Dfnnjkwc2DmwMyBLTkwTzhbMmpONnNg5sDMgZkDe+PAPOHsjX9z7pkDMwdmDswc2JID84SzJaPmZDMHZg7MHJg5sDcOzBPO3vg35545MHNg5sDMgS05ME84WzJqTjZzYObAzIGZA3vjwDzh7I1/c+6ZAzMHZg7MHNiSA/OEsyWj5mQzB2YOzByYObA3DswTzt74N+eeOTBzYObAzIEtOTBPOFsyak42c2DmwMyBmQN748D8Aba98W/OPXNg5sDMgUkO+DjjBz/4wYVvZv3rv/7r4ja3uc1k2mP5Qtkf+tCHFp/4xCcWF7rQhRYXu9jFFv/8z/+8+K7v+q52HS+YVzjHi9NzOSckB173utftK93/+I//uK/4jjeyL33pS4vf//3fb5f/O4VPf/rTi1/4hV9Y/O3f/u1Os25Mr61e85rXLP7zP/9zlVY5e6F3Y6GDBF/96lcXr3jFKxY/8zM/s1DXd77zne3/Ax/4wPb8oOCv/uqvFr/6q7/aaHnoQx/aJr/73Oc+rS16fh1z+pYnMfi3f/u35bnPfe7V9Ru/8RsHUsM//dM/XZYW0ej46Z/+6eWnPvWpUTpK81k++clPXn7gAx8YfX9QDz/60Y8uv/zlLy9LUPdMgrr94R/+YcN3IgHZ+Z7v+Z7lM57xjD2THXn4oR/6oT3jOkgED3vYw5bf+Z3f2a6PfexjG0l5xCMeseqL/p/jHOdYnvKUp1y++MUv3ph3JwnI6wUveMHlGc5whuVP/MRPrPrbAx7wgBW9P/qjP7oRpb6orXYLD3/4w5ff8R3fsfy+7/u+5X/8x38s73e/+y1rEF/e/e53X9bAvlu0e873xS9+cVmrm0bLJS5xieX73ve+pbFSW/T82nNBGxAsxt5/7WtfW77tbW9rzKoZcHnrW996+Xu/93vLb3zjG2PJ9/WZQemXf/mXl/Wp5sYc1w1veMNVYz372c9ujen6h3/4h6PKfuELX9jy/MAP/MDyj//4j496fzwfGKyvcpWrNHpe8IIXjBat057udKdb/tiP/djyv//7v0fTHM+HJkBwhzvcodFtwtwLwHfb2952eZrTnGb5L//yLxtRkbHPfvazy09+8pPLr3/96xvTH6sEBp0znvGMjQfo3wTarq9fmVJaHQL3uMc92mB4xStecROqQ/3eoKVv4UuZZNbS+qY3vWl56lOfenmjG91oaaKldFC8yLp3Q9irQkJW0XXhC194WSuLhv53f/d327NTnepUbQzbBN/6rd+6/MEf/MHl+9///k1Jj3pPZpR12tOedlmrmfbe+Lmu/x+F5Bg/QEsmHEWFP09/+tOPS38b9eH89V//9eJOd7rTojp80bdY/P3f/72JaXGNa1xjUbN3e3as4Nu+7dsW1cEXTA8ve9nLFtV4i5qBF9/+7d++eOUrX9noOvvZz7743u/93kUJ8OK+973vEaTUzN3uz3e+8y0ud7nLHSsyt8J7qUtdauF6y1veMpn+LGc5y+JpT3va4mxnO9uiBuXJdFMvtJHlMRvxRS5ykUV1mKmka5/L/973vnfxm7/5m4snPelJi+p0jR74vSuNdm3+qZfkpRSIxQ//8A8vasA9Ktm///u/L77whS+09tTGn//85xd3vetd2zJfe5/5zGde5fmv//qvo+zNff3ZokuDPqIMNnS26uAfEsCmrdxh/a597Ws3+SmlZZhlURNi4wmc3/It37L4v//7v0Vp/ovqtIvSahelQDTzya/92q8tXvrSl7Z2KU17AedlL3vZI/DpawCuM53pTO0/fNrU7yUvecmjyp96wFegvvCoDxzB7d77oc0e//G1L38MP1xvfetbFzWxLkoZPCIJfngPP3rVF39qFbM4xSlO0WSpJtwmS9riute9bmsn5bqXD+jzNZm192kP9VEu/PAO+TdGq/HqL//yLxeXvvSlF8YTcPWrX31Ryt8qOfrg1H7wBowvNXE1fqAPf8CQP/Kqt3rEB/L4xz9+USuGxc/+7M8ubnGLW6xwDv/AydQnH1+K+g/xJ098QHm/SZ7xmK8GfvIjHz4M5Tv49ctznetci+c973mN5u/+7u8ektvwaIPwgnyFP/qP/+oR+T0KQfdgdMJBLCQPetCDmp22TEILNkD/j/WEgzZl3+QmN2m2V4yqFVYbgNgbgcoZxIaDy7qKHo93OoyJbifA5qtuJhyA93jt0ike8pCHrMVpYMOnWu21jvPIRz5yYRJjy37jG9/Y8sKjDAMeXg7Be5P7r/zKr7ROds1rXrPRY2Bhh2b31Q5wye8XPmWj07sb3OAGrVMPB6O+ft6xaT/zmc9ckZAJR3uX2WHxuMc9rtEO2Jwf85jHtIFBhzAhUjakVR5At3fqoANncEe/cv7iL/6iDWo6Vpl02iSKL8rAp1rJt0Hs3ve+91GdEr/6CQc+9a2VT+O3er/kJS9pnREvyjLQeGXC8czk4740+sZP5f7O7/zO4kUvelHjn7q++c1vbvUg8z/+4z/e6mXywicd/apXvWqbrCIfLfEIpH9ovzIdtbZgq9dntZn7e93rXm0wVb564NtHPvKR1ub484QnPOEoHiiKTMKlzga8f/qnf1pRAE9ZHRq9Bs7LXOYybdzAZ3KpDk95ylMa/QZ/ZZgQasXfZOXRj350uw/UimjxqEc9qrWH/kT+8bLMP4tauTQZ+fmf//mjOJDxKS9yHx8cvmov8oguckOulIde7/k08FGb4RsaMhmSubL4NJrlJwsmnAtc4ALNPxM+qbcJdh2oj7GMvML7R3/0R+0X/qHSiU6KS9qnVl4tnfHvR37kR44qJv1Vm9WKsQUIoFX7B/QVF0jffdaznjXpk5OW7IYXYxMOPNtMOKMmtdIym1kj5o3rX//6S5dnxwssf6sSK5POr//6ry9LE23LU8v029/+9stixFHkxKR24xvfePm5z32uvbd8t6S35LbsrZXa8o53vONofkt+713+K0PaGhxGfRDMAN7Bzd7vt/fZbFpSV0deVkdcmdTYnJnYSstbnv70p29ljwGbtXcltMtf+qVfauZP5gD1/PM///NmcsQruJkT/IevOuJR6JgPSqBbGld1ouU973nPxv888xv8EGgPJiLP2YGZn/7gD/7gKNzVqZc1sK9s/i9/+cuPwBn82pZ5kcnUM/TjHf4zafUm1itc4QrN56Uu6nTzm9+85fMfHrRpZ+0R/HiA1zUALmuAaTSrj/fXuc51Ru3r7Pnex6TGR3DOc56z8TdmJX6eGoBXplMmine9612r+xoUls997nNX/CUf5IrdHA3kVRrloJ/5qQbn9py/I/U5irGDB0x4ZB6eGvSX7373u5d8FqE//YkfBe9qIlvW6mP5N3/zN638KZMTO39pvU0mpFW38JRJrSbllXzlufZJ+eqkbYwdNWit8qo/3LUias/QEPNzTFLkOzjzi39kfwipHzkmO5EnOMnfq1/96paFjPKxKC99E9+0CdxkHi7pI9/KDr74aEJP0qf8Wi0s+UsCY/2fuY/ZDw784TLAmzETMp5Ll/bhRnA/ZaLnN8IDF/kmAz098vY+NGP8c57znIaT7I4BF8v//u//tvF06vrKV74ylvWoZ6NRajQ0WpzlcOVoWkFMLEXYgYAleZZ7NMbq6KOrLSasIdB65a0BrS3Xzf609Cy3h+mZeN7whjc07asaZFHC2JbotLUheEbzpvnRFMtuv7j4xS9+lOlnmC/3t7vd7RbVWE0bwWtar/LPc57zNE1uyixI86GpMgnAYVXC/EhjLeFY1CDa2o/mRDNlpmSuikbd02PFSIumpdQg3bR6mjUgBzV4t9UPcwH8TEe0MuYVgEcliI1nQ2DigzNaUikuzUQKmDjkqw7feAufVQVAU3XuplmrJxkMvP3tb1/UwNfqok7k9ed+7ueahqU8qwX8sdwPWH3QCmlyt7zlLRt+vMXzP/mTP2k0DmHIK/KinUqBWeH++Mc/3lbaWW1rB1r+ec973oZOfcsftvj+7//+FXorLqY02rp2ocHW5Nbow9do2VZ/+EJb3wQ0bysjUIN96x+RV+UxP7vHz/BO3cuev3j961/fVmdoGEJNrk3+9SF8pdFrr4AVhLxMn2Qx5X/4wx9uWjWZ0ffI0dWudrVVPiseeSJnVmHhdw2QrQ9kdUKuXYGxSL+YkPASLnVFJ3O2FawLfs/IC1O8PgbK97aogb3VA71WGdrL6gdoQ7JtJUcm9a/AWc961iZLgeRfPRj508uLeqEZb+QdgrGEmVtf1oZkUFtPmc7x9VWvetWiJrKWtibY1aop7gb0hmZ4h1aJIQ14e+UrX7m14dRllTc2Pg5xjZrU+kQ6QGlErYGmBugh0oO8f/7zn39U8Zau7Jg6Fj+CAWZq2Sst04Nl9Tag4Qm4pT/BZHLsl6+bcJikejAI6yQGRmBwGwOdziRngjV55jIhgHQYnaYXqGF5Q9xDAZQfLoNgaVktORzBY8AKjPkbyAza/u7v/m5B4E02GXyHyoG2q5XVkKR2j68GvAxqJpdMeEwbBhMC772JM6BN+jwGTulc/QA4Vmg6aN6ZoGq1snjiE5+4So5mJqyYG/SXn/zJnxxDt3omLTNSJlc0xY/wi7/4i81seKUrXan5loD/2wB+MhMyq0R+5CNPLiapHtz3PpHQ06cZ8mCMDoMQPihD2doJzaUxH5E8PPKQ/FK0NoFBmE/EAMkUpa8N6dSW5Et/0EYmSDTFPxa/VSYwZiaXcS3AnGaCr1XOCj9+Ur7IT61u28DfA/6ZLMi3QXlb6PuPPqXN1kHkgxnSBG0sc40BHw6FgrI1VCDS3yL/w/xT47u+Nta3+/wmOArMJlg74WggM9etbnWrrYV+U4EH9T4+iW1srDqMK5qUAWxqhRd8/A3SmaymJrOxug+1NQMaLYqPgSalI9BYp4CwB/zPhGOC6FcFU/mHz+NzSX62bBp2bOIEq4cy/axuafubIPg2pcv78AdPrQBSvkmUcxQYiHR4gx0flrRWRcAAdb3rXa/9t5oa8ru9mAADm/YA6s92b+IzAGofWvwQhoPh8L17cgJPv8cHfj4FQPbU1aCIX/wjVoj9RDqG1zOrYjwIlHlp5XMZ832k/bT3upVU5GFMG0aXyyoYvXxDqcsUnWP9aWrPk7pblVop6mcG6L6PKcsVn0Y0eBOgVZR8IPjTv90b8I0N6ge0n/K0L9kx4cCtDdKfONnhNBkO23vokx3W33u4wh9lWY0rCw/DPzSxTuB36LUKs0K9y13u0p4BuORHj3q7l0Y5ylDHIY3h1+Uvf/kjyJOWgjaEyCPFbgqkGfqfxtJOTjg6piV/+QSaszXa1hiSE+FZBkxalbr1A/WQ/mgQlqZMHrSGm970pqtlLE0NDg1pUqDRamjRZpu022FZQy2fo/lmN7tZM5HRdpUzJjTB03fSXhs1+DIR0EwinPIkomZIR+4zgRJKnTErFB2BhjWE2qOyKH9ao5FzMh13mM79sK6epT3G0ntWPpP2Cn+Zd0zoJmEdSpsAE4kLiKTsB+byb7XnwCBOA/6pn/qpZrLZBL0Gjh80aCvka13rWovf/u3fXmWPBu2BFQ5+rIMMILRyJpPy27TJLCZjJtrHPvaxzVQqYpCGjc/kkbzReIeDSMojf/2E81u/9VttFWPiUU4PVlnkG48NsDTZBGMknbqUT6xNRiZaA31kjryRL45sSmn5bpp52SoZvd737fuOd7xjVbz2gzMWCXLOHB1wr57M4HiNBxSv3uwqLfwCMZQbExj+sjIojykoK8Ssyv2SBatiKyGTmcAGoG74IAiEuTZgkssK3+rBCpJ51WoUj2Kij0I15CM8+GESUQf4mA6VYaKmXJBdVhjmbVYAqxkygZ445PHbuJzx2CrSuKOd8YDJUN9Hq6g5JvqhrDD3xuRLntKe6+Q2MrtiyG7/DL06HFfVEVYOPE63ODU5pouhy+r0zcnEsbnfkECFOME5/EpTaU49DlvllnA3OsagdwRycHGElfawLIE4IuigGqhlT32G+3pKG2xOVY5DTugAp1wc8pymd77znRtNLg5Q6eOglGfMadjTjYfy4vFnPvOZ5uxTZzRzKE45SW1G9E5eDmyOT+k5Wjnfq8O1dxzi73nPe5qT2n0JfF/86n/2nXA0cmK6/BeUYP9EDbItvzLKtLC0r4TzMXXnVLUpcAg9v/BiGDQQpyg8eFkDe3Pqulc+ukoTO6IsNGi/OPVDQ08fx3JpfEfRV+aEVdCA9FN7PwRScJYLUKlw0WX58Bq+msyW1fnb5b9AAmVFXqpjtvbv+aN9EmSQ99pPUEPwkW1OdE5t7S9IIu2fjafKQnO/j2LI7wRZwAFX7muAXdU1QQtkVfkugQrKHwNBN8qU3gV38Ife4KkBvAXNPPjBD16Wf6PhPv/5z7+sQW0pwMJ7cktOtV9ffvjhGfm3t4nTO2k45GuSOoJE9YMLTle/0VsATX8vrzZN+wVfgiiUo43Ld9to11Z4Hv7f7W53W5VTE03rcz1IS2bVvSbC9qrv/8qXRuAGeYK3xy99KR6rccr4AjjtS0lq8jCs/2tf+9plTVZNLqTHg1rRt0tfH6Yfyk/6ZymDR+wbawUfAzhqhWPGoxVm74hfWgDtiOZdNDSzBts9W+l+A62cxsJRHZtz9qlw7Foi0zDYKeNwXEdDDQZN66Yx+q0Gahqf4AGQ+tCQaehsskAYopDXErKmAQWGTkH548fw34pwJyY1S2ZaJuB8ZxagIQo9RQOej63GmEdoLsxv8Vvws1maW6bTSGjy2kpIKV8T/wmNbAzgouH82Z/9WdO8AP5zrDKVWX7HMU6Lo4UBZi3aFo0yposev/rhiQvfaVapr3S0/NyjTRszydC41RtdzAsJfYZPWdpPfbVHVnFWIbRmGhs+VOTQStvXJujDK3JjhYNP6jbGXxo4f5oVkfLkh4/prgamVkX5rQjlT91pttJGBqRJeitnsuSddPLhpfee+eWErgmr1Z+WSwZCH/8Wc8o6yL4n8gEnftHmQWz0VmRMU1ZDMRNJm9XkED9+MS3hLaCdg9QRvVnZ4oc2c493wU+DJ9vK6DXuOO7hkja+EG0OVykoKw1cvqHZRn0rympIcrun9fdta4VNvq0AAN4Gn5Uk+WGWUr/0u96E+NSnPnXhAuoXPrQHBdonQS5kxoqlB+XHDOw5/gzNnPqZdscLMspcpn8J/OCTGVoJrGSsvK26BUMIgJiCMf+tvmLsE2ptnD/mMJzEzMzCPoXd5aLF0L4D/tfycFmddZh9X+6DXxkuoYCu3Pvt6ekLHa5w0NgfwVGCctSO/oS1ykuzrYiUZQ2CLTSZNtgDDfn+97//SqOAv6dreETNphXOkGH4n/puw1/aD01wCJ55F8CDaF3DtP29ukjr8n9Y/2HeMX4O01hFTq1Ih2m3vS/zQVt91SDaVhdWitpM+KjQ8v2ATXXfjzJ2goNGrH4VkTcp/zvBN6fdfw5Y/VupWRXrg+n/TpiwytwETqewQjQGlx+yrXStjq2KxvqQcGrWoE1jhf6CpppQVitk1gMr2+MpT6P7cDYx5TC/TwNPmXjGaGeeuehFL9rMPVlyW8pnSdvnYfJhnquotGVpIGPoVs8sZzcdbbMWwfxykgMxeelApaU2swvzl30sYxPwJKIT6IX9XvYSnVTrdwI1xSSplDyDf/mm2qQRk3n2lU1m/OYLLg17XuBhLjQGGXPGJhtZpO/32Uzht0+ofMJtAqzNt41GplLPj6c8nQKBx3wZdRwL4LTlVAtY4q5zhg1J44i2TOfI2+RgH+bt7y1VObcTsw/fuuMu1uGa341zgMO53xPB3LCNmXUc2/x05sDMgWPNgRNmwmFfFZbHF5E9C8eaOTP+mQMzB2YOzBzYPw4cFTSwf6j3D5PJxkrFRi6OZY7/GWYOzByYOTBz4MTiwAkx4YhcEolh45MY9hlmDswcmDkwc+DE48DRh/ccwjpY2eSYiqmjTw4h2TNJMwdmDswcmDnQceBQr3DEjduP4OiSHGG+F0f+3PIzB2YOzByYOXBwHDi0E46NVb5H4ciP/qTdg2PVXPLMgZkDMwdmDuyFA4fSpGZlY7JxhpIdsP0O9pwHJey4D4ndCxP6vHA6FXZsV+5+lTHjmTkwc2DmwMmRA4dywmFGc6SFQ/cc+5/jMRytYo8Mf46JaOxIkr02oiM/fJrAyuoktkVpr6yZ888cmDkwc2BPHDh0E45oNGHQwEY+Hz5y4ilwZpKVR77n4Kyk/QZnpznXyblRzrnyjQw0OJNthpkDMwdmDswc2D0HDt2EYzWTgwCZzeoohtXXFe3c779nYoUjvXQmpTo1dnXQX1jiWHurFocoDvNLI780VjQODnRYX76P4Z3D86x4HF9uApph5sDMgZkDMwd2x4FDN+E4vdUpxyaaOu+nHVXiWx5OmrWisepxemq+B+GkU6dbOzXZacvDr9Y5fbcOIW1f+XzlK1951ITk5Ok6ir9NKiaXIThZ1mnQTo/N9zaGaeb7mQMzB2YOzBzYzIET5mibvip8OPGz+CCW/77dXacstw8Z9eADTY961KPacf2Osmcu64/49nE1nz+wyvFRJasYnx4WGVcH77UPbs0wc2DmwMyBmQN758ChDYteVzVnquVzpyaf+HyY1kw4fDz27vAH+W6K71Ywmb30pS9t33zgl/Het1n4ZpjjfD+FOS3flllX/vxu5sDMgZkDMwd2zoETcsIxwfioGHjgAx/YPmoloi0fU8rZayYT6fiEEgRgwjHZWBWZcAQhMJuJjPNBL2YzPpwZZg7MHJg5MHNgfzlwQk44PQt8HdRZaxz8vpQJ8s1u3zT3FU97awQOSAd8Gc/l9AJf0gNWN04x6L9j3l7MMHNg5sDMgZkD+8KBQxc0sE2tTByCAXz7pr5L3iYLq5sEEviEgRXMj/3Yj7XP6zrwU9ABcxkw2Vzzmtdsn7H2iVuXPT7e1xf3Vp+53YaWOc3MgZkDMwdmDmzHgRMyaOBd73pXm1CsUNZtzhRCLZBAoMC2ZrJHP/rRiwc/+MGL+sxrCyY4/elPvx0n51QzB2YOzByYObCWAyfkhJOgAM5/E89+AhPbm9/85sXFLnaxxSUvecnVqmg/y5hxzRyYOTBz4OTIgRNywjk5NtRc55kDMwdmDpzoHDghfTgnOtNn+mcOzByYOXBy5MA84ZwcW32u88yBmQMzBw6AA/OEcwBMn4ucOTBzYObAyZED84Rzcmz1uc4zB2YOzBw4AA7ME84BMH0ucubAzIGZAydHDswTzsmx1ec6zxyYOTBz4AA4ME84B8D0uciZAzMHZg6cHDkwTzgnx1af6zxzYObAzIED4MA84RwA0+ciZw7MHJg5cHLkwDzhnBxbfa7zzIGZAzMHDoAD84RzAEyfi5w5MHNg5sDJkQPzhHNybPW5zjMHZg7MHDgADswTzgEwfS5y5sDMgZkDJ0cOHPgXP7/+9a8vfBL6f/7nfxr/fQTte7/3exff+Z3fuaP2+Nu//dvFX//1Xy98fO26173ujvPvqLA1iV/4whe2t+hHRz4KN5blgx/8YHt8kYtcZOz1Sf6Zz3v7xMSZznSm1uZ7BfjIwaUvfekDa/+91AH9vjq7F9Cf9AN9apP87aWcOe/JiwPkyYcvja97gvqA2YFCff55ec973nN5iUtcol31sbTlPe5xj+XHPvaxRld9sXN529vedvmABzxgWV/uHKVV2pvc5CbLC1zgAsvf+q3fmkw3mnmfH97rXvdaXupSl1p+x3d8x7IaaS32613vestrXetay//4j/9Ym+6k+PK9733v8ha3uEVrc+2b9t5LXeujecsLXehCyze84Q17QXNc8/6///f/lvWZ9MaD61//+suPfvSjeypff8IH8ve85z1vT7jmzDMHvvjFLy5//dd/fXn1q199+YIXvGDPDDlwk9ppT3vaxQMf+MDFda5znfYFz4985COLGrDbbPr85z9/8cQnPrF9tfNFL3pR+1T0GLz1rW9dvOY1r2mfjfZZ6Z2ujsZw7vbZox71qMUd7nCHRXX8xXve8561aC53ucs1jTyru7WJ9/mlr6F+5Stf2Wes26P7/u///sVFL3rRxd/8zd80jfyzn/3s9pknUtYEtvjEJz6xI36+733vm8B2fB6f6lSnap9IJ7+vfe1rF6973eu2KrhvPyuj3/zN32wyB99ZznKW9p9szbB3DuDvO97xjgPtL3uvxc4x6BulEC1KgVu88Y1vbP10r3DgE84pT3nKxXd/93cvLn/5yzfzkwnoyle+8sJXPX//939/cYpTnGJx97vfffEv//Ivi3Of+9yj9cWUr371q4tv+7ZvG31/rB7q1K4e1Oc/ZFCYIgAAIABJREFU//M/Nxb5pS99aXGnO91p8f73v39xvvOdr9H/qU99alGa/oKAq9M6kN8E/I1vfGPxmc98ZvFv//Zvi6997WurLN5/8pOfXNz//vdf/Pmf/3nDLS2Ty8te9rKFyU7Zm0B6Zi/8Nylkkkr5n/vc59r74J/Cp35/+Id/2NroQQ96UKM1ioEyPv/5zzcz0HAS7PGTiSmA/4d/+IfbIHuDG9ygJdM2eOSqVWRrF/iV9/a3v31x7Wtfe1Er48b7QNKHt3kefuIpWuHoIfwYysMUvuQl3+c5z3kW5zjHOdojX5sFaPryl7/c+kFfXtrvJ3/yJ1dt8tCHPnTxUz/1U4sPfehDi1Of+tSLsgq09njMYx6zIjH04XGPD340lia79nPt6KEYudAFh3zqm/ZzH0h50vf8XSXo/vTtP5R/Mkf2puRPm5J9l//Sv/vd725X+mFPX/BFXvWJtBFelArfeJH+Jz3+Gp/6/hJ5wE//N0H4oX6bFExlGwOk7eWJ7MqLvshz+gf+RL5Di7yeeTfWP/MerrR/5Itp96lPferiC1/4wuI0pzlNQ6l8/MDrdX1xLS/2vEbaJwS/93u/t6wBaFmTSsP42Mc+dlmD07I0tmXZopc1206WZKlXlVz+wi/8wipNCVEzr734xS9e/vEf/3H7P7UkrAF7+Qd/8AfLV7/61ctqmGUJx/Kd73xn+x0Dz0sTXf7ET/xEu+CtQX1ZDdKSh576XPVY9vbMMvUHfuAHljVILkt7amYVprhznvOcyx/5kR9pOIJviKRWgcuahJc3vvGNl09/+tOXV7va1ZoJpVaDLenHP/7x5f3ud7+G3+Ud3KWlND7W6rHxS9nr4E1vetOyhG5ZnW15xjOesdH1uMc9bolfD3vYw1r5zEDwwa8OU6COpXm3cmuAXT7rWc9qbewefepQCsfy0Y9+dDOJpv16/MyVUwC/+ijD/7/4i79obYNG17nOda7l933f9zX6qxMua0W9KrtWz+0ZGUl6v6lP+MmsgJ9MVtqHGZAs/O7v/u6qPWrgX9bA1MqXpseH/2OgTZgW8aJW6A0nmkpZaHKpPPJVk/Ty137t11btpz3ufOc7t3xpz1rtt2eXvexll8985jNbcb284HHwoRNP0SiPPjgFeHrrW9+6XS9/+cubGVy+O97xjst/+qd/Wt1/4AMfWMmf98ymT37yk9uzMVAndUMT2vR3tOMdvqhjTaLLs571rG0cGMqfNiU/Lv+lDz/c689laWj40ZP3kddSIFZthBc1oDZePOIRj1jWpNrq2vNX/cJPsoBmfW2qfj3/y/KxPNvZzra8zW1uM5len1d3PJCWDJMlbaXP4Sf6Is/pH2iMfCtTerJYyntL2/fPfvzSZ7yHU92Naxkf4NR26Al+/MNrcjg1Po21c56Z0Q8FDCccDDPQaVCMNshNQRgynHCuetWrLmvF0YT1Cle4QhOsMdBhrnKVq7TBiqCVCa8NSFMDhPe1QlgJogYwOJQ2sGSTL82yvds04aibSVbd2fDl4dfR+DpIaS9j5LYOSkjSEdLh3Js0CYlOCo/Opk7SXPjCF17+3d/9XRM+aSvAYRS/h/xKBsFafS5NPD/3cz/XBoPSfJavf/3rlze60Y0aDnXIhId/U2BwvtKVrtRwwIXnv/Irv9JwoE1nP/OZz9zo9rxMRMvTn/70qzqmrn/6p386WkQmtNLGls94xjNaJ4UvA5gO7P/Zz372ZZmj2sCFdml0Mv6OYXnqw6diIkIXfmXAUucyAbd86A995E1b8j3Cn+d+n/KUp4zS3k84tfpr8hf5ete73tVwKFcfyIRjUPCfwtG3Z5nmVmXqD2zwlJOkD/3kS3ugUb8gT+qLd2MQ/pLX3/iN31i1PwUx9BvwamXRBmD8St39J5P6xhDUKTSR1/xHk/6vzQzQZV5vSs8ZznCGZZmtVxO0Mgz88knby6N3L33pS5tCkDYaymutdFf8k94EFH7qv8P+on742bfruvqF/9KTHwO89GRqDPR5ddde+oB85Ene053udO1eW6X/Z+zBA++isPODk0WybXxM+9773vduyrSxAM+MPSYteZ/97Ge3MS/1994E2084kTf43vKWt4xVYe2zAzepVUVH4WIXu9iiGN+iIi55yUu2SKadAHPNK17ximZGkrc050UiyIZ4REjxu1gysoVbLvIF1MpomLTdV8MvbnazmzV86LvrXe/azESWnpakWTKv8w8ocyziowb3ZjNV9xKm0fJroFi4AFNMaeKrKC9+o7e97W3NLMkUIGLrZ37mZ9ovH1kNCovS1FvempBH8XuIdx/+8Idb3aSr4IZWv09/+tOL6sCLH//xH1/UAL2owaWZcNTHO363MfD+hje8YYtCPO95z9su/4F3pTk3vjLXMIuxGTPbDEH7jIH2ho/p4q/+6q8af+BDc3W+dvnvPT5UcEHjvzTk64/+6I+OKk99+FTIA7q0R02GrfgKbmkmXrT2Zg/y5hlzHV8KKGVmURPH4va3v/0Y6Uc8QweaQhfegvCjJopWtvryV+JbIvy00zDiUR1qUmx55OUL/bM/+7NmOiIn6kXmyLu0NYmN0ij/3e52t5VvMv1R3bUJE5A6M48zxcAb8F9ZeD8EbaxuNbg1eX3Oc56zqIGvmYL5qWqSWdRqqpkMawJt5i9ymXpGBvFW+8Lzyle+skXoAXThT3hEXvNefdU976SHL/3Dvf7V81f98LOHdfVjMuWjA8o1JkhfK9ejzPHSGIPUG214oK+Rucg3+siEK7Q+/OEPbzIcUOdSlBYXv/jFGz/IiP4AJxqYXl3wGmeMXTUBLe5zn/s0PKkvHvfypH0jb8xqpdz2bNjq/4GHRa+jskwC615v/c7AUppRu8bAQFUroOY/YqPUyGyjBtsxIISlpS9Kq2gD18/+7M+uJgfCJMgBlKYwln302UMe8pA2ULK36lBlclqUFj060apPJqvS6ha1glsN3gaS2Mzj00JvfAQGFAK9CdBioM2kx9dBIA0w8Ovc/FV4SvAzeQx9GH05OlPfAfNO3uTPs9RBZ7rGNa7R/Du1qpokG88zyPU+A+Vp1zzr+RNk8VG5L018wT9iotFxf/7nf36lqGTwLw11USum5nPkTMZ/7Ycf8Bv4BUW4B3hfq8VRBWNYoX5SEjaPBsDnBXf4l6ABtKyDigZs7WjQk7fMNO16yUte0vAZ0A30gSmZlb+02paHMhLQTwxceGGQN+EqT78wwcX+bxAfU6DIWXyP5BVt+hb/LXmRBy+Vrz8APocAHpO/tK9+XKvWI7Yj9PJFXr0vU9WiVstH+Qwz4MPv/xDG6sffMVU/deIvpXzwz7nnozH5wjUE9KGtVuCLMtMtanWzqJVxyx95yjjmniOfDPT9hzy7tDcwVtz0pjdtgSn6SK1aVmVLc8UrXrHJM0VsHQx95MP7dXnz7tCtcDSGwWWvAIdVCDCJuNYBx73ORgt45CMf2Wb+aKjyiYSjpQYfTYlWqOPGObkO/6Z3cIjWI1w6dpmtRjWgTXjyvs+PF+EpLWUnkL1CBgadxABC290NWP2MTTjrcNEE8TmTgElvN6Bd+6CKKRzqawBRHl6l/tLr3C4DazRoaQ2wcFM8DBAGlj6iB/2ubSEaqPLJ3RhogwzmY+/zLBOI9te3XFbQNGBgsNJPrCKUV+aTyf5nMqQJ46UJxiQaYCGgTQes8i9zmcs0vFa2IvD6oIIhfeTV5B360Og/BSaRe7EYsCIMgzYin9tG+YUfK4JH/qzDpX4UGfUTrDIVRYtX5atsPDMxb1rlZgIQ8GHytAKkJJqcNikXwyr0Mhj+mJgSrBNrxDbj4xC3exPpTuHAJxyaSdkUm0ZjQItJJAzyficDuvQExfIbXmD5R4vLPWFzz9TUC1UGYwM+jT4duk9Pk6bhuQwyJqdf/dVf3Rh5MmwYdeo1cct0uGhytLx1sG4CQXO0LStEfHXJw5xmYg14P7XaMaAZVJI/7ZMJJ+0zlX+KfoOzSdXkCscU4IHVm0FGWm3l2ra8IX+nyjFwMIHFjKBd8SXyod5DOnv+46dBkQxov3KiN02yL18HTycfowMNfeQS/GRWXXv57OsOv3J6QPdwkCRPthjg413ucpdGY/iIvwZCfYVGjfZN/E0fIR/l72nFW4WQObLhMsmZYOFNefjay3voDn3uKRN9O1vZGA+Y3PBH3dDsefiZ8QE/9Ef9U7qpkHD1gwtOstj3BzSQzYw3Q17ir3z4qX4mm9A7pRigvzetD3GGD/mV3uSFL+Gvd+lvSdfLVy8/+CFv5BnN3uML/ojgxD9tlrbGK5fxoQe0arehnCXNproM69bu13p4jsPL6lzNWVlMao6rmuGXnP0u/z2zobNsrZPU9EEDnH4/9EM/1Bxmt7vd7ZqjFg4OsGyw7J205Sta4eXYrOXn8sEPfvARERh9epFVIkXgzCUaRLQNiNPPu3VBAyJWUt8y2zTHoHtOQM5PDlRBCGPAmRh+ob8avjnD5ecMLqFd1iDdnODVMZuzUYQPZ7R3HPTSquuUk5iz80d/9EdbG8BRA8mytLMWNVWa07K014bjghe8YHNu9vSM0eyZ4IXwzAZNdXUvr/pzCruHmzNXxF7S+y37cos6GoMEnUgHV5ym6MffIb8FpQiIkJ6Ttnwnqyg6dUWT8gQ7eN/TQba0eXXkxlPOcu/xE89FRpY5tsmg5xysAj3GAA64klZ7xqkrL3wpmzO+bz/vnvvc57ZoOn0o5Se99+RS+3gffPpF2fJbAIhnyhYRylk8xd/QnvpyHtcqo/FI9F427noWesITZXvm3RDQJ/ghNPvl0BZtpy/Dz8lOFko7b8EKAkJqwlvlERAUeVQXctTzs++/2hYuOI0N+KkuKT+Rse45+If9pSaoo4IG1I/81SpkWL0W6GHsCe9TDpkaCwqqiWwVWVqTRstnc/gv/uIvNpqH8qyuApYSRKDeZF+Qh3IFEYj8TH3JWz8+eK8fGGNrT9wR9VV2xiP/BVZp5wTD9EFaR1V84sEpPC9khxbYUdkyh5pIT/ALy3lfnahpVFNOzz695TiNjvZFE6CB0Azk5b8p4TmiPOntXamBevH4xz++LYujfVpW9nZv7LRaYYeuCaftsdhvYOaJdkFT2bRMH5bPLyB/dby1gQPy0ZBotUP+p/58HDuBKXzBwazCTJXy0p7u0bEbu3FwR9Ps26unx/vsg0l5zA0crrRGq14mD87Sil46Qt6G8oC/nOnKUh+0+50C6bUrrRn0+NTZe+2svdN+fpM+eK22mEqU1zt85YdH/r7+6qve+8Hfvm6pj2foyMpoqv6eo1t/7+Ut9fEe3fxj6q3d8LeivVb1UQ9pev5Ir82sRGwy1oae9fXt0/f09eUN+0vqh6dj/aPHk/4Kn/Fi03jW92+0yhd5wJ+0q/pbDfUQHuSZe/0cDOUPv/EBPb18pvzIm7zqi3b13UT/EQQNbyYmohPqcVY4ZnSapD0c60BIrv0O4tzN/lYTNA6rgLGjRWr52vYb1EbNdWjbu7/8y79ssfPF57UrnI2I5gSHggNWqdpSmKrwUXJSA0DTQq1kZjj8HLBathLXjsLOZzg4Dhy4D2c4Ae72nhbAfhz7+To87L/C+8oc0aKQAJ9BbcY8SpP3TvqKX2+RSOuAFhIb/rp087sThwMCR6xs2dY5vskXrdCqmgzNcPg50PvcaOozHCAHDm6uGy+5nKVt86MNR9uCHcHsvWyiVjdjG8ymcLG78pW4xmyww3x8HmOrIOkq5LDZ3G2gohmXmW6Y/WR1X47OjfVlU7Y5L74DPoypzZ0bkR2jBGzefI3atMLWN66g95OMIX/2E/dJFRdZIlN4B1g0bBblczC+7AT06TqSqV3+n5Rgm/653/U98KCBvkIEhbliU5DAfjNhW3wmm9INmhNv7CgLQQfec1ofL3D0Bqe16zCdOp0giHXBHnjEEY5nzFWO1uB8Zerk6E4gxhgvEyTglPBtgBJSUUnbJN3XNL3TuVZFO8ZtkOSUdoLEfgKlKUeY7EZeD4qfm3gQpzuZcm0D5GxK1igYgnimnPzb4D+MaQRxCAgQyHM84dCY1ITu3fKWt2z7A2z24yw7bBDHJydjNuT1NHLmOfXaKQnHCxy6J7S1tLjRjWrHi45hORzt9mGMbZ7r04anCfsUXmsjGhOmvRhTINjDrmhO8G1AeDO56vfVbJNvr2mEomofwMm7CQSaMNdln4w6nv/8599q0+gm3P17ZsG9BGCEnzsp83iktQm0PylgU5lCo+2ly54VAUI2y7r8t8mS81w7ZLP1JpyH8b2wZ/UMcD/YuC5I53jCoTlpgG3coMNfktN+MYLtvLe7ijLpASN16OxdEWO+E5A/8eg6oWgkNIzthfEemBzF4zuGQ/r6Vk9Lb/AklOL0Az393mvoIcCn7n5DD3wm4GyyFHcvJt57HQqP0IkfZT5oR3SA5JfPoDx2nwFQmfKnXvKjNzvJlR96lS999lL4jwaTa9qnr5+NgDauDSOl4AehL2Xb1wB3/GtwijqcmiDkNyn1m8/kgZ/NHr3hHx6ISkSzzYd1Nt+qfQ2cyoTP7xDgVC954UWj/6mDMgLSimbEd/X3i39wV4BB28wL+vYmP95rb3LoCCabL238sy9F+9gd3isx8usv6PE8+eFWH5D28m5TJGHk2S96owTAg3fqC5/nyiP74WfPf+/Vp08/Ju/olkZ94evLI3ve4Qce9vLHn5Y9IZGfVtkOpNc/RG/1p16k/STVLvIDkaoVFt027NrUahf+L/3SL7V3IuBstrSxEz3qFgi+vv28G/a3VYaRP+QFz/VHfSl7ZyRN+xnP+v6JZ/09fvTt349n6Y+e6UsiEkXq2YCqPMdLDSH51Rfe1Bk92/B/iO+o++O5nJoqi79GLH0Rd8QSrxq1xZfXQLC66jynhoZJwH4bMeR1rlM7oNO1Lcgv8kz+4PcfDntaSvAbKnHqyolpCI1i3e1tEROfuHdpSzNv+cXBgyH96hL6W4ICdmGRcuqADnsplGEZb58EULaDNMW/MznyE9kTU8J61L4fh47C42BGJkofrnPPbGKPTvilPLH5fCbxSYVedXOFXu3DjOjgxPCqBLGZevr28V99HO6IZ3jnPzqUbc9A8qMH/YkCU2f/gQNHcxhhezCA4GMSwk/08fsFPz6Ff+rktHDtogzvtE/kBz14Yd8XvGz16M4FJ9zeS5t9CfD7n/Zkbo2JCm+qwzZcIFGUygcOblSmvRV4KqpR2XCk/eFmxsFTaXPYo3RoIQP2jMivbZSF5+FvDbytvmia8ompozTkIPInffZm4R15IgvKIo812bQIz+xzSXl+0WqfFrlwbx+XNtbPXP7zoeCN98pFA/rSHuGvdpJffetoo9Yn7UtJeZHvoWy4H8qP/lOKzyqveujfZDP8Vh76vdO2Lvt1It9OyeYfJt8OfpUOLX37kYWMJ337D2ns+4P6aqvUJ/1Hf4dbe+CRMiNj8XEbb6TJeKM+ynfoqQvtomYdfpz2spdJfhe8kV9tYCwI/doQv/FO2+2E/8P69vfbGTnXYdiHd/1GN0IeYJ/XIfpLI/enK2sIJwFLs+1GpDLzrEKXdZ5aqbQvRWK2zU1wxWabe4MG8A7zSztZCayNajqiDXzeG0xtnNTghImdFD7CpVGH0A9IBma+oEzATp62UVOHsOmqP83WprjhRlO80VmEiNt0JuTbAMgnQiDR5x6NBC70ssmjUTk+nUAACbuO5euc0ktrkDDZZaMdHEJNa79Re29QwU91d68u2XhnI53NZZ7zOfE/ZcIxwbC/B1Ke/EPQYXPCrfLd4zFeD+kjH+zzaRv4+vbXvtmYZ0NkrRBWG9sMRtqLAzrlmYD69iEzTowmAyYBHdxJ0XisffAj9YfPgGJjsTay+VSZ+BH5IsO51xf8zz1c/qc9vYczGw+zubWOXGmDtEFFerwcg7R/eKau0tvIyWekbik/v/pk6uNZX1/35Eb9/Fe3bHz0TDsN8bk3qdUpCKvBv09jQDQYq7Pn5CobD+Efg17B8D4bk/kLBfTAQ9Z9GTb926SvXZ0s7T151PfiY0x/sunUe2MO2TIe+Q9fJq+efm3Wg82v/UbT4JNH2+sfJgfyip7heBTc5GXoM46PWV2yNUO/6PuLSWrYf/ijKS1wGyMyQVOoyYixLhvL+/F2Nz7JQ+HDYTbJwXHZpFSVbxvSivlt86Rzm1yW4NXIXjeogWAVnjrc2LRKNPgTG63HTAK3utWt2kYyp+gKr+5heO+dclxsu5ataLdBsV/qWi5b0kvnmBTh0jaE5rThvozqQKtzkpgCcjou8wAfiGW0cvgrHLboUERL/bEv8DmZmEmB+cbJw+jIqa/ZIOpeGc4LA+zYTvN1wc9MpDxf0HQ4Y0xs0rL7O0TTB6m0DTzMQPG5WbY7WbpfrjtZ2MXvlbPQ+Jx6+3HvU9h0tlP4Hx6Gx35DX0x56t+HxcpD3mKqqwGhfZyKbDlORj1i4vHro1v4FNnSBsP2wWcygL+RJ6dza5/+9Gz40KeuzBNMsTVwpBpH/Q5lL7jSnt7DySTjIEofKgTazUf3Uo9N/FRnbaiuzEr6Bzl1jheTCt6QKyYW9e+hr6/n/AQxm6qbNnaCOX9efFhkt/bFNDmB08GRDuR0dloNbKu+rlx9yOnTaU80pl7reNfTGH7BZeN2AP/CYzi1a+61EVNkyspZb05hB945zbkG3XZyOlMV+jNOGbPGfCT92XB47QTu5HHIq/4Rk2xPT1+fqf+h3TE7OWqnP31cPs/7/uN/fNLoIcPk4WlPe1obC/ixuAki/+ocE63xeadwaHw4Idzgmsp5ZtB1tHwcgQ6f0yDZYesMq9Igmt+k9/2sY8RwADKB7cTR2OPuJ5l1Za6jTX1cTokODG3GeW4AYFMeps97dVGWDkJ4DUYGi36STlqDMTDoOmuJf8KBhMoGOhvBY7/dFrRfaaENZ0DZLpOMaxMM22dT+nXv0YOWnp4+vQEj0MudZ+vadqp95Et7Dh2y8OXsLz4rPA/UaqUpPjsFbeTkA22k3DEIP036YxD+6EPw2Y8Wn6DgDwO+9vP1R2mcRNxDX18+LJ9WCJBBSqIrbS+9k7fhNhm652MA9jZFEXJvEB6W15c99j/y5uusIPVzAvtOYahEDvPzsVEsMh5FnrStSaf3cQ3zmtRNsAHy51BgE9BYfx3mH97HF93LOvp7+dfnM4nKP/WfImDsjbwOy9rt/aFY4YwRnxWCKB8npYoScVWYYnP0BX77t3+7aeC0clpTIPnHcOd7LN5tO0trzE0RV2NlZYWSssbKE5nk6iHlRSPqyx9L7+A92rMJ2eojp/qK2okDe0hfIu16jaen1xEWU0CItYv69FF7Q61c/qwotV+ZEKZQrp5HI92YcCQBDbzvRJL09RtmoaygC5/K/DB83e6nohK9y4rF/6xAhu3T56f9m1y0lyOUlA04h2n+O4W0Ub9C3CmOfH9nLJ9oOStAfcakkU809Gmt0Muk1HhIJmjElCK/Vn6ZkJIHfyhXVnkmMJ9az5FCPkMOD75oG8fq7xSG/M+Eu638TZXXy3bGl76/yBd5uvnNb97qP9bfg9/xVxnX8Nh3acA6eZuizXOrN2X6rEpOM1d+L//DIBwroEC/GqeoGnt7+V5X9rbvDsWE45wjgyKI4Bk0dCIROiJiaD0Gk7JHN83BUg94zyREo2ASATQOmkLMPO1hBzqY5SIQicJEZJDTMMkjWqM+Jdu0PWBSY17SGWhcltBMZU6XZcIo++nq+xNo01A6Ik0WfhfchGwIluKJ/jII+R67j78pi9Zb9u8WJutDa46uN2iXD6CFYNPi0NqHRfcTKpOjaDETUVY06MO3DHbu1d/AQOMUfacD/Mmf/EkLC/W9l2iZBhSmlvBf1Je0tF+AR6DX0PJ9Ds/7DqitM2AaiOEG6uMCY22o7JSvgxu8mAJo+SZC9Ideg4RO6AJOC1AmGQI00LQPZQY/YxJKlFPfYYWhM1eJDCR32qec24vaO9b4IkpM2fhhQLU6J0dMRgYn9Iks0l7MsDGLyoeX5AZYKfTnZKGJOYdMkD3mX/QaGJTNPBVzkbJdoT8rjIa4g5jHyB/6yB55Jy8mgcgvOcuEpg7992Wc5K2trEyYlgDFz3+rZfLjvzypG1nXd/DehMM06wNrytOWfX+BS317+Uv7KGuoBGof/SP9iaJWwRlNtshC5A/N2i8w5Lf36tZPeGSRyV/fK/9jk03KnXShyTOmMJ988P2e4YSDH753Q7lQpyhIrBL6DpnRFvW5+Nb+GX9Cp/YHTr4nyyATanjR959he+Ujd+mvZETf0FbkV58vv9viTRX1asLRFuTDBdBIYQLyRsbagy3gW2pvwsO3SHfMk2AAM5CB0KQCrnnNazZbO2E165skTCQGUY1RTvQVXTqwBrA0xxyaFRMCTWMIBhCCTjiZqDBNWj4Wy1nfvTGQmf2ldfgfs5SBxYelDBrMJUIo7RkhcASBcPi1uuBngVODu5ThWe14PuqjagYd330BBieNraMZkNi+fbkPDSY9kw7hZvs1eRm8TELs4AljJjx4SaCVBweADy2W8Wjks0Gvjq7evueiTuzkfnVIA7nvnCgDmHxMaHisrdCFHoMCnsJZjuQ2ELqXF26diLDqgPLruDpf2tdHsfDXoIR2K1e0PelJT2rl9mCCY4s26TC56LRkgZyUo7vtW0GftlNPg4aJH02ea0MDQ9/+aBIuTYM3IUmnLcgbPvhSIp4YyNRB2fXp48UTnvCENnlZsZgAtB1eKJsJRx0doUTrNpjIQy7wET4fl5OGEqT+3unQaDNY4gE+qiPFhlygwaBKWcJTdnU0+FImXEC9DYpkwX9yOlxBmUTUQ33JOgXAM5q2QdFARgHJ6hnPHO/EnIiX+qy20MaeUVr0QzLDZ6lt5aVQqoe66TsUGzIHmLKZxcmo8jKZkSuTGJlm0TAY4hEbmnIsAAAgAElEQVQZpYACfJBPewbwg/KHD/iGvwZNbUkh1XaekzNKrH6pzYwXZJziiw8xxUqbNtB/TSbR/pUJD/5b4Wl/NPpNfxe6PwQmZ/XDP3SaDMko5ZWiLT/5JnMBK2DmO3KKVjSanJm+yIRf/VpfpHhJR+krp3+rp/qgW3kOnsVPfU77qFPGQzzgczPxGDt9y4d/EN8oLiZtyo5JN6HSxqdt4dCcFk0QNRohVdnEyRs0Y/pRKVo5ZhNiml3OszJZGOxMFIDwYmI02zGGwBvNSePEBi5v7KA6pHSYna9m6oTeExhlGFwA2g1UOlZw9fTrkGP0sPs67RoY7Aktenqbu/LQhZ4x/MrznMBZyRBeg0C/2TD06ezSGwSjuaT+BubwW71S5ww+6FeP/h4P3I+B/PAkvTQZbNTTO3SFfrylEdPSDERj55WZAODzG58e+uHBH7jwy7vQH/55Fgd03/4pPysO+KWleSqHvJnse5+GPNIEwl/3wYceOOHzTDBBn95g6V3aW3vAA/AmbZH2UR4ehd/D+vfyNyaPq8K/+acvz6O0r//KRnvku5ffMX7KQ360L3p7OerL7emPfKS8sf5oEEx9TSAG4/Q//Ex7woHf0qb/wk/OIi89HfJJb7yR3j18yiN/Bm35U4/UfxP/U8ZUf/e+78/pj+kXeKCO5M7KiwJmbDRO8KswUac+6CVX+A0y3nimLQA6huV5Dv+wvcP/5PM+9SUH6es9fyMfrbBN0IfsHfR/4Xo10bTvzfg/BU7pFTooZFBoYMJyfd/iRIOEyVY7tbDEPix8N3URc1/C18JIS0B3g+JA8ySsuyKuWmj5YQCymLBopw7PMHPgeHFgGBZ9vMo9VuUcCh9OJkUzpV3Mw9MEhpOm2dsKiBmFRZDpguYTU9ww/bp7y9neJjyVVpre5juVbjfPaWCWvq6hzXen+NjDLZuZIWJT3ymOYXpacFZCw3f7fc8M5HRmZgra3LEAWq1rW7BSYDrSPkwo8YVtm39Od3w5oG2ZjI5Ff+Vn632Yx7JmxgK+aasXplFmuN2C8Ss+0t3i2I98h8akttvKrDuahOmN2chSlSnE8ti95xrRcpTNmYOeczfmlyEtBJeJyqDDzHNShphYYsLReS3rAfPWmElwih/hP58K/o+B8pgPmAgoHBzWfAiinHZa3hj+4TNtyT9EaeGT6E1iw7T7ec8EwRSivLFAiJQV+WTCZT4+bPRtyxNtKtCFb7E3eW2bfy/p8Fl/5TPb7/5KGWZWotyq217ahyLDX8wUrn/0JvTUn2mP/4V5nJLN57xTYBLDD/5Nnxk/UDhWS6eDxmt3fAl6M1PZSe1oEMdnZIlaTtilz0Xb3Zv3UzT7rG5F1DRcJ3Wwg7mc/I1Pdv6XTbft7rabep2Zc4wvTnHAs6md7vK85S1vabu6nfTgOJAacFseO7fLATyGdu2zmsDWnppdjs5WlhMdyrG7Ftd+vXQkSjnbGx/t5F4HjtFX/+NJH3rsuscXfUbf2QROJi/n9WQyba4ew6OcJjPs4wunBejfyp861me3xfkcdvl22rE7TlHYC+QkCKdXOBLoWEGtlFqfPgzj10l2BPUde0cz6OgGsVoGtzOBKuKkfRvDsSo6jXcmHcfrTEFFdrWBV9q9gkHbQFyRMXtFdUzy55v1hFN9KzCi8YrQTh3hPkWIYzDgcQyO887GwNEhJhxfaq3onPYNoYq8a0cF1epqLMvaZzquYzqmylMHR3k4Img3+NcWPvKSjy7flHcUi/t1EP4Pj/pZl2c/3vGXGUQpX7UhcSNK53f5Qm4gZ3HFB1lRnO3IoP0e8DcSVgn6s9TGjkbaBsdUGvJj0nE0UUW/TSWbfO5ooIpca++dK6d/uCh6xwqMX/Bve/TXsaID3kNz0gCTgxDYRD+IDuKXYcZiy7RjWdy+0FGhlEw+QnwtF7237GSSqcG8mcnYPqt+LXwZLvsr7DOQR1rmGktYIYiWyUwYgK1TaGXi+NlN+RLY7UXsCC1mZhJi6JRZ4Y9MBsqw1EavMkC+0S7ChIlIGKE4eCYddAtnFAGT416Ek+7U74J+4GgetNiLIY6eGQxutMTnwC9iv4NwSuHUib6RXzissFumJvxIOLL6C5/s0yZ6xnJfO/C5JEoGPUJs8Tj+qDEfED6LvhFWzPQhNBWPhOjKqz3Qrt1StndCjoVxKtsOe/sgcpKC/TF4Dd+rXvWqFio89AMJ5YbDc/m0Q/YSpL1ueMMbrjYuNuZ2QIYSPiyElXyhizyJahqCNlc3fEQbHxD5sY9CKLxwZ3Kt7nx5wqXVXfugVVrRRu6ZYKS3sU8d7ZPA7/DZ0TaiNYUpp958DviP38r23DU0zXjG9KxMvAX4gkbRn/I7RZl8CP8nX/qA8vEjp1qQb+HZQn/th4qZSH7ptSc68U47okl+MirktrT+tv1hSF/4qr3wnIzAoY3h0F+ZxoW2J9IwedJf61PTLa98eIyHxgj8lV/7C+fWj4HnxhtyKNSavDChGZeEAieUfJ2JNDRE3rkA4BESL1w9QB6EOwtfxwP1z/iW8UTb4w1cxkntinfaX53QwdczBPW3xcS+ICBftggkrfLUe8xEKBpXeoDfyR/fUnBs9XssZ7NtcVeMfItMY1KhnTI9VOXboXEOeXRwXG2wa5oyzaL2n7TlLPOEj7U5CZhmVhVelrA1rUq0m3t5ah9EuxxqKLrNO4fmOXhQGstvy3AgOsqSGU5plceclMMoac7RoEpg26GNcKDXKsABle77Kxo+M4k83jlEjxbov/ox2VWs/bYsa+nQkvqok/9WccyH4QfcIqtyL3Ith1UO6fScmQmd3lnh1ETW6sbcwhxVwt4OyozJAn9qb0lbNVi9aQ880V4lnA2P5Tze9MBsYxWKH2jT7jWxrPjHpOYQxvArtIrAsypSJ+VUR1pWyHKjLYcXMlGQEaasIYhkhCsmu5oojmovbU0exlZ0Ofyx511N1k2exiCHcfYmwlKImslS3YKv9pe0VTgzorQxYeIb/lvxOORSuVkROiQ1dKBZW9ek0Q5fBdoDrppA2zt9SVtNmcKYv+BjDnNQrN9S4lq0I/mSvyaYxv/Ik+g9bZd7dNT+jdY+cJFHMmO1izbp0O8d64PDZXteOvF6alXEKjCUXQelWhXWvrwmk3gU/PBa4egn+iB+R55qcmurXGMM/oYGOHycTN/sZa9vP3JlpRL8Y+0+fMZkWZNvy6Mt8MOqsq+7/ylfGVbGeJ406q5POlQ045FxKn0RP4dAhq1uksZ71oTkD+6Mt8P87vvxxD2Z1KdZPnYKBx6lRrOwodEmJysXm+Ry7hit3WqFQ00MuouGRRuihXnP2ZyzxYp5TcOLBuOe5mkzl6sEqGl3AgTgpNUDmhyNgdbk3CjpqrO1tLRIjr2cYmDlpHybp0BwRAtVNqAt2KBqY1V2/jo7Ke/Rg25AU7Cxa0qra4lGAB3y2BwXp7xneOQC6k8jVa7NWjSp/lw3WneO7LDiUOfsgZJf+6hbzg6j6XDEZlWAP9qPk1h70OjxV1uN7aFJNZRBa0QXWm24xPfwUzr/4cJLQHNHO5q0u/c2ptH48DCHCsLnf1ZdKXPsN+WlvaTR1jRReIeQlWye42nP/2H63Pdnr5E1l7pHHkp5WmmR8iQ9Zy/+kxc8xQOyZ+Nz6KP52mCI31af2QlOFqyM1BGNeCYKFO4x6HkPBx6QBytePNUXtXPu4UCTtuvlDS3hffoqepWb/igveRmeb6ZcNI+BVRQZ7YEsohMu8oMe5eNJIP2v5zc5JUfhb9KSa6s3/TxWDu/69lO3bWSrp5O8x4qir5LrrEKl0wcd9ql89ccHdcPzgLqrZ+THc+3aj5d9mfkvffqrZ31+ZSo749dYfnSHdmNkoJeXsXxjzw58wmG+ymnETGJCT318ym5XmyDt8jUoWu4zXRGadBymDMtNO1+FA5e21HawrwNLxgjLcMNSziIyUThOxvElpek2Acjyl7CkQxt8dagA008OHsyAqgxmCgOB/8My5bXRTDjwVCTXVH0yUTC12N2fsEe8yiYyO8MNUnaOE3Bmp9RfFJQO6qQEnRXged+ZMiB6hncUgl545WEKctlkaslvR7byk3eKfs+ZJXp6e/74T9BDjwk7pg3l4b0OyKSX+q4ryzsyA+RVj2F7Jb82Hptw1E8nD5ionPo8BTF3hX/SkWOXuvdt3p9lFXx4SvaYDpVFIaLEGDSYX7WhuttAOoyyJI/aTD6mGu3fy/+Q5r58gwlTFX4ZlGyOBPrXsL36e2WJ3up3/5NvF3moFUc7LaA09dEPw5FhdRuC9uoHu/59zuqDX/lkJhOgPqLv6YPk6f+3dy9HktzMHcClkCu87ZEOfL7wyivvimDwwjM9IM0graAD8mSUP8T3L+WCVdXVMz2zvVpkRMdMvYBEIvHIJ6iVgfGJHn38pkzzi1+H3n8zbleufU9VBjq98q0NRTZoGc9UYTNQ6fYFHy8k8XDUXv2bvf6WZy251voGYI//lKUv05/oBT988FUuOPSB6VwTgGuDmgtfJpFuA8A0yeflr2tpPug/TT6lXhkTBWaiN++To13PHHdjQQO+oeM1yBDS9xY6KSfoLU1wAC6RROyOlF9i5fjZ6Vn44G13pOxEjStf3dl55Vr0ujbAFf49md6o8ATgasE1KWm/MtRB6oj7sgnaPbp0zGfgeU8b6Lrh++nTp/Fzvw9sbcvgCL5BR64nbdRuuyM0MlGoK3YDEwQ8ev/NzdGG/rzTx0TB3mI3GjBwTZ42BfTVpS4YWRqkNdJuNL9Vn7KUDc+0L/0VfiBFeD4DvpBOBd0AetoNH4F+IQWFVt6zEPiJ53A/fG5yz3gIvdEH5Hs7bZIx2wr86O3ZRUhlwZ00od/xLP5g2/CDaybcPXy7VGDS5qKuP42HSL14Qp+Gv/auLS7ZmZvQQp/YIuBlcTTOgQlTTB1eMsmyk6LDHsBR7J2Fyw8f4gf0UX7nWd9bcOCK39k7lA30Y/rQZsuET6JQpnRQcqGxQ6G//rMpjm0r3xsvbJ17G5M93LOZOuLPPGczQXf4sSeaQ2x+jS+07QsWHjIOMif1+S44pP2u8Zjv2WXhbzMhbs/3ytr73rwhJRNhIEcyWIDCt3ttPbx3rw7uPd7nWUTvXkiO0+noakvUHjp+9+iDazEYVZd6a9xjZ2BX6DaEYophC2EfqJ37OKmwiLShPB9Y5EHXsZcxf5RNB0yHzy7hIKqahIdNwjNZDbpOkw4Zbu7x3GHfoe/1Ln3rrMN3z7My4A2XYId70T9XoOawMQVfOlxlosUROOVRWfTr8KjJeLRZ2+OWChc6e+U5wZD+uCbnzU0STdjD0L0YaOi86XyVC/fYFFyjfdykXauHPhetHCoVl3P6YXpiEB20MvcgNhWeP/TNoY/yS3J9qYXhpZh8wydlsJngEfYC7870ZmeqCegfVfby2U96+zzrNhr1z1CTy7BhaWNsBWwYeGUP2AnZY/R37UDHK9GBwxldPEsbenvhEzdptg4eg9qk/tAn/EWvXxPZVk5sDik3f+FzBGw+3sM74Rc8wd6gHmMND3kW/tI3/TrPnTTrfXaQ0hxs9jwHgxnv+o7dVn3sCw4Z5CmKj3jzzTY/OLPvKNN3+Ms7JfFtJ4IGd/d5kLlmQ+r0Dh3gjdbsW+6x6fCMNH71CTzYRNhN4r3nvYCMGMZbLRKbG7mxejZefauMbiMMPnGDzzUczAWu43XJTmnMsS+F/t4x/8RmZvzO0Nuf+aXPj/353vcpz1wV/F6bCeT/KDhj+YHXJjwMiPEYvmu3POIBnNRnoMWo7Nqklg6L0TTPTdgGRwaAsmr1HosGF2gdh2AmaKctghj9Y6TNBKkO7xswJmk/32L6GCFd185gM8pjUItIDHImjDB0JoBMeNpqwjLQYmSHv5MaQYyMZ3ERWUBrBzpOaYSLNlv4wpBwYeD0Qyf06QzmZFEGdgu+tlem6uE4oW1wNwmhjWuTnwnP4gB/tGE81A73lBuG5BQRHNzbW3AYh0N/ZZQ31GcTPuO0hTATO3wAg7b24gULDlxMZOXB9JIFTLv36pwXnLm/1Jk2WHxmcLqn+iwSyvcuuvpuLxVPFjTflCQ/iovTgG+1zbPUKW1T2mvBQ9NSEw2eUp+f/92zyIW/TMKM3Skn/Jzr/EUnY2EG93JKJF4xqeVY7s7/DN94s/MXN2qOChYntPA9nlSnSbmkgG0z4h5e8zO2u9MAXrCgxCloxjEn1ioDDfCeDVZpBjanBGPA/WxgTbB7Cw4al2Q+XPBDG/W7r2z8zInJ/xwOtMviE+CgUlLStkFM3N/ZePVt6lJPTqF1z4JTduztuX42F3imbjhwiDDmOECZwzzTN+YB77gW2zODRdCcmvdtQPWfuQJ9+vOzBcdcYI5Ak2wo57puXT+FWzR1D5dg6oJi5qLLfwxDGPdDai3ZXhkMGe+pENg7iMH6z4/thR2Hao26gwjMDZCoSGwk8hJHPaM6IiJGZCcyK4ue3Hd0pNRoVALUFOwf3FapmrhIwpE4SfUVt2j4UjuwBxDbiwnGT9ndndh7NbmMMqmb6EyJuNHVEuu5ngI4wZcbJ5VjVBrj4b8BzdhcijlHmbJHe58OPbpp6haqJvgx0NL71yS74UWNWJPw0C9zaUUzhmVATws3IjnVCLuD/9VDLRIVA/WL50Ts2jltajnXtTMeZfl2BnTthlxuxeiWb7xP9cUFldpAG2ryGH1IjUJnjcZsUOwqcO+Hd0mrPwP6R1dOhUGNkFMc9UlXKUQd2svAV1R49OhUW3HB5eKO12ZQnzZSgbFL1mAd9gWqVPwD8Lf+witwYZNQDxUR2tYiNOyIeJLa1fuMzlSNvsO73tcnoR0Vie9m4JKv3XPae+MjYw+/+Z7jBTUT2qJ91DHaTSXFhRuwQ8GTfTD8FpWb/qEy842xjL76Dk16X6E9HmG/TdjDjLv3ZdHWdmPTjxs0myHgeBPedW18sXlFhdnLozJFfyoitl9jg/oT3sozB9TkO9RI1HJUSsIGgPJkUDavGIMAvfCjPjsar94zPvAw8C3VFkA/PI63jGG0kA0cfsa3I0vY6ziX4LMk2TRH+DlOAuxlKzCG/IDxTAXuR20XG1eej5cOAN/oNxkkuo3u4PX927dWpPX8y1AggXh2IEduokeYkUKyW5VNgaqlQ5KfFkcM1/AF70sBEjFJktrmI4GkURPoSznADNWhHb0+r43NR6LxResq285L2XlGu4UskJi1n6QgCPxeqEn6hTrN934BY6xsS5tG5d5yn/l9qm68QztAkroSGHzUni/upba/DK67DK0Mq4Lnrnh7dYpxXfUDAiD7ro9kJ3guThB7u/hF/cdSwG5VfjgSHwn4o4B0pb85EXCmKRXxcAQgnX0rwLGCNFIT5ZBMSKQkSHQhwdwLyuOpqS95sAZIN8YcTcGeNuLeep7pfRKbgwZpILpX3Gtw/K9alf/7NR++1ze8TageiHtxh71aF7F8T6S8+v0zvUd1R61IlXEvEJupSKg6qDGcGxT1h2cOoyL6U0EQjeNefW89H/E+92QLJjWUSeNrBSo3rs28nUp/v3mUvWd79H/p7jcvKqoXKigqrW8FqP6oGwFVOjCvUGdZhOPddZUeVLAyLzhFlOovZfIQLPvuOLQsY+1qmc/+XkkrI4OKZMdCEPDxq+FI9PlS93mwEFU5CFwFxixGtz2DmTIYxRj746Exl5vnvL7eCjXRDyOessoN9a3FDY8kbdPGe4BKjkfVHlC5UbH43YsjPBgz0fIR9NrDr98r6W6oPnjsPRIkcuXBxPjr/48CjgM10Q0j9720fw2OtcHY+vqIH/bKpcbFx+E/f3lC6Xc/HqEAD+TeI/lB/WXXGBk5HgHGQ3je3z0Pxiv1oGfZoXazUOx9j4b3qsT3ynmve+Y+nrf+7kH6/38qw8Q9/LNXlntP4aUW5DBsGcRuHsA2N4bHGf0sF8UABuPNBCxevFdqVR6DaAaTmUmNt9BboQzvw9OGyzY3xlvAO6hE/e013/DaozcFPFOU9VqvkFv13/PcwCnD5XDfRmuur+8NJmUu39L+7HmN3VO/sqQzoW/Xlngy8dj5KDBweTep0+bkGaF7YRoz0tdwieUZ59pY0ifoyTPTPb+91CpX26dPLMahCTuLMnm5sZl8jWBDow080rhbvwXQh/ftI8BimwWXjQ+O8aKdy2fzKkl58+qdn997/TQLjsWBG2LcLu9piI6wqFQ09PjMSpzcTQbP7GduQu+pxfM9t9K3QtyI47Z6Vp5dBTdDMT5wdm1x4fcPb2Ax5YZ6hdnUra1ZaM/q7s/UfWv3ov7yEBzMCd/SV7+JCeEI11lyMxDkxur4uM7xEPP7V9sIf7mpeq4uO3PtyYJzVPYZffbwPcMJHuX5Ndq4B+n3vWdH9/AyWr52175XrsUjmzQxLepI/E93i01cnHtitF4D6JtcaHbbIHE8txYcGzObtD3+1Z+voedr2rD3DcmZq7WNbHI17r135Z4Nkizzc3u0/crckDrQict3NrBz2MaMi437PP+cjYf5+/n6aRacBFIlcCzJHU0GSb7p/1znecRV79iJIZDFJnEzJkn++zkPgj+7AeQXtZ3JzwCbr0keqfMoOeNM0DmQED5iFFJOUpPHb9+EB9ee7JInSJJZpr2pZy4v7VeeWAztFKNyFV/lq9vP/8FvbhfPlPj6wzfJBzuNfD8DmqbtkeSSGBKu+kzfAW3hXWdxSfnuY/AE3tppvwaCv9gD3ltwyIIjZgSOcJkBzqFP8EfbtCn4Cg6+Ct7N+6GPMrUff4YeV8qDB15GS7g8Sn2TDSD+VHY2B679xImABKb2QNuMpz1+2GsTWmS8Jo4lcT0WPfysrFnNjlfFstAChJ6dH/XnvfSEX/Df6+/gr4/m9sFHsLqxGBAw2xdobUj/7r0fvtJ+Yz344Fm8O2totN2zK+Mdb+BlC2ACN+fA9Ll/4GtuzCbWtTL6+Jy/Obt+mgUn59cgHkBsHYW5MY5fmF2nZIGiV9Z4ah7PTU5cgdmBXOsQbsBZcFKGvwIHifDKw9jUanZFREjX5SW21Vn+8pdsFvOCo6MExJFkiK/UKewGJJdk/4WLoDL1d/xSv0GTnQ3pR3l5T/u5NouczoLgGVfYWzYCZ5f0+vxPzbQ3aVGhRPxGWzRGa8zoumJbBv4kiNhEZB/ubUogaeibutM+Onvvo4U2hsnxQ+r3zmug429yM0Flwek06DYDG5XOA/B3hglemOmWQMtbuFEb+97igPdCH/ei4hOkd6RT7+X3QMjg81r67OEd+hgLJppeX/A3YRlHglmB9tFURDrq/LBXh3sWr+Aft9uM705ntALGKLtmGey370L/3l/51twQm9MRDrlv4Qz+ytLmjh/+6CpHY9n8g1bwYRKwyc14RZ8s2L7VBnOZMUsL4n1zHzBejDHmgXKSGZoOgPahp3qMTz99nTZemZ8sVnnf+KIuy4Lj2nxrPtEmYH6Ab/BHi/DrPD7HBxfgaRYckz5i9BUcU7mHuaWdIV7rEJOHTtB4ROgdkjanPJNuV6kRS+2K7BaUjXlNzukI14msN5AwU651zi2YFxw2HXj+/vvvY5JWTzowDJCdUo5LyHN19fcxWWxccBYJjjGT5j9tyF9+82eAoUwIlR13i/jH0BaMGFmJ64njyQTUd3b9ADXSqf6pILRxtEDlwxsD0SRkEOo/KTVmPF0b1N61eEl7XmelDHtLIBOQd14D2oBWXUWT9pjgSQkmOzjbDIS/ZlwtEuEXbZVSJpkBtO0WJJNBdOZRaajH4p30QDJQ7KmJevkmBvycmCv4GA+PAuWn/TIC2Ajk2gaq8tyN6x7Xw8bXaZbxegunjFdjHlBv24kbpzYI2VAaQ4mDmfsG/WNTYkfN2PPekY2i44VP5zLxA15IZD8eokY0RvVVxrvybZDyffqvLziZzzK+5/FksrcImevCUzYe5qRsuPWvekh9M65SAt2C0Ccb0nnBMVdRAybNjzqyQTNfeS7bhgX8HlVe8HrqOJxEIvOblwGA77yfSPmaoEaUOfdGcQ49kr1H1oqO7uDQJ4n5EodSzPSZ67Fo2qS55y7M/THpv++JWREDwWWydi3Dh11ks+jyMygR/uzxyKigXHRxNnkx30jSKHpdHEANgHGsQn5p41Gh2sfFk5u0KGuAnqL9RWhzG5X9QPr3I1AGP334iF7WPyKltZULqah4P0kORVmjN/dmMSEd1++++25kkdCOmkDHIXHF0EfV3n3/KPuzgtSr3fiJuzj3ehH88EeLmiAGbR1ep4/iqi4TA17JdSLIz5CbY6rQGehDEe9xUYcDXM5AWbKac6EH+CKR72ffXX3WcRWJLz0+WsBV1gPR+DUBbdmKlSvORf9yA/euLAhCHa5C2p/+kv1ZmESi/PFFbby2oxy4IHP91j+1OG3tFwtj7IUeeBRvnoGD4UBJmqNM5cEffZN9Gk+IbRPLht61oI5nypcBIbDXf7fCD5SHVo4QUR7AU+YkP6A95kM/EP5E69pcj3tnEHrg2SSG9b6+lrXEc3OBJKfh69Tvr/ZzjRaDJKvEvfAUqW2OkEYEKVukrNEBIWiCGn/66afxqWfpoLksROsnAGIEnbqXFXX+1nXtMrfjCPaeH93D8GIApMAxedXO/ebAg9sZBHcpTRKn4/0sVCa/nBhqwHpPvWeAuZ0hBEx4yhDDI/bFwJbux2LQU/L38qRaARZlAYZlXB7X6u4TDXr4OasEWMiczgr0nfedbYNmJjfZnwUpJtXPePELgDQ4JgKxG/PE2c8quYra3MfzdcqZ6bdXPt6uHfDoP5NZaLv37mvuKd/462fQOIpB8Ko+0n6LbjZkaYsJuLQQW/qT18TGab+UTKVK+uz8HmX38WwTIwjT/d4/xodv7wVlWTjE2OBL6WbEq/kZC8YGnkcbAbTqhGvG5L319ffRT/lH5wHlXe+Yv0xErM8AABM2SURBVARh6ocsRnvpo96Cz/yt+dhCVFqfkV5Meh3jc95Ezd/166eWcCDqDBQLjZ+Fx5EAuY4EZLdRou3WLkzjB7JrycNbUkQnjv+TC8v/t3ac/Vs7dQOGJEbSsMNPDi84nOFx9twCaCHI96SeTPra6n85pOR+itQyt6lfk/bkpMK88jbZ9dhVWTzkWJM36ey8F9Kmwa5tXaLqC66B5CcHG4lT/zkm2Q4Z/vrRIJOrzk62xP6xUHp2BvC8IlUoI/0RCeas3P6s1BkjhxUpkKRm8xCQ9+pekD+ugwkbmNB6YKv2m+DOQNttBOyy5ZOzG+/0wAdX6XNUT8ZYnptk5ajLRsaRzAnQTluk1zce4YO3bGSuagdu4Ys/s/OGk522ydf4knvsCCwMpdY5erzdx5tlfxkaEwG68tEJ1kVnko+AdPXZMKEBKZwGAL/TNsyw1x5jlxYg84lrkr/NKYlOOZGo5vL6tbFkfKKxTBakyvcAfeenPhtCR12QKI39q/264XVL5/dRz+NFNOvoY8RnSKPTr13H0PPT+dKnC8SSSrwaNPSLyQ0mYzL9L728jLKx2dAB96N52Qq6QwL3z2Sw9ZcenT5W+XS2t6DbKNhQ2Abok+m/4U2nrSw2ixjhGATpVqVL70a5iujd9LT9fd/nR+fLlZQdwj02HnaK0OcMX/aplEMnr7108L6dAd1qsI/3tYMeXV4p//txBBCb4zn9Mz10jJp5x9/QI/XqH55JdNV02NofpwFGzcDsNBCbTmwuM7571/BBf7wADzYCeGhvbAbqR+sa/J8dPcxIyogrbgqtgn/tbIcru2u0uwWyWaufHl9+qtg8YoQN712J4+JgEzzidIKGIPR5hBNBbKR4FBiTbBZ7cWtz/2pXjrw+o03Gq/awIfj5Hy//9ttvW6Z380M/HsQ7xg9DP4cO80Ro0seie7dsmsZjxmfKYOMMZLyy5yTbvPkIHfCEuvv3bCopB0+BjG/38782VXLiYcP0vZgzzkXeYaMDiUtity2V3sjNl7K9q/1XAm/FgZmPfJvx7n/8Y+4LP7pGL8/wK8crNj1jnIMSuzanJ3bge+B8C1W1fRQQYe2y7YyIslnhiYtWfyKrHQao4waGmE36sOMnSdSkMUS7iJfZlSvHToSKiShqhZZV2PvAbkw24nxnJ8sGBJ8i5CjbrsaKbldzC4jxKduOv5wFhggK/2QlZs+RJ426wq5W3jRqCTYfIrJdtB2TXVl2LdRaUpV4v++yZeGlBpPniKpR+9DB9+hzBp6zl2SXYrdEF6yeGWriGlJT1Bb+oo2+IFXpD6oIkoodr90tu5vMSXZw7tH92slLr4IepFDlojV82deo+ACahd4kWNly6eBJYUC/Rt1DelLOLSAtK5+0A1/6f+3QXnSDRy0oQ1UkU7ns2dqHN+AHH/ymH9OX2kBS054rUJPCkORICuwf6O2nfHxKJ49/4Bcp/ahcO33fUln5jrSKH0IfUqd63groYzzFRoEeJJtZ+lFP+B1P43+4HaljO14Zr8ZoQNZz/WKsSKfiLxo5rZI6Paon+FEnRr2Hx0Afi65v2TTZL0j1JA38BXfSdsBz409fZ34ikVBpBhfjOKpF80bmAuMXZHz73zilutb3vsPPjrdWtv43Z3kG0o/ogRYkGpm19QWJ0/dXpCJzn8z72oBnSHHsVcYnfMOP6pRJHv6ekfLVnf5hs4XblXE3GvBv+E+rU7/xJf+nGyZ+Y1A64C8JFj0LAIaKfUiHJnfSW3BLKvBbE8pb6rj6rUk8Cw7mNagfCXK3ZcFJe+9pvwWBaojKSK4qmw94GjBUDxwnqCeuDLZb7Yoqs+vC3ctm5Nb3V57Te6PJI/BVH3uGifFR5V1pw5V3TEwm+EeMl736lN/HZdR6e+/ecy/jIQvOPd9+9LvGLd58C3/iRZvuR9HvFg2easGBLE8JO2E7C95DC75tClRcxNDP29lyJMg5HHbQdsU//PDDsK0sWBRYFHh+CjzNgmPHwgBHoogH2VtW7vcifYyGxHUi5t6hW2+t266D6sZfUkF3X0zZnqs7UkPoV3rgt1b/VN/zisEHXV16hiCBHR+hD156rx32GQ5Hz/A19aBz6an1ZBbujgJH3z3yPv5VN0O3HbJMymvBfiSFV1lnFHgaLzW6S6qMTDDPuNggpMEqPoUelL3nPYCIy7vN7t2Ji12vrT6T1q+//jpiMOpY2oECO4rdf67fA68vUSa7DlvBVX5gV6Inp37LCZZfAu+9Oqn+2NqojS2EX2Ix5IXFm8uPSpKnXcIM9nBe9xYFHkmBp1lwGL3oEePi+8hGProsumOTGnfJ9wB0YMA2EVhwGA87qN8OlarJwgcSd9AdCt4Dt2ctM4GCidsQhHornuFLtYWhlcT2mjiRt+JMKmf89/O/uKnEYb217PX9osAtCjzNgsNIVykjLu+2sqO/1cBHP2dLiPdUYmHO6uDxUm7Xd/urm5Soy6jVZgmnZ1ZIXAlHC/EDPLG+NaAacj59ud+OpovlqaMMhtfbRwOPx6NFP84ZjPyvCYZ8ZFsseLe8GB9Z3yprUQAFnsItmgqJu6qBysWxYiuG6ooUYXI1sXM15JZIbVQ5nEbqFWku6sC24U4IRESLVqd+4SrM6cCETJXhe4FLJnEBkn///fcIYFI+zydgsla+gDv1cwvkORcbAjdUE4WdYYBOXIAliYOOnr1FUGOM3FxguQiX//twcZYuQ9lsDLyvqH4cS2u3q53Koe5IBPOeJ5tAv8rBNVx21cet0aLEY8tpjlx20VP70Ez70NZx1SbELGICt0SqowG3SzizgZAO4v4cTz34kqioZES1o6fvuAR38L134cPjRxvtppUNPOP6TvowAcOfO6/2S4cju4DJkPSItso3MSpP/eweFnESsUWZKzcbBFdmrptcYrnH9s0ArzgqW/wiEA/evuf6rNzYDD3DK/qDe/Ee7akz0ZOUSX33r3/9a+M/Lub4Cp2145YbLnrEi0/7uf3jV+XisT2VG/uU+3kOf/8fSUvajubAd7EJkp6NuwWLAh9KgXuCdt7rXam1azIfQUaCn/r5J4KOBDsJEPRc8FVNnls6cyn5nc0iiLEG03gnP4FqAhYT4FeT3kv5w4/kksr0Xg3UEYSXTL3KTzZY70v0mUR6gqGAIC7fSnxXi8dLTTrjWmJGAWs5cCnJ+uCe4wYkxasJe0tMqI6a5EZCPsGTdRz0CLAS1KftpV7bPYBKsGLoJfiw7EojoMtpnLXYbIFznX6C07TNYVDakgAw5cBJYC3aCiaV2VYW52SPhlNNbKNO7fHbS2ZaBvERUCbzbC0O431tr8V+1C0tetkxRpAn2nuuLYILBcKhhySl7sFdkJkkgTkfBU5wg2MtECORYPoX7SWyTJZx+NUEPs7/8I7+kbTQ83yf9PrwyM+7vvHtDAI3tb1ikkbwHZ4T2NiPm8DLe+ni52StytZ3gujwkOBTQcaCkZN9udePfgIu8ZU+dI3/z85xUp6y/XybwGg0lWw19J/bua4XBd6DAk+hUiPV2AVnR0m9Zsft2s5YTE7iDKjSvJ/gRIZPuzupWBLfUYNogHeVk+ApEoz32Ufidy44riKSt/qlziEN2KnaaXumfgkLSVAJ6kodkUR4RCWnlMBO30e9BXdlsDMImOrpLuxQ7fbp0UklXH1JZ96PVJC6jv5qi12snXGCIBOQlfahFykATeCmLd4PwIl0pT0kHGpDu/zgFxub95WFLknV0/EimZBMpdsI2E37sTdpJ/Vf/560oF796K+2kFRcw6nbsODBXhUbTe9f/aV/09/qJ02yg5FOBQdyt9c23+tr5ek7Pw4rpGUSD4loVmWmPeid/Fp4Do76KjyLl8OfnTZ7/2sjCYWkiTfEF3X+nL9BG+lW8Lv/OYmc2aqUD1d8od+TFiY2r7n8db0o8J4UeAqVmgaKq6CuoVIQ7U21RXVk0RFxnMWIqsT/uabuqpM+h6splYrodu9YNKhWTCQmCBMJ1QuVmGC5fG/g+Y7KS30laYwMynAR1U4NoX74mESVm2/hndxO7rMddFVOPKuCrwUl+c1M5lQ71H5UYCZjk22it2PDSb6lMybo9PBev/7+++/HYp3J0wSVBJs8lKirorL0P3WZjA/wMZlSa/lWGegDBIcm8eaMFzoAZWi/DA3K5J1FhWZilmnAAmSSBWhMvUO9FDBBaruFQf0WERMztVpURPD27VnQGrWefvM9/P3QBB5UYxajLFAlOYxIc4vx0YRsUWMborrNgk3N5qe9+AYvXwVqNAswWkSNfGRbwS9UyWyCFmmZe7Wn5xab6xUwq42SUFa6oc3bD007vefv1vWiwHtQ4GkWnHhZzY3MUQHz/VyblAwcE6OJzcAijRiEBuQtMIg7GMCxXyT+JTvguSwTg+SOAhIBd1cTbtKzzO/n2g7WTl9qFTtaEkEy8rIZmdTgUCLtURF33TfpJjW7MtM+tC0V1XhmAmK7IqFYfC2I0mCwA90Dkd7sqqXesBiYSO2u64ydbbG2gFnoLfAWMPEgP//885iwARqZICW71J8mTZKH9DoWwnvdv9XvO22yMPgpTyxT7B89pspiskd/CUUtcqWeGzSSVqQD/ok0foVukSDz7hxzBQe4BEc8YzPCdol2xk2XNNl44BA7o3ckuJRF/EqMFpocLXhX2rPeWRQ4o8BTqNR6riyTnkWDxGIiNIGbKGZ1WRpFvWACsFMUu8KYXsn+xgBjsI+BfE8dpgypRkg8fuqz6yfNCMiLMwFc/OyKSSMmL2AyzI4+15Fw7EAzycM97fGesyyolOySGagZvklgJhUqH8+o447Ogzmjh/LPnnNcyI4ejdQlbxm61dG3I0MzYzcJ5tOnT6OdyuNBmD44Kz+5zkgI+sZiKvcVqYAUY/ERQ2RhTWoS5Zkk9SOaiZ+hGrNh4NjAAy0eXqSBTL5dmoSnd6jCUm6kYfmiqBP1lX4mEet3Kjb1eT87/rnMQYAGyehrUpY3DHR64Dd4KP8WWDTRiNSbAFA8Ef7yvY2J9qe8vqBpC3pHwlFv2fIGfY0pNOZ0YSGFo0XqDHxPHRj6nb27ni0KvIoC72EYurdMxl+G+2rAS6m8XsrOMM61d+20OcbWOA3UznQYaGM0ZwgvNcNLpb7fjOCMvozHnAm6UZmBGPT6avLanAYYu2XCZeBmFK7d46iH0Zuhm2G7BuNmpGaUjhMAXBmtk0k4Jwy6hnupzkZG5GQDhiOjuPI5DMRpQDl+jNqM+nEq6DTtThXoITNwSQQbvcqmsDkNcJBwgmaySXPKYHCOI4S6Qq8Y/N1jWEf7tKsmri1btHZyTNgDtIV72uGvuv7666+XX375ZdzniBAnDdf6Wpt69up871tGdFlz0YOzB3w9R5taxDaaojVniHwre29JB6Nu5Xgfn/lfP9Qi81Lu0+N9Zepb7+T7P//88x9N5IjiuWzOMiOrE05OOM2Jkfobz9Zi9tn3s9OAvlCv+xwaShX6IkN4MhE7eVVdypMhORCnlTix5H7KR9taXMZprmmLvxweAskm7T4eBL43HpIVent5/bMo8CAKPEVqG7tMO19/uQ3bPdLTu7brteOODcJzkoZdIPWI3SH1C5B5lZomen3ZeLngxu1VubHh2Alyr1YWN2S7RGoW0hVQX86woSaiIqLKKLoP92qgPDjEzXncLIjhXtl2i659TzVHZWTnabfNZZlLs3KA3TW1E7CLp0rRXt9lV+8ZutjJ27lyv9U+9OJOTpVCjZUdu2u751yTIKlh4GzXq21cs32DXsqJNIEecIUH4zr1pfajr7Z1W9ZAusAOv7tVc4uOm7hy0JrkSG0Ib2o0GWpJWtzHqRg7qEMbqAFJPOoHaIqGpDMZH0hUJE60TH9TT2krnNJe3x7xB5uftpNi4EfdGn4ITvpHP+kPeOlP7UIPfUUdiT9IkXijq+k4JThBtib40V7vaY/+1T44ai+6A/TmYk3qIL3jWeBbdOu55dzXbpKkd/2cqho7k+edvzk6KA9fBB/f16bgs6zTo8IFiwKPosCDFq6vqpjuNlz69n/sRL+qxnylyHLLdeZ88fHmNv2VNuUy2pFASN8ks7I73vyWuzpX+VJ1Dumr7G4vpaIc0vIMXJ5rkRv05DJ9BNy9//jjjyFdOT9JmQsWBT6CAk9hw3nU4nm1HLvYeIvZEc+uzlfLWe+9ngIkNDt0Z3KQOr+FIMRILmx47GXxtjujIo+6WqiGVMYZgVT+448/7mZSV34tJMMuNDvD9Dp6/fifNLdgUeAjKPAUKrWPaGivg5E+CQsNYoP6zLX2o/H7FuqjamTYpp7SB357Krr/T7TQVjEz2hm+4wRwBai+0MzCc7aYXCmLAwL+j7OGmKF7POuu1LHeWRTYo8A3ueDsEWLdWxRYFFgUWBR4Xwp8kyq19yXpKn1RYFFgUWBRYI8Ca8HZo8q6tyiwKLAosCjwcAqsBefhJF0FLgosCiwKLArsUWAtOHtUWfcWBRYFFgUWBR5OgbXgPJykq8BFgUWBRYFFgT0KrAVnjyrr3qLAosCiwKLAwymwFpyHk3QVuCiwKLAosCiwR4H/BfvIVtjhyv0rAAAAAElFTkSuQmCC;" parent="1" vertex="1">
          <mxGeometry x="20" y="20" width="412" height="300" as="geometry" />
        </mxCell>
        <mxCell id="FpV503ibzP503yleN7c3-4" value="" style="edgeStyle=orthogonalEdgeStyle;rounded=0;orthogonalLoop=1;jettySize=auto;html=1;" parent="1" source="FpV503ibzP503yleN7c3-2" edge="1">
          <mxGeometry relative="1" as="geometry">
            <mxPoint x="259.9999999999998" y="540" as="targetPoint" />
          </mxGeometry>
        </mxCell>
        <mxCell id="FpV503ibzP503yleN7c3-2" value="Create a 3d array of unit vectors with randomized x and y values" style="rounded=0;whiteSpace=wrap;html=1;" parent="1" vertex="1">
          <mxGeometry x="200" y="400" width="120" height="60" as="geometry" />
        </mxCell>
        <mxCell id="FpV503ibzP503yleN7c3-6" value="Yes" style="edgeStyle=orthogonalEdgeStyle;rounded=0;orthogonalLoop=1;jettySize=auto;html=1;" parent="1" target="FpV503ibzP503yleN7c3-5" edge="1">
          <mxGeometry relative="1" as="geometry">
            <mxPoint x="259.9999999999998" y="600" as="sourcePoint" />
          </mxGeometry>
        </mxCell>
        <mxCell id="FpV503ibzP503yleN7c3-8" value="" style="edgeStyle=orthogonalEdgeStyle;rounded=0;orthogonalLoop=1;jettySize=auto;html=1;exitX=1;exitY=0.5;exitDx=0;exitDy=0;" parent="1" source="F-enpTcHKxULuy2svTPY-1" target="FpV503ibzP503yleN7c3-7" edge="1">
          <mxGeometry relative="1" as="geometry">
            <mxPoint x="319.9999999999998" y="570" as="sourcePoint" />
          </mxGeometry>
        </mxCell>
        <mxCell id="FpV503ibzP503yleN7c3-9" value="&lt;div&gt;No&lt;/div&gt;" style="edgeLabel;html=1;align=center;verticalAlign=middle;resizable=0;points=[];" parent="FpV503ibzP503yleN7c3-8" vertex="1" connectable="0">
          <mxGeometry x="-0.25" y="1" relative="1" as="geometry">
            <mxPoint as="offset" />
          </mxGeometry>
        </mxCell>
        <mxCell id="FpV503ibzP503yleN7c3-5" value="Return the gradient (0 at a corner)" style="whiteSpace=wrap;html=1;rounded=0;" parent="1" vertex="1">
          <mxGeometry x="200" y="680" width="120" height="60" as="geometry" />
        </mxCell>
        <mxCell id="FpV503ibzP503yleN7c3-11" value="" style="edgeStyle=orthogonalEdgeStyle;rounded=0;orthogonalLoop=1;jettySize=auto;html=1;" parent="1" source="FpV503ibzP503yleN7c3-7" target="FpV503ibzP503yleN7c3-10" edge="1">
          <mxGeometry relative="1" as="geometry" />
        </mxCell>
        <mxCell id="FpV503ibzP503yleN7c3-7" value="Point is in the space between gradient vectors" style="whiteSpace=wrap;html=1;rounded=0;" parent="1" vertex="1">
          <mxGeometry x="400" y="540" width="120" height="60" as="geometry" />
        </mxCell>
        <mxCell id="FpV503ibzP503yleN7c3-13" value="" style="edgeStyle=orthogonalEdgeStyle;rounded=0;orthogonalLoop=1;jettySize=auto;html=1;" parent="1" source="FpV503ibzP503yleN7c3-10" target="FpV503ibzP503yleN7c3-12" edge="1">
          <mxGeometry relative="1" as="geometry" />
        </mxCell>
        <mxCell id="FpV503ibzP503yleN7c3-10" value="Calculate the offset vector from the corner to the target point" style="whiteSpace=wrap;html=1;rounded=0;" parent="1" vertex="1">
          <mxGeometry x="400" y="680" width="120" height="60" as="geometry" />
        </mxCell>
        <mxCell id="oq62Bot3fTl9Q8L02nLl-2" value="" style="edgeStyle=orthogonalEdgeStyle;rounded=0;orthogonalLoop=1;jettySize=auto;html=1;" parent="1" source="FpV503ibzP503yleN7c3-12" target="oq62Bot3fTl9Q8L02nLl-1" edge="1">
          <mxGeometry relative="1" as="geometry" />
        </mxCell>
        <mxCell id="FpV503ibzP503yleN7c3-12" value="Take the dot product between each pair of gradient vectors and offset vectors" style="whiteSpace=wrap;html=1;rounded=0;" parent="1" vertex="1">
          <mxGeometry x="400" y="820" width="120" height="60" as="geometry" />
        </mxCell>
        <mxCell id="F-enpTcHKxULuy2svTPY-3" value="" style="edgeStyle=orthogonalEdgeStyle;rounded=0;orthogonalLoop=1;jettySize=auto;html=1;" edge="1" parent="1" source="oq62Bot3fTl9Q8L02nLl-1" target="F-enpTcHKxULuy2svTPY-2">
          <mxGeometry relative="1" as="geometry" />
        </mxCell>
        <mxCell id="oq62Bot3fTl9Q8L02nLl-1" value="Interpolate between all the dot products to smooth the noise" style="whiteSpace=wrap;html=1;rounded=0;" parent="1" vertex="1">
          <mxGeometry x="400" y="960" width="120" height="60" as="geometry" />
        </mxCell>
        <mxCell id="oq62Bot3fTl9Q8L02nLl-3" value="" style="strokeWidth=2;html=1;shape=mxgraph.flowchart.annotation_2;align=left;labelPosition=right;pointerEvents=1;" parent="1" vertex="1">
          <mxGeometry x="130" y="570" width="70" height="150" as="geometry" />
        </mxCell>
        <mxCell id="oq62Bot3fTl9Q8L02nLl-4" value="These two are not needed: &lt;br&gt;The dot product of the gradient vector and offset vector&amp;nbsp; &lt;br&gt;will return just the dot product gradient vector if the offset is 0" style="text;html=1;align=center;verticalAlign=middle;resizable=0;points=[];autosize=1;" parent="1" vertex="1">
          <mxGeometry x="-210" y="615" width="340" height="50" as="geometry" />
        </mxCell>
        <mxCell id="oq62Bot3fTl9Q8L02nLl-5" value="&lt;b&gt;&lt;u&gt;&lt;font style=&quot;font-size: 17px&quot;&gt;Perlin Noise Sampling&lt;/font&gt;&lt;/u&gt;&lt;/b&gt;" style="text;html=1;strokeColor=none;fillColor=none;align=center;verticalAlign=middle;whiteSpace=wrap;rounded=0;" parent="1" vertex="1">
          <mxGeometry x="190" y="340" width="140" height="30" as="geometry" />
        </mxCell>
        <mxCell id="oq62Bot3fTl9Q8L02nLl-7" value="&lt;b&gt;&lt;u&gt;&lt;font style=&quot;font-size: 17px&quot;&gt;Gradient&amp;nbsp;&lt;/font&gt;&lt;/u&gt;&lt;/b&gt;&lt;span style=&quot;font-size: 17px&quot;&gt;&lt;b&gt;&lt;u&gt;Generation&lt;/u&gt;&lt;/b&gt;&lt;/span&gt;" style="text;html=1;strokeColor=none;fillColor=none;align=center;verticalAlign=middle;whiteSpace=wrap;rounded=0;" parent="1" vertex="1">
          <mxGeometry x="-690" y="340" width="140" height="30" as="geometry" />
        </mxCell>
        <mxCell id="oq62Bot3fTl9Q8L02nLl-10" value="" style="edgeStyle=orthogonalEdgeStyle;rounded=0;orthogonalLoop=1;jettySize=auto;html=1;" parent="1" source="oq62Bot3fTl9Q8L02nLl-8" target="oq62Bot3fTl9Q8L02nLl-9" edge="1">
          <mxGeometry relative="1" as="geometry" />
        </mxCell>
        <mxCell id="oq62Bot3fTl9Q8L02nLl-8" value="Create an empty 3 dimensional array (2 by 100 by 100) with empty floats" style="rounded=0;whiteSpace=wrap;html=1;" parent="1" vertex="1">
          <mxGeometry x="-680" y="380" width="120" height="60" as="geometry" />
        </mxCell>
        <mxCell id="oq62Bot3fTl9Q8L02nLl-12" value="" style="edgeStyle=orthogonalEdgeStyle;rounded=0;orthogonalLoop=1;jettySize=auto;html=1;" parent="1" source="oq62Bot3fTl9Q8L02nLl-9" target="oq62Bot3fTl9Q8L02nLl-11" edge="1">
          <mxGeometry relative="1" as="geometry" />
        </mxCell>
        <mxCell id="oq62Bot3fTl9Q8L02nLl-9" value="Iterate over each element in the array and assign each vector a random x value between 1 and 0&amp;nbsp;" style="whiteSpace=wrap;html=1;rounded=0;" parent="1" vertex="1">
          <mxGeometry x="-680" y="520" width="120" height="90" as="geometry" />
        </mxCell>
        <mxCell id="oq62Bot3fTl9Q8L02nLl-11" value="Calculate y value using Pythagoras with the &lt;span class=&quot;module__title__link&quot;&gt;Hypotenuse&lt;/span&gt; set to 1 (for a unit vector)" style="whiteSpace=wrap;html=1;rounded=0;" parent="1" vertex="1">
          <mxGeometry x="-680" y="705" width="120" height="75" as="geometry" />
        </mxCell>
        <mxCell id="F-enpTcHKxULuy2svTPY-1" value="&lt;div style=&quot;font-size: 11px&quot;&gt;&lt;font style=&quot;font-size: 11px&quot;&gt;Is the coordinate an&lt;/font&gt;&lt;/div&gt;&lt;div style=&quot;font-size: 11px&quot;&gt;&lt;font style=&quot;font-size: 11px&quot;&gt; integer value&lt;/font&gt;&lt;/div&gt;" style="rhombus;whiteSpace=wrap;html=1;" vertex="1" parent="1">
          <mxGeometry x="190" y="533.75" width="140" height="72.5" as="geometry" />
        </mxCell>
        <mxCell id="F-enpTcHKxULuy2svTPY-2" value="Return the interpolated value" style="whiteSpace=wrap;html=1;rounded=0;" vertex="1" parent="1">
          <mxGeometry x="400" y="1100" width="120" height="40" as="geometry" />
        </mxCell>
      </root>
    </mxGraphModel>
  </diagram>
</mxfile>
